<svg xmlns="http://www.w3.org/2000/svg" xmlns:xlink="http://www.w3.org/1999/xlink" width="200" zoomAndPan="magnify" viewBox="0 0 150 149.999998" height="200" preserveAspectRatio="xMidYMid meet" version="1.0"><defs><g/><clipPath id="aeb5cabdda"><path d="M 73 11.515625 L 77 11.515625 L 77 14 L 73 14 Z M 73 11.515625 " clip-rule="nonzero"/></clipPath><clipPath id="72a706e3a2"><path d="M 73 102 L 77 102 L 77 104.515625 L 73 104.515625 Z M 73 102 " clip-rule="nonzero"/></clipPath><clipPath id="e9cade0b15"><path d="M 119 56 L 121.386719 56 L 121.386719 60 L 119 60 Z M 119 56 " clip-rule="nonzero"/></clipPath><clipPath id="6aaa13b1ee"><path d="M 28.386719 56 L 31 56 L 31 60 L 28.386719 60 Z M 28.386719 56 " clip-rule="nonzero"/></clipPath></defs><g clip-path="url(#aeb5cabdda)"><path fill="#545454" d="M 75.359375 13.640625 C 75.34375 13.640625 75.324219 13.640625 75.308594 13.640625 C 75.027344 13.625 74.75 13.625 74.46875 13.640625 C 73.890625 13.660156 73.386719 13.21875 73.359375 12.636719 C 73.332031 12.050781 73.78125 11.554688 74.363281 11.527344 C 74.710938 11.511719 75.0625 11.511719 75.410156 11.527344 C 75.992188 11.554688 76.445312 12.050781 76.414062 12.636719 C 76.386719 13.199219 75.917969 13.640625 75.359375 13.640625 Z M 75.359375 13.640625 " fill-opacity="1" fill-rule="nonzero"/></g><g clip-path="url(#72a706e3a2)"><path fill="#545454" d="M 74.886719 104.515625 C 74.714844 104.515625 74.542969 104.511719 74.367188 104.503906 C 73.785156 104.476562 73.332031 103.980469 73.359375 103.398438 C 73.386719 102.8125 73.886719 102.355469 74.464844 102.390625 C 74.746094 102.402344 75.027344 102.402344 75.308594 102.390625 C 75.886719 102.351562 76.386719 102.8125 76.414062 103.398438 C 76.441406 103.980469 75.992188 104.476562 75.40625 104.503906 C 75.234375 104.511719 75.0625 104.515625 74.886719 104.515625 Z M 74.886719 104.515625 " fill-opacity="1" fill-rule="nonzero"/></g><g clip-path="url(#e9cade0b15)"><path fill="#545454" d="M 120.320312 59.542969 C 120.304688 59.542969 120.285156 59.542969 120.269531 59.542969 C 119.6875 59.515625 119.234375 59.019531 119.261719 58.4375 C 119.277344 58.15625 119.277344 57.875 119.261719 57.59375 C 119.234375 57.007812 119.6875 56.515625 120.269531 56.488281 C 120.847656 56.449219 121.347656 56.910156 121.375 57.496094 C 121.390625 57.839844 121.390625 58.1875 121.375 58.535156 C 121.347656 59.101562 120.882812 59.542969 120.320312 59.542969 Z M 120.320312 59.542969 " fill-opacity="1" fill-rule="nonzero"/></g><g clip-path="url(#6aaa13b1ee)"><path fill="#545454" d="M 29.457031 59.542969 C 28.894531 59.542969 28.429688 59.101562 28.398438 58.535156 C 28.382812 58.1875 28.382812 57.839844 28.398438 57.492188 C 28.429688 56.910156 28.917969 56.449219 29.507812 56.488281 C 30.089844 56.515625 30.542969 57.011719 30.511719 57.59375 C 30.5 57.875 30.5 58.152344 30.511719 58.433594 C 30.542969 59.015625 30.089844 59.511719 29.507812 59.542969 C 29.492188 59.542969 29.472656 59.542969 29.457031 59.542969 Z M 29.457031 59.542969 " fill-opacity="1" fill-rule="nonzero"/></g><path fill="#18d2d2" d="M 79.988281 18.269531 C 79.945312 18.269531 79.898438 18.265625 79.855469 18.261719 C 76.558594 17.84375 73.21875 17.84375 69.921875 18.261719 C 69.328125 18.328125 68.8125 17.921875 68.738281 17.34375 C 68.664062 16.765625 69.078125 16.234375 69.65625 16.164062 C 73.128906 15.726562 76.648438 15.726562 80.117188 16.164062 C 80.699219 16.234375 81.109375 16.765625 81.035156 17.34375 C 80.96875 17.878906 80.511719 18.269531 79.988281 18.269531 Z M 79.988281 18.269531 " fill-opacity="1" fill-rule="nonzero"/><path fill="#18d2d2" d="M 74.886719 100.179688 C 73.136719 100.179688 71.382812 100.070312 69.640625 99.851562 C 69.0625 99.777344 68.652344 99.25 68.722656 98.671875 C 68.796875 98.089844 69.320312 97.679688 69.902344 97.753906 C 73.210938 98.167969 76.566406 98.167969 79.871094 97.753906 C 80.457031 97.679688 80.980469 98.089844 81.050781 98.671875 C 81.125 99.25 80.714844 99.777344 80.132812 99.851562 C 78.394531 100.070312 76.640625 100.179688 74.886719 100.179688 Z M 74.886719 100.179688 " fill-opacity="1" fill-rule="nonzero"/><path fill="#18d2d2" d="M 115.683594 64.179688 C 115.640625 64.179688 115.59375 64.175781 115.550781 64.171875 C 114.972656 64.097656 114.558594 63.566406 114.632812 62.988281 C 115.046875 59.71875 115.042969 56.371094 114.632812 53.035156 C 114.5625 52.457031 114.972656 51.929688 115.554688 51.859375 C 116.121094 51.773438 116.660156 52.199219 116.730469 52.777344 C 117.164062 56.285156 117.164062 59.808594 116.730469 63.253906 C 116.664062 63.789062 116.207031 64.179688 115.683594 64.179688 Z M 115.683594 64.179688 " fill-opacity="1" fill-rule="nonzero"/><path fill="#18d2d2" d="M 34.089844 64.179688 C 33.566406 64.179688 33.109375 63.789062 33.042969 63.253906 C 32.609375 59.816406 32.609375 56.289062 33.042969 52.777344 C 33.113281 52.199219 33.636719 51.773438 34.222656 51.859375 C 34.800781 51.929688 35.210938 52.457031 35.140625 53.035156 C 34.730469 56.375 34.730469 59.726562 35.140625 62.988281 C 35.214844 63.566406 34.804688 64.097656 34.222656 64.171875 C 34.179688 64.175781 34.132812 64.179688 34.089844 64.179688 Z M 34.089844 64.179688 " fill-opacity="1" fill-rule="nonzero"/><path fill="#18d2d2" d="M 85.585938 23.867188 C 85.484375 23.867188 85.382812 23.855469 85.28125 23.824219 C 78.484375 21.765625 71.292969 21.769531 64.492188 23.824219 C 63.933594 23.992188 63.34375 23.675781 63.175781 23.117188 C 63.007812 22.558594 63.320312 21.96875 63.878906 21.800781 C 71.082031 19.621094 78.691406 19.621094 85.894531 21.800781 C 86.453125 21.96875 86.769531 22.558594 86.597656 23.117188 C 86.460938 23.574219 86.042969 23.867188 85.585938 23.867188 Z M 85.585938 23.867188 " fill-opacity="1" fill-rule="nonzero"/><path fill="#18d2d2" d="M 74.886719 95.855469 C 71.179688 95.855469 67.472656 95.308594 63.867188 94.214844 C 63.308594 94.042969 62.992188 93.453125 63.160156 92.894531 C 63.332031 92.335938 63.917969 92.023438 64.480469 92.191406 C 71.285156 94.253906 78.484375 94.253906 85.296875 92.191406 C 85.855469 92.019531 86.445312 92.335938 86.613281 92.894531 C 86.785156 93.453125 86.46875 94.042969 85.910156 94.214844 C 82.304688 95.308594 78.59375 95.855469 74.886719 95.855469 Z M 74.886719 95.855469 " fill-opacity="1" fill-rule="nonzero"/><path fill="#18d2d2" d="M 110.082031 69.78125 C 109.980469 69.78125 109.875 69.765625 109.773438 69.734375 C 109.214844 69.5625 108.902344 68.972656 109.070312 68.414062 C 111.136719 61.617188 111.136719 54.425781 109.070312 47.613281 C 108.902344 47.054688 109.21875 46.464844 109.777344 46.296875 C 110.335938 46.125 110.925781 46.441406 111.09375 47 C 113.28125 54.214844 113.28125 61.832031 111.09375 69.03125 C 110.953125 69.484375 110.535156 69.78125 110.082031 69.78125 Z M 110.082031 69.78125 " fill-opacity="1" fill-rule="nonzero"/><path fill="#18d2d2" d="M 39.691406 69.78125 C 39.238281 69.78125 38.820312 69.484375 38.679688 69.03125 C 36.492188 61.832031 36.492188 54.214844 38.679688 47 C 38.851562 46.441406 39.4375 46.125 40 46.296875 C 40.558594 46.464844 40.875 47.054688 40.703125 47.613281 C 38.636719 54.425781 38.636719 61.617188 40.703125 68.414062 C 40.875 68.972656 40.558594 69.5625 40 69.734375 C 39.898438 69.765625 39.792969 69.78125 39.691406 69.78125 Z M 39.691406 69.78125 " fill-opacity="1" fill-rule="nonzero"/><path fill="#18d2d2" d="M 74.886719 91.507812 C 66.304688 91.507812 57.722656 88.242188 51.191406 81.707031 C 38.125 68.640625 38.125 47.382812 51.191406 34.3125 C 64.257812 21.246094 85.519531 21.246094 98.585938 34.3125 C 111.652344 47.382812 111.652344 68.640625 98.585938 81.707031 C 92.050781 88.242188 83.46875 91.507812 74.886719 91.507812 Z M 74.886719 26.628906 C 66.847656 26.628906 58.808594 29.6875 52.6875 35.808594 C 40.445312 48.050781 40.445312 67.972656 52.6875 80.214844 C 64.929688 92.453125 84.847656 92.453125 97.089844 80.214844 C 109.332031 67.972656 109.332031 48.050781 97.089844 35.808594 C 90.96875 29.6875 82.929688 26.628906 74.886719 26.628906 Z M 74.886719 26.628906 " fill-opacity="1" fill-rule="nonzero"/><path fill="#18d2d2" d="M 74.886719 87.183594 C 67.414062 87.183594 59.941406 84.335938 54.25 78.648438 C 42.871094 67.269531 42.871094 48.753906 54.25 37.375 C 65.632812 25.996094 84.144531 25.996094 95.523438 37.375 C 106.902344 48.753906 106.902344 67.269531 95.523438 78.648438 C 89.835938 84.335938 82.359375 87.183594 74.886719 87.183594 Z M 74.886719 30.957031 C 67.957031 30.957031 61.023438 33.59375 55.746094 38.871094 C 45.191406 49.425781 45.191406 66.597656 55.746094 77.152344 C 66.300781 87.707031 83.476562 87.707031 94.027344 77.152344 C 104.582031 66.597656 104.582031 49.425781 94.027344 38.871094 C 88.75 33.59375 81.820312 30.957031 74.886719 30.957031 Z M 74.886719 30.957031 " fill-opacity="1" fill-rule="nonzero"/><path fill="#18d2d2" d="M 74.886719 82.867188 C 68.25 82.867188 62.007812 80.28125 57.3125 75.585938 C 52.617188 70.894531 50.03125 64.648438 50.03125 58.011719 C 50.03125 51.371094 52.617188 45.128906 57.3125 40.4375 C 62.007812 35.742188 68.25 33.15625 74.886719 33.15625 C 81.527344 33.15625 87.769531 35.742188 92.464844 40.4375 C 97.15625 45.128906 99.742188 51.371094 99.742188 58.011719 C 99.742188 64.648438 97.15625 70.894531 92.464844 75.585938 C 87.769531 80.28125 81.527344 82.867188 74.886719 82.867188 Z M 74.886719 35.28125 C 69.066406 35.28125 63.242188 37.496094 58.808594 41.929688 C 49.941406 50.796875 49.941406 65.226562 58.808594 74.09375 C 67.671875 82.957031 82.101562 82.957031 90.96875 74.09375 C 99.835938 65.226562 99.835938 50.796875 90.96875 41.929688 C 86.535156 37.496094 80.710938 35.28125 74.886719 35.28125 Z M 74.886719 35.28125 " fill-opacity="1" fill-rule="nonzero"/><path fill="#18d2d2" d="M 74.886719 78.527344 C 69.632812 78.527344 64.375 76.527344 60.371094 72.527344 C 52.367188 64.523438 52.367188 51.5 60.371094 43.496094 C 68.375 35.492188 81.398438 35.492188 89.402344 43.496094 C 97.40625 51.5 97.40625 64.523438 89.402344 72.527344 C 85.402344 76.527344 80.144531 78.527344 74.886719 78.527344 Z M 74.886719 39.609375 C 70.171875 39.609375 65.457031 41.402344 61.867188 44.992188 C 54.6875 52.171875 54.6875 63.851562 61.867188 71.03125 C 69.046875 78.210938 80.726562 78.210938 87.90625 71.03125 C 95.085938 63.851562 95.085938 52.171875 87.90625 44.992188 C 84.316406 41.402344 79.601562 39.609375 74.886719 39.609375 Z M 74.886719 39.609375 " fill-opacity="1" fill-rule="nonzero"/><path fill="#18d2d2" d="M 74.886719 74.203125 C 70.738281 74.203125 66.589844 72.625 63.433594 69.464844 C 57.117188 63.148438 57.117188 52.871094 63.433594 46.558594 C 69.75 40.242188 80.027344 40.242188 86.339844 46.558594 C 92.65625 52.871094 92.65625 63.148438 86.339844 69.464844 C 83.183594 72.625 79.035156 74.203125 74.886719 74.203125 Z M 74.886719 43.933594 C 71.28125 43.933594 67.675781 45.308594 64.929688 48.050781 C 59.4375 53.542969 59.4375 62.480469 64.929688 67.96875 C 70.421875 73.460938 79.355469 73.460938 84.847656 67.96875 C 90.339844 62.480469 90.339844 53.542969 84.847656 48.050781 C 82.101562 45.308594 78.496094 43.933594 74.886719 43.933594 Z M 74.886719 43.933594 " fill-opacity="1" fill-rule="nonzero"/><path fill="#18d2d2" d="M 74.886719 69.875 C 71.847656 69.875 68.808594 68.71875 66.496094 66.40625 C 61.867188 61.777344 61.867188 54.246094 66.496094 49.617188 C 71.121094 44.988281 78.652344 44.988281 83.28125 49.617188 C 87.910156 54.246094 87.910156 61.777344 83.28125 66.40625 C 80.96875 68.71875 77.925781 69.875 74.886719 69.875 Z M 74.886719 48.261719 C 72.390625 48.261719 69.890625 49.210938 67.988281 51.113281 C 64.1875 54.917969 64.1875 61.105469 67.988281 64.910156 C 71.792969 68.714844 77.980469 68.714844 81.785156 64.910156 C 85.589844 61.105469 85.589844 54.917969 81.785156 51.113281 C 79.882812 49.210938 77.386719 48.261719 74.886719 48.261719 Z M 74.886719 48.261719 " fill-opacity="1" fill-rule="nonzero"/><path fill="#545454" d="M 74.886719 65.550781 C 72.957031 65.550781 71.027344 64.816406 69.554688 63.34375 C 66.613281 60.402344 66.613281 55.617188 69.554688 52.679688 C 72.496094 49.738281 77.277344 49.738281 80.21875 52.679688 C 83.160156 55.617188 83.160156 60.402344 80.21875 63.34375 C 78.75 64.816406 76.820312 65.550781 74.886719 65.550781 Z M 74.886719 52.585938 C 73.496094 52.585938 72.109375 53.117188 71.050781 54.175781 C 68.933594 56.289062 68.933594 59.734375 71.050781 61.847656 C 73.167969 63.964844 76.609375 63.964844 78.726562 61.847656 C 80.839844 59.734375 80.839844 56.289062 78.726562 54.175781 C 77.667969 53.117188 76.277344 52.585938 74.886719 52.585938 Z M 74.886719 52.585938 " fill-opacity="1" fill-rule="nonzero"/><g fill="#545454" fill-opacity="1"><g transform="translate(35.454267, 126.375109)"><g><path d="M 1.359375 -10.171875 L 3.25 -10.171875 L 3.25 -1.59375 L 8.578125 -1.59375 L 8.578125 0 L 1.359375 0 Z M 1.359375 -10.171875 "/></g></g></g><g fill="#545454" fill-opacity="1"><g transform="translate(47.064211, 126.375109)"><g><path d="M 1.359375 -10.171875 L 3.25 -10.171875 L 3.25 0 L 1.359375 0 Z M 1.359375 -10.171875 "/></g></g></g><g fill="#545454" fill-opacity="1"><g transform="translate(54.605772, 126.375109)"><g><path d="M 10.40625 -10.171875 L 10.40625 0 L 8.84375 0 L 3.234375 -6.890625 L 3.234375 0 L 1.359375 0 L 1.359375 -10.171875 L 2.921875 -10.171875 L 8.53125 -3.28125 L 8.53125 -10.171875 Z M 10.40625 -10.171875 "/></g></g></g><g fill="#545454" fill-opacity="1"><g transform="translate(69.281534, 126.375109)"><g><path d="M 4.875 -4.25 L 3.25 -2.59375 L 3.25 0 L 1.359375 0 L 1.359375 -10.171875 L 3.25 -10.171875 L 3.25 -4.953125 L 8.28125 -10.171875 L 10.40625 -10.171875 L 6.125 -5.625 L 10.671875 0 L 8.453125 0 Z M 4.875 -4.25 "/></g></g></g><g fill="#545454" fill-opacity="1"><g transform="translate(82.780373, 126.375109)"><g><path d="M 6.125 0.140625 C 5.082031 0.140625 4.144531 -0.0820312 3.3125 -0.53125 C 2.476562 -0.976562 1.820312 -1.601562 1.34375 -2.40625 C 0.875 -3.207031 0.640625 -4.097656 0.640625 -5.078125 C 0.640625 -6.066406 0.875 -6.960938 1.34375 -7.765625 C 1.820312 -8.566406 2.476562 -9.191406 3.3125 -9.640625 C 4.144531 -10.085938 5.082031 -10.3125 6.125 -10.3125 C 7.15625 -10.3125 8.085938 -10.085938 8.921875 -9.640625 C 9.753906 -9.191406 10.40625 -8.566406 10.875 -7.765625 C 11.351562 -6.972656 11.59375 -6.078125 11.59375 -5.078125 C 11.59375 -4.085938 11.351562 -3.191406 10.875 -2.390625 C 10.40625 -1.597656 9.753906 -0.976562 8.921875 -0.53125 C 8.085938 -0.0820312 7.15625 0.140625 6.125 0.140625 Z M 6.125 -1.515625 C 6.800781 -1.515625 7.410156 -1.664062 7.953125 -1.96875 C 8.492188 -2.269531 8.914062 -2.691406 9.21875 -3.234375 C 9.53125 -3.785156 9.6875 -4.398438 9.6875 -5.078125 C 9.6875 -5.765625 9.53125 -6.378906 9.21875 -6.921875 C 8.914062 -7.472656 8.492188 -7.898438 7.953125 -8.203125 C 7.410156 -8.503906 6.800781 -8.65625 6.125 -8.65625 C 5.4375 -8.65625 4.820312 -8.503906 4.28125 -8.203125 C 3.738281 -7.898438 3.3125 -7.472656 3 -6.921875 C 2.695312 -6.378906 2.546875 -5.765625 2.546875 -5.078125 C 2.546875 -4.398438 2.695312 -3.785156 3 -3.234375 C 3.3125 -2.691406 3.738281 -2.269531 4.28125 -1.96875 C 4.820312 -1.664062 5.4375 -1.515625 6.125 -1.515625 Z M 6.125 -1.515625 "/></g></g></g><g fill="#545454" fill-opacity="1"><g transform="translate(97.921093, 126.375109)"><g><path d="M 16.234375 -10.171875 L 12.859375 0 L 10.859375 0 L 8.34375 -7.53125 L 5.78125 0 L 3.765625 0 L 0.390625 -10.171875 L 2.359375 -10.171875 L 4.875 -2.4375 L 7.515625 -10.171875 L 9.25 -10.171875 L 11.828125 -2.390625 L 14.421875 -10.171875 Z M 16.234375 -10.171875 "/></g></g></g><g fill="#18d2d2" fill-opacity="1"><g transform="translate(8.194971, 136.970573)"><g><path d="M 4.09375 -0.71875 L 4.09375 0 L 0.625 0 L 0.625 -4.625 L 4 -4.625 L 4 -3.90625 L 1.484375 -3.90625 L 1.484375 -2.703125 L 3.71875 -2.703125 L 3.71875 -2 L 1.484375 -2 L 1.484375 -0.71875 Z M 4.09375 -0.71875 "/></g></g></g><g fill="#18d2d2" fill-opacity="1"><g transform="translate(13.938782, 136.970573)"><g><path d="M 3.53125 0 L 2.28125 -1.765625 L 1.03125 0 L 0.0625 0 L 1.78125 -2.359375 L 0.15625 -4.625 L 1.125 -4.625 L 2.3125 -2.984375 L 3.484375 -4.625 L 4.40625 -4.625 L 2.796875 -2.390625 L 4.53125 0 Z M 3.53125 0 "/></g></g></g><g fill="#18d2d2" fill-opacity="1"><g transform="translate(19.834417, 136.970573)"><g><path d="M 2.53125 -4.625 C 2.925781 -4.625 3.269531 -4.554688 3.5625 -4.421875 C 3.863281 -4.296875 4.09375 -4.109375 4.25 -3.859375 C 4.414062 -3.609375 4.5 -3.316406 4.5 -2.984375 C 4.5 -2.648438 4.414062 -2.359375 4.25 -2.109375 C 4.09375 -1.859375 3.863281 -1.664062 3.5625 -1.53125 C 3.269531 -1.394531 2.925781 -1.328125 2.53125 -1.328125 L 1.484375 -1.328125 L 1.484375 0 L 0.625 0 L 0.625 -4.625 Z M 2.484375 -2.0625 C 2.859375 -2.0625 3.140625 -2.140625 3.328125 -2.296875 C 3.523438 -2.453125 3.625 -2.679688 3.625 -2.984375 C 3.625 -3.273438 3.523438 -3.5 3.328125 -3.65625 C 3.140625 -3.820312 2.859375 -3.90625 2.484375 -3.90625 L 1.484375 -3.90625 L 1.484375 -2.0625 Z M 2.484375 -2.0625 "/></g></g></g><g fill="#18d2d2" fill-opacity="1"><g transform="translate(25.947882, 136.970573)"><g><path d="M 3.625 -1.078125 L 1.3125 -1.078125 L 0.859375 0 L -0.03125 0 L 2.046875 -4.625 L 2.890625 -4.625 L 4.984375 0 L 4.078125 0 Z M 3.34375 -1.75 L 2.46875 -3.765625 L 1.59375 -1.75 Z M 3.34375 -1.75 "/></g></g></g><g fill="#18d2d2" fill-opacity="1"><g transform="translate(32.213172, 136.970573)"><g><path d="M 4.734375 -4.625 L 4.734375 0 L 4.03125 0 L 1.46875 -3.140625 L 1.46875 0 L 0.625 0 L 0.625 -4.625 L 1.328125 -4.625 L 3.875 -1.5 L 3.875 -4.625 Z M 4.734375 -4.625 "/></g></g></g><g fill="#18d2d2" fill-opacity="1"><g transform="translate(38.881124, 136.970573)"><g><path d="M 0.625 -4.625 L 2.640625 -4.625 C 3.140625 -4.625 3.578125 -4.523438 3.953125 -4.328125 C 4.335938 -4.140625 4.632812 -3.867188 4.84375 -3.515625 C 5.0625 -3.171875 5.171875 -2.769531 5.171875 -2.3125 C 5.171875 -1.851562 5.0625 -1.445312 4.84375 -1.09375 C 4.632812 -0.75 4.335938 -0.476562 3.953125 -0.28125 C 3.578125 -0.09375 3.140625 0 2.640625 0 L 0.625 0 Z M 2.609375 -0.734375 C 2.941406 -0.734375 3.238281 -0.796875 3.5 -0.921875 C 3.757812 -1.046875 3.957031 -1.226562 4.09375 -1.46875 C 4.226562 -1.71875 4.296875 -2 4.296875 -2.3125 C 4.296875 -2.632812 4.226562 -2.914062 4.09375 -3.15625 C 3.957031 -3.394531 3.757812 -3.578125 3.5 -3.703125 C 3.238281 -3.835938 2.941406 -3.90625 2.609375 -3.90625 L 1.484375 -3.90625 L 1.484375 -0.734375 Z M 2.609375 -0.734375 "/></g></g></g><g fill="#18d2d2" fill-opacity="1"><g transform="translate(45.654693, 136.970573)"><g/></g></g><g fill="#18d2d2" fill-opacity="1"><g transform="translate(48.797716, 136.970573)"><g><path d="M 2.625 -1.625 L 2.625 0 L 1.765625 0 L 1.765625 -1.625 L -0.0625 -4.625 L 0.859375 -4.625 L 2.21875 -2.375 L 3.578125 -4.625 L 4.421875 -4.625 Z M 2.625 -1.625 "/></g></g></g><g fill="#18d2d2" fill-opacity="1"><g transform="translate(54.482117, 136.970573)"><g><path d="M 2.78125 0.0625 C 2.3125 0.0625 1.882812 -0.0351562 1.5 -0.234375 C 1.125 -0.441406 0.828125 -0.726562 0.609375 -1.09375 C 0.398438 -1.457031 0.296875 -1.863281 0.296875 -2.3125 C 0.296875 -2.757812 0.398438 -3.164062 0.609375 -3.53125 C 0.828125 -3.894531 1.125 -4.175781 1.5 -4.375 C 1.882812 -4.582031 2.3125 -4.6875 2.78125 -4.6875 C 3.25 -4.6875 3.671875 -4.582031 4.046875 -4.375 C 4.429688 -4.175781 4.734375 -3.894531 4.953125 -3.53125 C 5.171875 -3.175781 5.28125 -2.769531 5.28125 -2.3125 C 5.28125 -1.851562 5.171875 -1.441406 4.953125 -1.078125 C 4.734375 -0.722656 4.429688 -0.441406 4.046875 -0.234375 C 3.671875 -0.0351562 3.25 0.0625 2.78125 0.0625 Z M 2.78125 -0.6875 C 3.09375 -0.6875 3.367188 -0.753906 3.609375 -0.890625 C 3.859375 -1.035156 4.050781 -1.226562 4.1875 -1.46875 C 4.332031 -1.71875 4.40625 -2 4.40625 -2.3125 C 4.40625 -2.625 4.332031 -2.898438 4.1875 -3.140625 C 4.050781 -3.390625 3.859375 -3.582031 3.609375 -3.71875 C 3.367188 -3.863281 3.09375 -3.9375 2.78125 -3.9375 C 2.46875 -3.9375 2.1875 -3.863281 1.9375 -3.71875 C 1.695312 -3.582031 1.503906 -3.390625 1.359375 -3.140625 C 1.222656 -2.898438 1.15625 -2.625 1.15625 -2.3125 C 1.15625 -2 1.222656 -1.71875 1.359375 -1.46875 C 1.503906 -1.226562 1.695312 -1.035156 1.9375 -0.890625 C 2.1875 -0.753906 2.46875 -0.6875 2.78125 -0.6875 Z M 2.78125 -0.6875 "/></g></g></g><g fill="#18d2d2" fill-opacity="1"><g transform="translate(61.361297, 136.970573)"><g><path d="M 2.609375 0.0625 C 1.972656 0.0625 1.472656 -0.113281 1.109375 -0.46875 C 0.753906 -0.832031 0.578125 -1.347656 0.578125 -2.015625 L 0.578125 -4.625 L 1.4375 -4.625 L 1.4375 -2.046875 C 1.4375 -1.140625 1.832031 -0.6875 2.625 -0.6875 C 3.394531 -0.6875 3.78125 -1.140625 3.78125 -2.046875 L 3.78125 -4.625 L 4.640625 -4.625 L 4.640625 -2.015625 C 4.640625 -1.347656 4.457031 -0.832031 4.09375 -0.46875 C 3.738281 -0.113281 3.242188 0.0625 2.609375 0.0625 Z M 2.609375 0.0625 "/></g></g></g><g fill="#18d2d2" fill-opacity="1"><g transform="translate(67.890621, 136.970573)"><g><path d="M 3.640625 0 L 2.703125 -1.359375 C 2.660156 -1.347656 2.601562 -1.34375 2.53125 -1.34375 L 1.484375 -1.34375 L 1.484375 0 L 0.625 0 L 0.625 -4.625 L 2.53125 -4.625 C 2.925781 -4.625 3.269531 -4.554688 3.5625 -4.421875 C 3.863281 -4.296875 4.09375 -4.109375 4.25 -3.859375 C 4.414062 -3.609375 4.5 -3.316406 4.5 -2.984375 C 4.5 -2.628906 4.410156 -2.328125 4.234375 -2.078125 C 4.066406 -1.828125 3.828125 -1.640625 3.515625 -1.515625 L 4.578125 0 Z M 3.625 -2.984375 C 3.625 -3.273438 3.523438 -3.5 3.328125 -3.65625 C 3.140625 -3.820312 2.859375 -3.90625 2.484375 -3.90625 L 1.484375 -3.90625 L 1.484375 -2.0625 L 2.484375 -2.0625 C 2.859375 -2.0625 3.140625 -2.140625 3.328125 -2.296875 C 3.523438 -2.453125 3.625 -2.679688 3.625 -2.984375 Z M 3.625 -2.984375 "/></g></g></g><g fill="#18d2d2" fill-opacity="1"><g transform="translate(74.037091, 136.970573)"><g/></g></g><g fill="#18d2d2" fill-opacity="1"><g transform="translate(77.180111, 136.970573)"><g><path d="M 2.765625 0.0625 C 2.296875 0.0625 1.875 -0.0351562 1.5 -0.234375 C 1.125 -0.441406 0.828125 -0.722656 0.609375 -1.078125 C 0.398438 -1.441406 0.296875 -1.851562 0.296875 -2.3125 C 0.296875 -2.769531 0.398438 -3.175781 0.609375 -3.53125 C 0.828125 -3.894531 1.125 -4.175781 1.5 -4.375 C 1.875 -4.582031 2.296875 -4.6875 2.765625 -4.6875 C 3.148438 -4.6875 3.5 -4.617188 3.8125 -4.484375 C 4.125 -4.359375 4.382812 -4.171875 4.59375 -3.921875 L 4.046875 -3.390625 C 3.710938 -3.753906 3.300781 -3.9375 2.8125 -3.9375 C 2.488281 -3.9375 2.203125 -3.863281 1.953125 -3.71875 C 1.703125 -3.582031 1.503906 -3.390625 1.359375 -3.140625 C 1.222656 -2.898438 1.15625 -2.625 1.15625 -2.3125 C 1.15625 -2 1.222656 -1.71875 1.359375 -1.46875 C 1.503906 -1.226562 1.703125 -1.035156 1.953125 -0.890625 C 2.203125 -0.753906 2.488281 -0.6875 2.8125 -0.6875 C 3.300781 -0.6875 3.710938 -0.867188 4.046875 -1.234375 L 4.59375 -0.703125 C 4.382812 -0.453125 4.117188 -0.257812 3.796875 -0.125 C 3.484375 0 3.140625 0.0625 2.765625 0.0625 Z M 2.765625 0.0625 "/></g></g></g><g fill="#18d2d2" fill-opacity="1"><g transform="translate(83.300177, 136.970573)"><g><path d="M 2.78125 0.0625 C 2.3125 0.0625 1.882812 -0.0351562 1.5 -0.234375 C 1.125 -0.441406 0.828125 -0.726562 0.609375 -1.09375 C 0.398438 -1.457031 0.296875 -1.863281 0.296875 -2.3125 C 0.296875 -2.757812 0.398438 -3.164062 0.609375 -3.53125 C 0.828125 -3.894531 1.125 -4.175781 1.5 -4.375 C 1.882812 -4.582031 2.3125 -4.6875 2.78125 -4.6875 C 3.25 -4.6875 3.671875 -4.582031 4.046875 -4.375 C 4.429688 -4.175781 4.734375 -3.894531 4.953125 -3.53125 C 5.171875 -3.175781 5.28125 -2.769531 5.28125 -2.3125 C 5.28125 -1.851562 5.171875 -1.441406 4.953125 -1.078125 C 4.734375 -0.722656 4.429688 -0.441406 4.046875 -0.234375 C 3.671875 -0.0351562 3.25 0.0625 2.78125 0.0625 Z M 2.78125 -0.6875 C 3.09375 -0.6875 3.367188 -0.753906 3.609375 -0.890625 C 3.859375 -1.035156 4.050781 -1.226562 4.1875 -1.46875 C 4.332031 -1.71875 4.40625 -2 4.40625 -2.3125 C 4.40625 -2.625 4.332031 -2.898438 4.1875 -3.140625 C 4.050781 -3.390625 3.859375 -3.582031 3.609375 -3.71875 C 3.367188 -3.863281 3.09375 -3.9375 2.78125 -3.9375 C 2.46875 -3.9375 2.1875 -3.863281 1.9375 -3.71875 C 1.695312 -3.582031 1.503906 -3.390625 1.359375 -3.140625 C 1.222656 -2.898438 1.15625 -2.625 1.15625 -2.3125 C 1.15625 -2 1.222656 -1.71875 1.359375 -1.46875 C 1.503906 -1.226562 1.695312 -1.035156 1.9375 -0.890625 C 2.1875 -0.753906 2.46875 -0.6875 2.78125 -0.6875 Z M 2.78125 -0.6875 "/></g></g></g><g fill="#18d2d2" fill-opacity="1"><g transform="translate(90.179355, 136.970573)"><g><path d="M 4.734375 -4.625 L 4.734375 0 L 4.03125 0 L 1.46875 -3.140625 L 1.46875 0 L 0.625 0 L 0.625 -4.625 L 1.328125 -4.625 L 3.875 -1.5 L 3.875 -4.625 Z M 4.734375 -4.625 "/></g></g></g><g fill="#18d2d2" fill-opacity="1"><g transform="translate(96.847303, 136.970573)"><g><path d="M 4.734375 -4.625 L 4.734375 0 L 4.03125 0 L 1.46875 -3.140625 L 1.46875 0 L 0.625 0 L 0.625 -4.625 L 1.328125 -4.625 L 3.875 -1.5 L 3.875 -4.625 Z M 4.734375 -4.625 "/></g></g></g><g fill="#18d2d2" fill-opacity="1"><g transform="translate(103.515252, 136.970573)"><g><path d="M 4.09375 -0.71875 L 4.09375 0 L 0.625 0 L 0.625 -4.625 L 4 -4.625 L 4 -3.90625 L 1.484375 -3.90625 L 1.484375 -2.703125 L 3.71875 -2.703125 L 3.71875 -2 L 1.484375 -2 L 1.484375 -0.71875 Z M 4.09375 -0.71875 "/></g></g></g><g fill="#18d2d2" fill-opacity="1"><g transform="translate(109.25906, 136.970573)"><g><path d="M 2.765625 0.0625 C 2.296875 0.0625 1.875 -0.0351562 1.5 -0.234375 C 1.125 -0.441406 0.828125 -0.722656 0.609375 -1.078125 C 0.398438 -1.441406 0.296875 -1.851562 0.296875 -2.3125 C 0.296875 -2.769531 0.398438 -3.175781 0.609375 -3.53125 C 0.828125 -3.894531 1.125 -4.175781 1.5 -4.375 C 1.875 -4.582031 2.296875 -4.6875 2.765625 -4.6875 C 3.148438 -4.6875 3.5 -4.617188 3.8125 -4.484375 C 4.125 -4.359375 4.382812 -4.171875 4.59375 -3.921875 L 4.046875 -3.390625 C 3.710938 -3.753906 3.300781 -3.9375 2.8125 -3.9375 C 2.488281 -3.9375 2.203125 -3.863281 1.953125 -3.71875 C 1.703125 -3.582031 1.503906 -3.390625 1.359375 -3.140625 C 1.222656 -2.898438 1.15625 -2.625 1.15625 -2.3125 C 1.15625 -2 1.222656 -1.71875 1.359375 -1.46875 C 1.503906 -1.226562 1.703125 -1.035156 1.953125 -0.890625 C 2.203125 -0.753906 2.488281 -0.6875 2.8125 -0.6875 C 3.300781 -0.6875 3.710938 -0.867188 4.046875 -1.234375 L 4.59375 -0.703125 C 4.382812 -0.453125 4.117188 -0.257812 3.796875 -0.125 C 3.484375 0 3.140625 0.0625 2.765625 0.0625 Z M 2.765625 0.0625 "/></g></g></g><g fill="#18d2d2" fill-opacity="1"><g transform="translate(115.379126, 136.970573)"><g><path d="M 1.5625 -3.90625 L 0.03125 -3.90625 L 0.03125 -4.625 L 3.953125 -4.625 L 3.953125 -3.90625 L 2.421875 -3.90625 L 2.421875 0 L 1.5625 0 Z M 1.5625 -3.90625 "/></g></g></g><g fill="#18d2d2" fill-opacity="1"><g transform="translate(120.674074, 136.970573)"><g><path d="M 0.625 -4.625 L 1.484375 -4.625 L 1.484375 0 L 0.625 0 Z M 0.625 -4.625 "/></g></g></g><g fill="#18d2d2" fill-opacity="1"><g transform="translate(124.100932, 136.970573)"><g><path d="M 2.78125 0.0625 C 2.3125 0.0625 1.882812 -0.0351562 1.5 -0.234375 C 1.125 -0.441406 0.828125 -0.726562 0.609375 -1.09375 C 0.398438 -1.457031 0.296875 -1.863281 0.296875 -2.3125 C 0.296875 -2.757812 0.398438 -3.164062 0.609375 -3.53125 C 0.828125 -3.894531 1.125 -4.175781 1.5 -4.375 C 1.882812 -4.582031 2.3125 -4.6875 2.78125 -4.6875 C 3.25 -4.6875 3.671875 -4.582031 4.046875 -4.375 C 4.429688 -4.175781 4.734375 -3.894531 4.953125 -3.53125 C 5.171875 -3.175781 5.28125 -2.769531 5.28125 -2.3125 C 5.28125 -1.851562 5.171875 -1.441406 4.953125 -1.078125 C 4.734375 -0.722656 4.429688 -0.441406 4.046875 -0.234375 C 3.671875 -0.0351562 3.25 0.0625 2.78125 0.0625 Z M 2.78125 -0.6875 C 3.09375 -0.6875 3.367188 -0.753906 3.609375 -0.890625 C 3.859375 -1.035156 4.050781 -1.226562 4.1875 -1.46875 C 4.332031 -1.71875 4.40625 -2 4.40625 -2.3125 C 4.40625 -2.625 4.332031 -2.898438 4.1875 -3.140625 C 4.050781 -3.390625 3.859375 -3.582031 3.609375 -3.71875 C 3.367188 -3.863281 3.09375 -3.9375 2.78125 -3.9375 C 2.46875 -3.9375 2.1875 -3.863281 1.9375 -3.71875 C 1.695312 -3.582031 1.503906 -3.390625 1.359375 -3.140625 C 1.222656 -2.898438 1.15625 -2.625 1.15625 -2.3125 C 1.15625 -2 1.222656 -1.71875 1.359375 -1.46875 C 1.503906 -1.226562 1.695312 -1.035156 1.9375 -0.890625 C 2.1875 -0.753906 2.46875 -0.6875 2.78125 -0.6875 Z M 2.78125 -0.6875 "/></g></g></g><g fill="#18d2d2" fill-opacity="1"><g transform="translate(130.98011, 136.970573)"><g><path d="M 4.734375 -4.625 L 4.734375 0 L 4.03125 0 L 1.46875 -3.140625 L 1.46875 0 L 0.625 0 L 0.625 -4.625 L 1.328125 -4.625 L 3.875 -1.5 L 3.875 -4.625 Z M 4.734375 -4.625 "/></g></g></g><g fill="#18d2d2" fill-opacity="1"><g transform="translate(137.648065, 136.970573)"><g><path d="M 2.0625 0.0625 C 1.695312 0.0625 1.347656 0.015625 1.015625 -0.078125 C 0.679688 -0.179688 0.421875 -0.316406 0.234375 -0.484375 L 0.53125 -1.15625 C 0.71875 -1.007812 0.945312 -0.882812 1.21875 -0.78125 C 1.5 -0.6875 1.78125 -0.640625 2.0625 -0.640625 C 2.40625 -0.640625 2.660156 -0.695312 2.828125 -0.8125 C 2.992188 -0.925781 3.078125 -1.070312 3.078125 -1.25 C 3.078125 -1.382812 3.03125 -1.492188 2.9375 -1.578125 C 2.84375 -1.660156 2.722656 -1.722656 2.578125 -1.765625 C 2.429688 -1.816406 2.234375 -1.875 1.984375 -1.9375 C 1.628906 -2.019531 1.34375 -2.101562 1.125 -2.1875 C 0.90625 -2.269531 0.71875 -2.398438 0.5625 -2.578125 C 0.40625 -2.765625 0.328125 -3.007812 0.328125 -3.3125 C 0.328125 -3.5625 0.394531 -3.789062 0.53125 -4 C 0.675781 -4.21875 0.890625 -4.382812 1.171875 -4.5 C 1.453125 -4.625 1.789062 -4.6875 2.1875 -4.6875 C 2.476562 -4.6875 2.757812 -4.648438 3.03125 -4.578125 C 3.300781 -4.515625 3.535156 -4.414062 3.734375 -4.28125 L 3.46875 -3.609375 C 3.257812 -3.734375 3.046875 -3.828125 2.828125 -3.890625 C 2.609375 -3.953125 2.394531 -3.984375 2.1875 -3.984375 C 1.84375 -3.984375 1.585938 -3.925781 1.421875 -3.8125 C 1.265625 -3.695312 1.1875 -3.539062 1.1875 -3.34375 C 1.1875 -3.21875 1.234375 -3.113281 1.328125 -3.03125 C 1.421875 -2.945312 1.539062 -2.878906 1.6875 -2.828125 C 1.832031 -2.773438 2.03125 -2.71875 2.28125 -2.65625 C 2.625 -2.582031 2.90625 -2.5 3.125 -2.40625 C 3.34375 -2.320312 3.53125 -2.191406 3.6875 -2.015625 C 3.84375 -1.847656 3.921875 -1.613281 3.921875 -1.3125 C 3.921875 -1.050781 3.851562 -0.816406 3.71875 -0.609375 C 3.582031 -0.398438 3.367188 -0.234375 3.078125 -0.109375 C 2.796875 0.00390625 2.457031 0.0625 2.0625 0.0625 Z M 2.0625 0.0625 "/></g></g></g></svg>