<svg xmlns="http://www.w3.org/2000/svg" xmlns:xlink="http://www.w3.org/1999/xlink" width="200" zoomAndPan="magnify" viewBox="0 0 150 149.999998" height="200" preserveAspectRatio="xMidYMid meet" version="1.0"><defs><g/><clipPath id="a0964ad273"><path d="M 73 2.210938 L 77 2.210938 L 77 5 L 73 5 Z M 73 2.210938 " clip-rule="nonzero"/></clipPath><clipPath id="1674894423"><path d="M 73 114 L 77 114 L 77 117.058594 L 73 117.058594 Z M 73 114 " clip-rule="nonzero"/></clipPath><clipPath id="629cba9b77"><path d="M 129 57 L 132.515625 57 L 132.515625 62 L 129 62 Z M 129 57 " clip-rule="nonzero"/></clipPath><clipPath id="ddb413ca10"><path d="M 17.667969 57 L 21 57 L 21 62 L 17.667969 62 Z M 17.667969 57 " clip-rule="nonzero"/></clipPath></defs><g clip-path="url(#a0964ad273)"><path fill="#d9d9d9" d="M 75.675781 4.835938 C 75.652344 4.835938 75.632812 4.835938 75.609375 4.835938 C 75.261719 4.816406 74.921875 4.816406 74.574219 4.835938 C 73.863281 4.863281 73.242188 4.316406 73.207031 3.59375 C 73.171875 2.875 73.726562 2.261719 74.445312 2.226562 C 74.875 2.207031 75.308594 2.207031 75.738281 2.226562 C 76.457031 2.261719 77.015625 2.875 76.976562 3.59375 C 76.945312 4.292969 76.367188 4.835938 75.675781 4.835938 Z M 75.675781 4.835938 " fill-opacity="1" fill-rule="nonzero"/></g><g clip-path="url(#1674894423)"><path fill="#d9d9d9" d="M 75.09375 117.058594 C 74.878906 117.058594 74.664062 117.054688 74.449219 117.042969 C 73.730469 117.011719 73.171875 116.398438 73.207031 115.679688 C 73.238281 114.957031 73.855469 114.390625 74.570312 114.433594 C 74.917969 114.449219 75.265625 114.449219 75.613281 114.433594 C 76.328125 114.386719 76.945312 114.957031 76.976562 115.679688 C 77.011719 116.398438 76.453125 117.011719 75.734375 117.042969 C 75.519531 117.054688 75.304688 117.058594 75.09375 117.058594 Z M 75.09375 117.058594 " fill-opacity="1" fill-rule="nonzero"/></g><g clip-path="url(#629cba9b77)"><path fill="#d9d9d9" d="M 131.195312 61.523438 C 131.175781 61.523438 131.15625 61.523438 131.136719 61.519531 C 130.414062 61.488281 129.859375 60.878906 129.890625 60.15625 C 129.90625 59.808594 129.90625 59.460938 129.890625 59.113281 C 129.859375 58.394531 130.414062 57.78125 131.136719 57.75 C 131.851562 57.703125 132.46875 58.273438 132.5 58.992188 C 132.519531 59.421875 132.519531 59.847656 132.5 60.277344 C 132.46875 60.976562 131.890625 61.523438 131.195312 61.523438 Z M 131.195312 61.523438 " fill-opacity="1" fill-rule="nonzero"/></g><g clip-path="url(#ddb413ca10)"><path fill="#d9d9d9" d="M 18.988281 61.523438 C 18.296875 61.523438 17.71875 60.980469 17.683594 60.28125 C 17.664062 59.851562 17.664062 59.417969 17.683594 58.988281 C 17.71875 58.269531 18.324219 57.703125 19.050781 57.75 C 19.773438 57.785156 20.328125 58.398438 20.292969 59.117188 C 20.273438 59.460938 20.273438 59.808594 20.292969 60.152344 C 20.328125 60.871094 19.773438 61.484375 19.050781 61.519531 C 19.03125 61.523438 19.007812 61.523438 18.988281 61.523438 Z M 18.988281 61.523438 " fill-opacity="1" fill-rule="nonzero"/></g><path fill="#33bbcf" d="M 81.390625 10.550781 C 81.335938 10.550781 81.28125 10.546875 81.226562 10.542969 C 77.15625 10.03125 73.027344 10.03125 68.957031 10.542969 C 68.226562 10.625 67.589844 10.125 67.5 9.410156 C 67.410156 8.695312 67.917969 8.042969 68.632812 7.949219 C 72.917969 7.410156 77.265625 7.410156 81.550781 7.949219 C 82.269531 8.042969 82.773438 8.695312 82.683594 9.410156 C 82.601562 10.070312 82.039062 10.550781 81.390625 10.550781 Z M 81.390625 10.550781 " fill-opacity="1" fill-rule="nonzero"/><path fill="#33bbcf" d="M 75.09375 111.703125 C 72.929688 111.703125 70.761719 111.570312 68.613281 111.300781 C 67.898438 111.210938 67.390625 110.558594 67.480469 109.84375 C 67.570312 109.125 68.21875 108.621094 68.9375 108.707031 C 73.019531 109.222656 77.164062 109.222656 81.246094 108.707031 C 81.96875 108.621094 82.613281 109.125 82.703125 109.84375 C 82.792969 110.558594 82.285156 111.210938 81.570312 111.300781 C 79.421875 111.570312 77.257812 111.703125 75.09375 111.703125 Z M 75.09375 111.703125 " fill-opacity="1" fill-rule="nonzero"/><path fill="#33bbcf" d="M 125.472656 67.246094 C 125.417969 67.246094 125.363281 67.242188 125.308594 67.238281 C 124.589844 67.144531 124.082031 66.492188 124.175781 65.777344 C 124.683594 61.742188 124.683594 57.605469 124.175781 53.488281 C 124.085938 52.773438 124.59375 52.121094 125.3125 52.03125 C 126.011719 51.925781 126.679688 52.453125 126.765625 53.167969 C 127.300781 57.5 127.300781 61.851562 126.765625 66.105469 C 126.683594 66.765625 126.121094 67.246094 125.472656 67.246094 Z M 125.472656 67.246094 " fill-opacity="1" fill-rule="nonzero"/><path fill="#33bbcf" d="M 24.710938 67.246094 C 24.0625 67.246094 23.5 66.765625 23.417969 66.105469 C 22.882812 61.859375 22.882812 57.503906 23.417969 53.167969 C 23.503906 52.453125 24.148438 51.925781 24.871094 52.03125 C 25.585938 52.121094 26.097656 52.773438 26.007812 53.488281 C 25.5 57.609375 25.5 61.746094 26.007812 65.777344 C 26.097656 66.492188 25.589844 67.144531 24.875 67.238281 C 24.820312 67.242188 24.765625 67.246094 24.710938 67.246094 Z M 24.710938 67.246094 " fill-opacity="1" fill-rule="nonzero"/><path fill="#33bbcf" d="M 88.304688 17.46875 C 88.179688 17.46875 88.050781 17.449219 87.925781 17.410156 C 79.53125 14.871094 70.652344 14.871094 62.257812 17.410156 C 61.5625 17.621094 60.835938 17.230469 60.628906 16.542969 C 60.417969 15.851562 60.808594 15.121094 61.5 14.914062 C 70.394531 12.222656 79.789062 12.222656 88.683594 14.914062 C 89.375 15.121094 89.761719 15.851562 89.554688 16.542969 C 89.382812 17.105469 88.867188 17.46875 88.304688 17.46875 Z M 88.304688 17.46875 " fill-opacity="1" fill-rule="nonzero"/><path fill="#33bbcf" d="M 75.09375 106.363281 C 70.511719 106.363281 65.933594 105.6875 61.480469 104.339844 C 60.792969 104.128906 60.402344 103.398438 60.609375 102.710938 C 60.820312 102.019531 61.546875 101.632812 62.238281 101.839844 C 70.644531 104.390625 79.535156 104.390625 87.945312 101.839844 C 88.636719 101.628906 89.363281 102.019531 89.574219 102.710938 C 89.78125 103.398438 89.390625 104.128906 88.703125 104.339844 C 84.25 105.6875 79.671875 106.363281 75.09375 106.363281 Z M 75.09375 106.363281 " fill-opacity="1" fill-rule="nonzero"/><path fill="#33bbcf" d="M 118.554688 74.164062 C 118.429688 74.164062 118.300781 74.144531 118.175781 74.109375 C 117.484375 73.898438 117.09375 73.167969 117.304688 72.476562 C 119.855469 64.085938 119.855469 55.203125 117.304688 46.789062 C 117.09375 46.101562 117.484375 45.371094 118.175781 45.164062 C 118.871094 44.953125 119.59375 45.34375 119.804688 46.035156 C 122.507812 54.941406 122.507812 64.347656 119.804688 73.238281 C 119.632812 73.800781 119.113281 74.164062 118.554688 74.164062 Z M 118.554688 74.164062 " fill-opacity="1" fill-rule="nonzero"/><path fill="#33bbcf" d="M 31.628906 74.164062 C 31.070312 74.164062 30.550781 73.800781 30.378906 73.238281 C 27.675781 64.347656 27.675781 54.941406 30.378906 46.035156 C 30.589844 45.34375 31.316406 44.953125 32.007812 45.164062 C 32.699219 45.371094 33.089844 46.101562 32.878906 46.789062 C 30.328125 55.203125 30.328125 64.085938 32.878906 72.476562 C 33.089844 73.167969 32.699219 73.898438 32.007812 74.109375 C 31.882812 74.144531 31.753906 74.164062 31.628906 74.164062 Z M 31.628906 74.164062 " fill-opacity="1" fill-rule="nonzero"/><path fill="#33bbcf" d="M 75.09375 100.996094 C 64.492188 100.996094 53.894531 96.964844 45.828125 88.894531 C 29.691406 72.757812 29.691406 46.503906 45.828125 30.367188 C 61.964844 14.230469 88.21875 14.230469 104.355469 30.367188 C 120.492188 46.503906 120.492188 72.757812 104.355469 88.894531 C 96.289062 96.964844 85.691406 100.996094 75.09375 100.996094 Z M 75.09375 20.875 C 65.164062 20.875 55.234375 24.65625 47.675781 32.214844 C 32.558594 47.332031 32.558594 71.929688 47.675781 87.046875 C 62.792969 102.164062 87.390625 102.164062 102.507812 87.046875 C 117.628906 71.929688 117.628906 47.332031 102.507812 32.214844 C 94.949219 24.65625 85.019531 20.875 75.09375 20.875 Z M 75.09375 20.875 " fill-opacity="1" fill-rule="nonzero"/><path fill="#33bbcf" d="M 75.09375 95.65625 C 65.863281 95.65625 56.632812 92.140625 49.609375 85.117188 C 35.554688 71.0625 35.554688 48.199219 49.609375 34.148438 C 63.660156 20.09375 86.523438 20.09375 100.578125 34.148438 C 114.628906 48.199219 114.628906 71.0625 100.578125 85.117188 C 93.550781 92.140625 84.320312 95.65625 75.09375 95.65625 Z M 75.09375 26.21875 C 66.53125 26.21875 57.972656 29.476562 51.453125 35.992188 C 38.421875 49.027344 38.421875 70.234375 51.453125 83.269531 C 64.488281 96.300781 85.695312 96.300781 98.730469 83.269531 C 111.765625 70.234375 111.765625 49.027344 98.730469 35.992188 C 92.214844 29.476562 83.652344 26.21875 75.09375 26.21875 Z M 75.09375 26.21875 " fill-opacity="1" fill-rule="nonzero"/><path fill="#33bbcf" d="M 75.09375 90.324219 C 66.894531 90.324219 59.183594 87.132812 53.386719 81.335938 C 47.589844 75.539062 44.398438 67.828125 44.398438 59.632812 C 44.398438 51.433594 47.589844 43.722656 53.386719 37.925781 C 59.183594 32.128906 66.894531 28.9375 75.09375 28.9375 C 83.289062 28.9375 91 32.128906 96.796875 37.925781 C 102.59375 43.722656 105.785156 51.433594 105.785156 59.632812 C 105.785156 67.828125 102.59375 75.539062 96.796875 81.335938 C 91 87.132812 83.289062 90.324219 75.09375 90.324219 Z M 75.09375 31.5625 C 67.902344 31.5625 60.707031 34.296875 55.234375 39.773438 C 44.285156 50.722656 44.285156 68.539062 55.234375 79.488281 C 66.183594 90.4375 84 90.4375 94.949219 79.488281 C 105.898438 68.539062 105.898438 50.722656 94.949219 39.773438 C 89.476562 34.296875 82.28125 31.5625 75.09375 31.5625 Z M 75.09375 31.5625 " fill-opacity="1" fill-rule="nonzero"/><path fill="#33bbcf" d="M 75.09375 84.96875 C 68.601562 84.96875 62.109375 82.496094 57.167969 77.554688 C 47.28125 67.671875 47.28125 51.589844 57.167969 41.707031 C 67.050781 31.824219 83.132812 31.824219 93.015625 41.707031 C 102.902344 51.589844 102.902344 67.671875 93.015625 77.554688 C 88.074219 82.496094 81.582031 84.96875 75.09375 84.96875 Z M 75.09375 36.902344 C 69.269531 36.902344 63.445312 39.121094 59.015625 43.554688 C 50.148438 52.417969 50.148438 66.84375 59.015625 75.710938 C 67.878906 84.574219 82.304688 84.574219 91.171875 75.710938 C 100.035156 66.84375 100.035156 52.417969 91.171875 43.554688 C 86.738281 39.121094 80.914062 36.902344 75.09375 36.902344 Z M 75.09375 36.902344 " fill-opacity="1" fill-rule="nonzero"/><path fill="#33bbcf" d="M 75.09375 79.625 C 69.96875 79.625 64.847656 77.675781 60.945312 73.777344 C 53.148438 65.976562 53.148438 53.285156 60.945312 45.484375 C 68.746094 37.6875 81.4375 37.6875 89.238281 45.484375 C 97.035156 53.285156 97.035156 65.976562 89.238281 73.777344 C 85.335938 77.675781 80.214844 79.625 75.09375 79.625 Z M 75.09375 42.246094 C 70.636719 42.246094 66.183594 43.941406 62.792969 47.332031 C 56.011719 54.113281 56.011719 65.148438 62.792969 71.929688 C 69.574219 78.710938 80.609375 78.710938 87.390625 71.929688 C 94.171875 65.148438 94.171875 54.113281 87.390625 47.332031 C 84 43.941406 79.546875 42.246094 75.09375 42.246094 Z M 75.09375 42.246094 " fill-opacity="1" fill-rule="nonzero"/><path fill="#33bbcf" d="M 75.09375 74.28125 C 71.335938 74.28125 67.585938 72.855469 64.726562 69.996094 C 59.011719 64.28125 59.011719 54.980469 64.726562 49.265625 C 70.441406 43.550781 79.742188 43.550781 85.457031 49.265625 C 91.171875 54.980469 91.171875 64.28125 85.457031 69.996094 C 82.597656 72.855469 78.847656 74.28125 75.09375 74.28125 Z M 75.09375 47.589844 C 72.007812 47.589844 68.921875 48.761719 66.574219 51.113281 C 61.875 55.808594 61.875 63.453125 66.574219 68.148438 C 71.269531 72.847656 78.914062 72.847656 83.609375 68.148438 C 88.308594 63.453125 88.308594 55.808594 83.609375 51.113281 C 81.261719 48.761719 78.175781 47.589844 75.09375 47.589844 Z M 75.09375 47.589844 " fill-opacity="1" fill-rule="nonzero"/><path fill="#d9d9d9" d="M 75.09375 68.941406 C 72.707031 68.941406 70.324219 68.03125 68.507812 66.214844 C 64.875 62.585938 64.875 56.675781 68.507812 53.046875 C 72.136719 49.414062 78.046875 49.414062 81.675781 53.046875 C 85.308594 56.675781 85.308594 62.585938 81.675781 66.214844 C 79.863281 68.03125 77.476562 68.941406 75.09375 68.941406 Z M 75.09375 52.933594 C 73.375 52.933594 71.660156 53.585938 70.351562 54.890625 C 67.742188 57.503906 67.742188 61.757812 70.351562 64.371094 C 72.96875 66.980469 77.214844 66.980469 79.832031 64.371094 C 82.445312 61.757812 82.445312 57.503906 79.832031 54.890625 C 78.523438 53.585938 76.808594 52.933594 75.09375 52.933594 Z M 75.09375 52.933594 " fill-opacity="1" fill-rule="nonzero"/><g fill="#d9d9d9" fill-opacity="1"><g transform="translate(26.363123, 143.60865)"><g><path d="M 1.6875 -12.515625 L 4 -12.515625 L 4 -1.96875 L 10.546875 -1.96875 L 10.546875 0 L 1.6875 0 Z M 1.6875 -12.515625 "/></g></g></g><g fill="#d9d9d9" fill-opacity="1"><g transform="translate(40.642292, 143.60865)"><g><path d="M 1.6875 -12.515625 L 4 -12.515625 L 4 0 L 1.6875 0 Z M 1.6875 -12.515625 "/></g></g></g><g fill="#d9d9d9" fill-opacity="1"><g transform="translate(49.917805, 143.60865)"><g><path d="M 12.796875 -12.515625 L 12.796875 0 L 10.890625 0 L 3.984375 -8.46875 L 3.984375 0 L 1.6875 0 L 1.6875 -12.515625 L 3.59375 -12.515625 L 10.5 -4.046875 L 10.5 -12.515625 Z M 12.796875 -12.515625 "/></g></g></g><g fill="#d9d9d9" fill-opacity="1"><g transform="translate(67.967587, 143.60865)"><g><path d="M 5.984375 -5.234375 L 4 -3.203125 L 4 0 L 1.6875 0 L 1.6875 -12.515625 L 4 -12.515625 L 4 -6.09375 L 10.1875 -12.515625 L 12.796875 -12.515625 L 7.546875 -6.921875 L 13.125 0 L 10.40625 0 Z M 5.984375 -5.234375 "/></g></g></g><g fill="#33bbcf" fill-opacity="1"><g transform="translate(84.559444, 143.60865)"><g><path d="M 7.53125 0.171875 C 6.25 0.171875 5.09375 -0.101562 4.0625 -0.65625 C 3.039062 -1.207031 2.238281 -1.972656 1.65625 -2.953125 C 1.070312 -3.941406 0.78125 -5.039062 0.78125 -6.25 C 0.78125 -7.46875 1.070312 -8.566406 1.65625 -9.546875 C 2.238281 -10.535156 3.039062 -11.304688 4.0625 -11.859375 C 5.09375 -12.410156 6.25 -12.6875 7.53125 -12.6875 C 8.800781 -12.6875 9.945312 -12.410156 10.96875 -11.859375 C 12 -11.304688 12.804688 -10.539062 13.390625 -9.5625 C 13.972656 -8.582031 14.265625 -7.476562 14.265625 -6.25 C 14.265625 -5.03125 13.972656 -3.929688 13.390625 -2.953125 C 12.804688 -1.972656 12 -1.207031 10.96875 -0.65625 C 9.945312 -0.101562 8.800781 0.171875 7.53125 0.171875 Z M 7.53125 -1.859375 C 8.363281 -1.859375 9.113281 -2.046875 9.78125 -2.421875 C 10.445312 -2.796875 10.96875 -3.316406 11.34375 -3.984375 C 11.726562 -4.660156 11.921875 -5.414062 11.921875 -6.25 C 11.921875 -7.082031 11.726562 -7.835938 11.34375 -8.515625 C 10.96875 -9.191406 10.445312 -9.71875 9.78125 -10.09375 C 9.113281 -10.46875 8.363281 -10.65625 7.53125 -10.65625 C 6.695312 -10.65625 5.941406 -10.46875 5.265625 -10.09375 C 4.597656 -9.71875 4.070312 -9.191406 3.6875 -8.515625 C 3.3125 -7.835938 3.125 -7.082031 3.125 -6.25 C 3.125 -5.414062 3.3125 -4.660156 3.6875 -3.984375 C 4.070312 -3.316406 4.597656 -2.796875 5.265625 -2.421875 C 5.941406 -2.046875 6.695312 -1.859375 7.53125 -1.859375 Z M 7.53125 -1.859375 "/></g></g></g><g fill="#d9d9d9" fill-opacity="1"><g transform="translate(103.177282, 143.60865)"><g><path d="M 19.96875 -12.515625 L 15.8125 0 L 13.359375 0 L 10.265625 -9.265625 L 7.109375 0 L 4.625 0 L 0.484375 -12.515625 L 2.890625 -12.515625 L 6 -3 L 9.234375 -12.515625 L 11.390625 -12.515625 L 14.546875 -2.953125 L 17.75 -12.515625 Z M 19.96875 -12.515625 "/></g></g></g></svg>