<svg xmlns="http://www.w3.org/2000/svg" xmlns:xlink="http://www.w3.org/1999/xlink" width="500" zoomAndPan="magnify" viewBox="0 0 375 149.999998" height="200" preserveAspectRatio="xMidYMid meet" version="1.0"><defs><g/><clipPath id="5af6aa8dd9"><path d="M 59 18.09375 L 63 18.09375 L 63 21 L 59 21 Z M 59 18.09375 " clip-rule="nonzero"/></clipPath><clipPath id="59ac16ef98"><path d="M 59 129 L 63 129 L 63 132.09375 L 59 132.09375 Z M 59 129 " clip-rule="nonzero"/></clipPath><clipPath id="9d45cc1fec"><path d="M 115 73 L 117.960938 73 L 117.960938 77 L 115 77 Z M 115 73 " clip-rule="nonzero"/></clipPath><clipPath id="884ff25f7c"><path d="M 3.960938 73 L 7 73 L 7 77 L 3.960938 77 Z M 3.960938 73 " clip-rule="nonzero"/></clipPath></defs><g clip-path="url(#5af6aa8dd9)"><path fill="#d9d9d9" d="M 61.539062 20.699219 C 61.515625 20.699219 61.496094 20.699219 61.472656 20.695312 C 61.128906 20.679688 60.789062 20.679688 60.445312 20.695312 C 59.738281 20.722656 59.121094 20.179688 59.085938 19.464844 C 59.050781 18.75 59.605469 18.144531 60.320312 18.105469 C 60.746094 18.085938 61.175781 18.085938 61.601562 18.105469 C 62.316406 18.144531 62.867188 18.75 62.832031 19.464844 C 62.796875 20.160156 62.222656 20.699219 61.539062 20.699219 Z M 61.539062 20.699219 " fill-opacity="1" fill-rule="nonzero"/></g><g clip-path="url(#59ac16ef98)"><path fill="#d9d9d9" d="M 60.960938 132.09375 C 60.746094 132.09375 60.535156 132.085938 60.324219 132.078125 C 59.609375 132.042969 59.054688 131.4375 59.085938 130.722656 C 59.121094 130.007812 59.730469 129.445312 60.441406 129.488281 C 60.785156 129.503906 61.132812 129.503906 61.476562 129.488281 C 62.183594 129.441406 62.800781 130.007812 62.832031 130.722656 C 62.863281 131.4375 62.3125 132.042969 61.597656 132.078125 C 61.382812 132.085938 61.171875 132.09375 60.960938 132.09375 Z M 60.960938 132.09375 " fill-opacity="1" fill-rule="nonzero"/></g><g clip-path="url(#9d45cc1fec)"><path fill="#d9d9d9" d="M 116.652344 76.964844 C 116.628906 76.964844 116.609375 76.964844 116.589844 76.964844 C 115.875 76.929688 115.320312 76.324219 115.355469 75.609375 C 115.371094 75.265625 115.371094 74.917969 115.355469 74.574219 C 115.320312 73.859375 115.875 73.253906 116.589844 73.21875 C 117.300781 73.175781 117.910156 73.738281 117.945312 74.457031 C 117.964844 74.878906 117.964844 75.304688 117.945312 75.730469 C 117.914062 76.421875 117.339844 76.964844 116.652344 76.964844 Z M 116.652344 76.964844 " fill-opacity="1" fill-rule="nonzero"/></g><g clip-path="url(#884ff25f7c)"><path fill="#d9d9d9" d="M 5.269531 76.964844 C 4.582031 76.964844 4.007812 76.425781 3.976562 75.734375 C 3.953125 75.304688 3.953125 74.878906 3.976562 74.453125 C 4.011719 73.738281 4.613281 73.171875 5.332031 73.21875 C 6.046875 73.253906 6.601562 73.863281 6.566406 74.578125 C 6.546875 74.921875 6.546875 75.261719 6.566406 75.605469 C 6.601562 76.320312 6.046875 76.929688 5.332031 76.964844 C 5.3125 76.964844 5.289062 76.964844 5.269531 76.964844 Z M 5.269531 76.964844 " fill-opacity="1" fill-rule="nonzero"/></g><path fill="#33bbcf" d="M 67.210938 26.371094 C 67.160156 26.371094 67.105469 26.367188 67.046875 26.363281 C 63.007812 25.851562 58.910156 25.851562 54.871094 26.363281 C 54.144531 26.445312 53.511719 25.949219 53.421875 25.238281 C 53.332031 24.527344 53.835938 23.878906 54.546875 23.789062 C 58.804688 23.253906 63.117188 23.253906 67.371094 23.789062 C 68.082031 23.878906 68.585938 24.527344 68.496094 25.238281 C 68.414062 25.894531 67.855469 26.371094 67.210938 26.371094 Z M 67.210938 26.371094 " fill-opacity="1" fill-rule="nonzero"/><path fill="#33bbcf" d="M 60.960938 126.777344 C 58.8125 126.777344 56.664062 126.644531 54.53125 126.375 C 53.816406 126.285156 53.316406 125.640625 53.402344 124.929688 C 53.492188 124.21875 54.136719 123.714844 54.851562 123.804688 C 58.902344 124.3125 63.015625 124.3125 67.070312 123.804688 C 67.785156 123.714844 68.425781 124.21875 68.515625 124.929688 C 68.605469 125.640625 68.101562 126.285156 67.390625 126.375 C 65.257812 126.644531 63.109375 126.777344 60.960938 126.777344 Z M 60.960938 126.777344 " fill-opacity="1" fill-rule="nonzero"/><path fill="#33bbcf" d="M 110.96875 82.648438 C 110.914062 82.648438 110.859375 82.644531 110.804688 82.636719 C 110.09375 82.546875 109.589844 81.898438 109.679688 81.191406 C 110.183594 77.183594 110.183594 73.078125 109.679688 68.988281 C 109.589844 68.28125 110.097656 67.632812 110.808594 67.546875 C 111.503906 67.441406 112.164062 67.960938 112.253906 68.671875 C 112.785156 72.972656 112.785156 77.292969 112.253906 81.511719 C 112.171875 82.167969 111.613281 82.648438 110.96875 82.648438 Z M 110.96875 82.648438 " fill-opacity="1" fill-rule="nonzero"/><path fill="#33bbcf" d="M 10.949219 82.648438 C 10.304688 82.648438 9.75 82.167969 9.667969 81.511719 C 9.136719 77.296875 9.136719 72.976562 9.667969 68.671875 C 9.753906 67.964844 10.394531 67.441406 11.109375 67.546875 C 11.820312 67.632812 12.324219 68.28125 12.238281 68.988281 C 11.734375 73.082031 11.734375 77.1875 12.238281 81.191406 C 12.328125 81.898438 11.824219 82.546875 11.113281 82.636719 C 11.058594 82.644531 11.003906 82.648438 10.949219 82.648438 Z M 10.949219 82.648438 " fill-opacity="1" fill-rule="nonzero"/><path fill="#33bbcf" d="M 74.074219 33.234375 C 73.949219 33.234375 73.824219 33.21875 73.699219 33.179688 C 65.367188 30.660156 56.554688 30.660156 48.21875 33.179688 C 47.53125 33.386719 46.808594 33 46.601562 32.316406 C 46.394531 31.628906 46.78125 30.90625 47.46875 30.699219 C 56.296875 28.027344 65.625 28.027344 74.449219 30.699219 C 75.136719 30.90625 75.523438 31.628906 75.316406 32.316406 C 75.144531 32.875 74.632812 33.234375 74.074219 33.234375 Z M 74.074219 33.234375 " fill-opacity="1" fill-rule="nonzero"/><path fill="#33bbcf" d="M 60.960938 121.476562 C 56.414062 121.476562 51.867188 120.804688 47.449219 119.464844 C 46.765625 119.257812 46.378906 118.535156 46.585938 117.847656 C 46.792969 117.164062 47.515625 116.777344 48.203125 116.984375 C 56.546875 119.515625 65.367188 119.515625 73.71875 116.984375 C 74.402344 116.777344 75.125 117.164062 75.335938 117.847656 C 75.542969 118.535156 75.15625 119.257812 74.46875 119.464844 C 70.050781 120.804688 65.503906 121.476562 60.960938 121.476562 Z M 60.960938 121.476562 " fill-opacity="1" fill-rule="nonzero"/><path fill="#33bbcf" d="M 104.101562 89.511719 C 103.976562 89.511719 103.851562 89.496094 103.722656 89.457031 C 103.039062 89.25 102.652344 88.523438 102.859375 87.839844 C 105.394531 79.511719 105.394531 70.691406 102.859375 62.34375 C 102.652344 61.65625 103.039062 60.933594 103.726562 60.726562 C 104.414062 60.515625 105.132812 60.90625 105.34375 61.589844 C 108.023438 70.433594 108.023438 79.769531 105.34375 88.59375 C 105.171875 89.152344 104.65625 89.511719 104.101562 89.511719 Z M 104.101562 89.511719 " fill-opacity="1" fill-rule="nonzero"/><path fill="#33bbcf" d="M 17.816406 89.511719 C 17.261719 89.511719 16.75 89.152344 16.578125 88.59375 C 13.894531 79.769531 13.894531 70.433594 16.578125 61.589844 C 16.785156 60.90625 17.507812 60.519531 18.195312 60.726562 C 18.878906 60.933594 19.265625 61.65625 19.058594 62.34375 C 16.523438 70.691406 16.523438 79.511719 19.058594 87.839844 C 19.265625 88.523438 18.878906 89.25 18.195312 89.457031 C 18.070312 89.496094 17.941406 89.511719 17.816406 89.511719 Z M 17.816406 89.511719 " fill-opacity="1" fill-rule="nonzero"/><path fill="#33bbcf" d="M 60.960938 116.148438 C 50.441406 116.148438 39.921875 112.144531 31.910156 104.136719 C 15.894531 88.117188 15.894531 62.058594 31.910156 46.039062 C 47.929688 30.023438 73.988281 30.023438 90.007812 46.039062 C 106.027344 62.058594 106.027344 88.117188 90.007812 104.136719 C 82 112.144531 71.480469 116.148438 60.960938 116.148438 Z M 60.960938 36.617188 C 51.105469 36.617188 41.25 40.371094 33.746094 47.871094 C 18.738281 62.878906 18.738281 87.296875 33.746094 102.304688 C 48.753906 117.308594 73.167969 117.308594 88.175781 102.304688 C 103.179688 87.296875 103.179688 62.878906 88.175781 47.875 C 80.671875 40.371094 70.816406 36.617188 60.960938 36.617188 Z M 60.960938 36.617188 " fill-opacity="1" fill-rule="nonzero"/><path fill="#33bbcf" d="M 60.960938 110.847656 C 51.800781 110.847656 42.636719 107.359375 35.664062 100.382812 C 21.714844 86.4375 21.714844 63.738281 35.664062 49.792969 C 49.613281 35.84375 72.308594 35.84375 86.257812 49.792969 C 100.203125 63.738281 100.203125 86.4375 86.257812 100.382812 C 79.28125 107.359375 70.121094 110.847656 60.960938 110.847656 Z M 60.960938 41.921875 C 52.460938 41.921875 43.964844 45.15625 37.496094 51.625 C 24.558594 64.5625 24.558594 85.613281 37.496094 98.550781 C 50.433594 111.488281 71.488281 111.488281 84.421875 98.550781 C 97.359375 85.613281 97.359375 64.5625 84.421875 51.625 C 77.953125 45.15625 69.457031 41.921875 60.960938 41.921875 Z M 60.960938 41.921875 " fill-opacity="1" fill-rule="nonzero"/><path fill="#33bbcf" d="M 60.960938 105.554688 C 52.820312 105.554688 45.171875 102.386719 39.414062 96.632812 C 33.660156 90.878906 30.492188 83.226562 30.492188 75.089844 C 30.492188 66.949219 33.660156 59.296875 39.414062 53.542969 C 45.171875 47.789062 52.820312 44.621094 60.960938 44.621094 C 69.097656 44.621094 76.75 47.789062 82.503906 53.542969 C 88.257812 59.296875 91.429688 66.949219 91.429688 75.089844 C 91.429688 83.226562 88.257812 90.878906 82.503906 96.632812 C 76.75 102.386719 69.097656 105.554688 60.960938 105.554688 Z M 60.960938 47.226562 C 53.820312 47.226562 46.683594 49.941406 41.25 55.375 C 30.378906 66.246094 30.378906 83.929688 41.25 94.800781 C 52.117188 105.667969 69.804688 105.667969 80.671875 94.800781 C 91.539062 83.929688 91.539062 66.246094 80.671875 55.375 C 75.238281 49.941406 68.097656 47.226562 60.960938 47.226562 Z M 60.960938 47.226562 " fill-opacity="1" fill-rule="nonzero"/><path fill="#33bbcf" d="M 60.960938 100.238281 C 54.515625 100.238281 48.074219 97.785156 43.167969 92.878906 C 33.355469 83.070312 33.355469 67.105469 43.167969 57.296875 C 52.976562 47.484375 68.941406 47.484375 78.753906 57.296875 C 88.5625 67.105469 88.5625 83.070312 78.753906 92.878906 C 73.847656 97.785156 67.402344 100.238281 60.960938 100.238281 Z M 60.960938 52.527344 C 55.179688 52.527344 49.398438 54.730469 45 59.128906 C 36.199219 67.929688 36.199219 82.246094 45 91.046875 C 53.800781 99.847656 68.121094 99.847656 76.917969 91.046875 C 85.71875 82.246094 85.71875 67.929688 76.917969 59.128906 C 72.519531 54.730469 66.738281 52.527344 60.960938 52.527344 Z M 60.960938 52.527344 " fill-opacity="1" fill-rule="nonzero"/><path fill="#33bbcf" d="M 60.960938 94.933594 C 55.875 94.933594 50.789062 93 46.917969 89.128906 C 39.175781 81.386719 39.175781 68.789062 46.917969 61.046875 C 54.660156 53.304688 67.257812 53.304688 75 61.046875 C 82.742188 68.789062 82.742188 81.386719 75 89.128906 C 71.128906 93 66.042969 94.933594 60.960938 94.933594 Z M 60.960938 57.832031 C 56.539062 57.832031 52.117188 59.515625 48.753906 62.878906 C 42.019531 69.613281 42.019531 80.5625 48.753906 87.296875 C 55.484375 94.027344 66.4375 94.027344 73.167969 87.296875 C 79.898438 80.5625 79.898438 69.613281 73.167969 62.878906 C 69.800781 59.515625 65.382812 57.832031 60.960938 57.832031 Z M 60.960938 57.832031 " fill-opacity="1" fill-rule="nonzero"/><path fill="#33bbcf" d="M 60.960938 89.632812 C 57.234375 89.632812 53.507812 88.214844 50.671875 85.375 C 44.996094 79.703125 44.996094 70.472656 50.671875 64.800781 C 56.34375 59.125 65.574219 59.125 71.25 64.800781 C 76.921875 70.472656 76.921875 79.703125 71.25 85.375 C 68.410156 88.214844 64.6875 89.632812 60.960938 89.632812 Z M 60.960938 63.136719 C 57.898438 63.136719 54.835938 64.300781 52.503906 66.632812 C 47.84375 71.292969 47.84375 78.882812 52.503906 83.542969 C 57.167969 88.207031 64.753906 88.207031 69.414062 83.542969 C 74.078125 78.882812 74.078125 71.292969 69.414062 66.632812 C 67.082031 64.300781 64.023438 63.136719 60.960938 63.136719 Z M 60.960938 63.136719 " fill-opacity="1" fill-rule="nonzero"/><path fill="#d9d9d9" d="M 60.960938 84.328125 C 58.59375 84.328125 56.226562 83.425781 54.421875 81.625 C 50.816406 78.019531 50.816406 72.15625 54.421875 68.550781 C 58.027344 64.945312 63.890625 64.945312 67.496094 68.550781 C 71.101562 72.15625 71.101562 78.019531 67.496094 81.625 C 65.695312 83.425781 63.328125 84.328125 60.960938 84.328125 Z M 60.960938 68.4375 C 59.257812 68.4375 57.554688 69.089844 56.257812 70.382812 C 53.664062 72.976562 53.664062 77.199219 56.257812 79.792969 C 58.851562 82.382812 63.070312 82.382812 65.664062 79.792969 C 68.257812 77.199219 68.257812 72.976562 65.664062 70.382812 C 64.367188 69.089844 62.664062 68.4375 60.960938 68.4375 Z M 60.960938 68.4375 " fill-opacity="1" fill-rule="nonzero"/><g fill="#d9d9d9" fill-opacity="1"><g transform="translate(116.549593, 96.374996)"><g><path d="M 5.75 -42.78125 L 13.6875 -42.78125 L 13.6875 -6.71875 L 36.046875 -6.71875 L 36.046875 0 L 5.75 0 Z M 5.75 -42.78125 "/></g></g></g><g fill="#d9d9d9" fill-opacity="1"><g transform="translate(150.032852, 96.374996)"><g><path d="M 5.75 -42.78125 L 13.6875 -42.78125 L 13.6875 0 L 5.75 0 Z M 5.75 -42.78125 "/></g></g></g><g fill="#d9d9d9" fill-opacity="1"><g transform="translate(166.407664, 96.374996)"><g><path d="M 43.75 -42.78125 L 43.75 0 L 37.21875 0 L 13.625 -28.96875 L 13.625 0 L 5.75 0 L 5.75 -42.78125 L 12.28125 -42.78125 L 35.875 -13.8125 L 35.875 -42.78125 Z M 43.75 -42.78125 "/></g></g></g><g fill="#d9d9d9" fill-opacity="1"><g transform="translate(212.783367, 96.374996)"><g><path d="M 20.46875 -17.90625 L 13.6875 -10.9375 L 13.6875 0 L 5.75 0 L 5.75 -42.78125 L 13.6875 -42.78125 L 13.6875 -20.84375 L 34.828125 -42.78125 L 43.75 -42.78125 L 25.78125 -23.65625 L 44.859375 0 L 35.5625 0 Z M 20.46875 -17.90625 "/></g></g></g><g fill="#33bbcf" fill-opacity="1"><g transform="translate(254.209745, 96.374996)"><g><path d="M 25.734375 0.609375 C 21.367188 0.609375 17.429688 -0.335938 13.921875 -2.234375 C 10.421875 -4.128906 7.671875 -6.753906 5.671875 -10.109375 C 3.679688 -13.472656 2.6875 -17.234375 2.6875 -21.390625 C 2.6875 -25.546875 3.679688 -29.300781 5.671875 -32.65625 C 7.671875 -36.019531 10.421875 -38.648438 13.921875 -40.546875 C 17.429688 -42.441406 21.367188 -43.390625 25.734375 -43.390625 C 30.085938 -43.390625 34.015625 -42.441406 37.515625 -40.546875 C 41.023438 -38.648438 43.773438 -36.03125 45.765625 -32.6875 C 47.765625 -29.351562 48.765625 -25.585938 48.765625 -21.390625 C 48.765625 -17.191406 47.765625 -13.421875 45.765625 -10.078125 C 43.773438 -6.742188 41.023438 -4.128906 37.515625 -2.234375 C 34.015625 -0.335938 30.085938 0.609375 25.734375 0.609375 Z M 25.734375 -6.359375 C 28.578125 -6.359375 31.140625 -7 33.421875 -8.28125 C 35.703125 -9.5625 37.492188 -11.351562 38.796875 -13.65625 C 40.109375 -15.957031 40.765625 -18.535156 40.765625 -21.390625 C 40.765625 -24.242188 40.109375 -26.820312 38.796875 -29.125 C 37.492188 -31.425781 35.703125 -33.21875 33.421875 -34.5 C 31.140625 -35.78125 28.578125 -36.421875 25.734375 -36.421875 C 22.878906 -36.421875 20.3125 -35.78125 18.03125 -34.5 C 15.75 -33.21875 13.953125 -31.425781 12.640625 -29.125 C 11.335938 -26.820312 10.6875 -24.242188 10.6875 -21.390625 C 10.6875 -18.535156 11.335938 -15.957031 12.640625 -13.65625 C 13.953125 -11.351562 15.75 -9.5625 18.03125 -8.28125 C 20.3125 -7 22.878906 -6.359375 25.734375 -6.359375 Z M 25.734375 -6.359375 "/></g></g></g><g fill="#d9d9d9" fill-opacity="1"><g transform="translate(302.537867, 96.374996)"><g><path d="M 68.265625 -42.78125 L 54.078125 0 L 45.65625 0 L 35.078125 -31.65625 L 24.328125 0 L 15.828125 0 L 1.65625 -42.78125 L 9.90625 -42.78125 L 20.53125 -10.265625 L 31.59375 -42.78125 L 38.921875 -42.78125 L 49.75 -10.078125 L 60.6875 -42.78125 Z M 68.265625 -42.78125 "/></g></g></g></svg>