<svg xmlns="http://www.w3.org/2000/svg" xmlns:xlink="http://www.w3.org/1999/xlink" width="500" zoomAndPan="magnify" viewBox="0 0 375 374.999991" height="500" preserveAspectRatio="xMidYMid meet" version="1.0"><defs><clipPath id="c0283df732"><path d="M 182 26.976562 L 193 26.976562 L 193 35 L 182 35 Z M 182 26.976562 " clip-rule="nonzero"/></clipPath><clipPath id="68398f2fb0"><path d="M 182 340 L 193 340 L 193 347.976562 L 182 347.976562 Z M 182 340 " clip-rule="nonzero"/></clipPath><clipPath id="11afcf986d"><path d="M 340 182 L 347.976562 182 L 347.976562 193 L 340 193 Z M 340 182 " clip-rule="nonzero"/></clipPath><clipPath id="e25c157e3e"><path d="M 26.976562 182 L 35 182 L 35 193 L 26.976562 193 Z M 26.976562 182 " clip-rule="nonzero"/></clipPath></defs><g clip-path="url(#c0283df732)"><path fill="#d9d9d9" d="M 189.109375 34.316406 C 189.046875 34.316406 188.984375 34.316406 188.925781 34.3125 C 187.957031 34.261719 187 34.261719 186.03125 34.3125 C 184.039062 34.386719 182.304688 32.859375 182.207031 30.84375 C 182.105469 28.835938 183.660156 27.121094 185.675781 27.019531 C 186.871094 26.960938 188.085938 26.960938 189.28125 27.019531 C 191.296875 27.121094 192.851562 28.835938 192.75 30.84375 C 192.652344 32.796875 191.039062 34.316406 189.109375 34.316406 Z M 189.109375 34.316406 " fill-opacity="1" fill-rule="nonzero"/></g><g clip-path="url(#68398f2fb0)"><path fill="#d9d9d9" d="M 187.480469 347.976562 C 186.878906 347.976562 186.285156 347.964844 185.6875 347.933594 C 183.671875 347.84375 182.113281 346.132812 182.207031 344.121094 C 182.300781 342.105469 184.019531 340.523438 186.019531 340.640625 C 186.992188 340.683594 187.96875 340.683594 188.9375 340.640625 C 190.929688 340.511719 192.65625 342.105469 192.75 344.121094 C 192.84375 346.132812 191.285156 347.84375 189.269531 347.933594 C 188.671875 347.964844 188.078125 347.976562 187.480469 347.976562 Z M 187.480469 347.976562 " fill-opacity="1" fill-rule="nonzero"/></g><g clip-path="url(#11afcf986d)"><path fill="#d9d9d9" d="M 344.292969 192.753906 C 344.234375 192.753906 344.179688 192.753906 344.121094 192.75 C 342.109375 192.65625 340.550781 190.949219 340.644531 188.933594 C 340.691406 187.960938 340.691406 186.992188 340.644531 186.019531 C 340.550781 184.003906 342.109375 182.296875 344.121094 182.207031 C 346.117188 182.078125 347.84375 183.671875 347.9375 185.683594 C 347.988281 186.878906 347.988281 188.074219 347.9375 189.269531 C 347.847656 191.226562 346.230469 192.753906 344.292969 192.753906 Z M 344.292969 192.753906 " fill-opacity="1" fill-rule="nonzero"/></g><g clip-path="url(#e25c157e3e)"><path fill="#d9d9d9" d="M 30.664062 192.753906 C 28.730469 192.753906 27.117188 191.234375 27.019531 189.28125 C 26.964844 188.078125 26.964844 186.875 27.019531 185.671875 C 27.121094 183.660156 28.8125 182.074219 30.847656 182.207031 C 32.859375 182.304688 34.414062 184.019531 34.3125 186.03125 C 34.265625 186.996094 34.265625 187.957031 34.3125 188.925781 C 34.414062 190.933594 32.859375 192.648438 30.847656 192.75 C 30.785156 192.753906 30.722656 192.753906 30.664062 192.753906 Z M 30.664062 192.753906 " fill-opacity="1" fill-rule="nonzero"/></g><path fill="#0d8fdb" d="M 205.082031 50.292969 C 204.933594 50.292969 204.78125 50.28125 204.621094 50.261719 C 193.246094 48.828125 181.710938 48.828125 170.335938 50.261719 C 168.285156 50.496094 166.507812 49.097656 166.257812 47.097656 C 166.003906 45.097656 167.421875 43.273438 169.421875 43.019531 C 181.40625 41.507812 193.550781 41.507812 205.535156 43.019531 C 207.535156 43.273438 208.953125 45.097656 208.699219 47.097656 C 208.46875 48.945312 206.898438 50.292969 205.082031 50.292969 Z M 205.082031 50.292969 " fill-opacity="1" fill-rule="nonzero"/><path fill="#0d8fdb" d="M 187.480469 333.011719 C 181.429688 333.011719 175.378906 332.632812 169.371094 331.882812 C 167.367188 331.632812 165.953125 329.804688 166.203125 327.808594 C 166.453125 325.808594 168.261719 324.390625 170.277344 324.636719 C 181.691406 326.070312 193.265625 326.070312 204.679688 324.636719 C 206.699219 324.390625 208.503906 325.808594 208.753906 327.808594 C 209.003906 329.804688 207.589844 331.632812 205.585938 331.882812 C 199.578125 332.632812 193.527344 333.011719 187.480469 333.011719 Z M 187.480469 333.011719 " fill-opacity="1" fill-rule="nonzero"/><path fill="#0d8fdb" d="M 328.289062 208.753906 C 328.140625 208.753906 327.984375 208.742188 327.828125 208.722656 C 325.832031 208.472656 324.410156 206.644531 324.664062 204.644531 C 326.085938 193.367188 326.082031 181.804688 324.664062 170.292969 C 324.414062 168.292969 325.835938 166.472656 327.839844 166.226562 C 329.800781 165.933594 331.660156 167.398438 331.90625 169.402344 C 333.40625 181.511719 333.40625 193.675781 331.90625 205.558594 C 331.675781 207.40625 330.105469 208.753906 328.289062 208.753906 Z M 328.289062 208.753906 " fill-opacity="1" fill-rule="nonzero"/><path fill="#0d8fdb" d="M 46.664062 208.753906 C 44.851562 208.753906 43.277344 207.40625 43.046875 205.558594 C 41.554688 193.691406 41.554688 181.523438 43.046875 169.402344 C 43.292969 167.402344 45.09375 165.929688 47.113281 166.226562 C 49.113281 166.472656 50.535156 168.292969 50.289062 170.292969 C 48.871094 181.820312 48.871094 193.378906 50.289062 204.644531 C 50.542969 206.644531 49.125 208.472656 47.125 208.722656 C 46.96875 208.742188 46.8125 208.753906 46.664062 208.753906 Z M 46.664062 208.753906 " fill-opacity="1" fill-rule="nonzero"/><path fill="#0d8fdb" d="M 224.410156 69.621094 C 224.058594 69.621094 223.703125 69.570312 223.351562 69.464844 C 199.890625 62.363281 175.070312 62.367188 151.605469 69.464844 C 149.667969 70.046875 147.636719 68.953125 147.050781 67.027344 C 146.46875 65.097656 147.558594 63.0625 149.488281 62.476562 C 174.34375 54.957031 200.609375 54.957031 225.46875 62.476562 C 227.394531 63.0625 228.484375 65.097656 227.902344 67.027344 C 227.421875 68.605469 225.976562 69.621094 224.410156 69.621094 Z M 224.410156 69.621094 " fill-opacity="1" fill-rule="nonzero"/><path fill="#0d8fdb" d="M 187.480469 318.082031 C 174.675781 318.082031 161.878906 316.199219 149.4375 312.421875 C 147.507812 311.839844 146.417969 309.800781 147.003906 307.871094 C 147.585938 305.945312 149.621094 304.855469 151.554688 305.4375 C 175.050781 312.566406 199.894531 312.566406 223.402344 305.4375 C 225.335938 304.851562 227.371094 305.945312 227.953125 307.871094 C 228.539062 309.800781 227.449219 311.839844 225.519531 312.421875 C 213.078125 316.199219 200.273438 318.082031 187.480469 318.082031 Z M 187.480469 318.082031 " fill-opacity="1" fill-rule="nonzero"/><path fill="#0d8fdb" d="M 308.957031 228.085938 C 308.609375 228.085938 308.246094 228.035156 307.894531 227.929688 C 305.964844 227.339844 304.878906 225.300781 305.464844 223.375 C 312.597656 199.917969 312.597656 175.089844 305.464844 151.578125 C 304.878906 149.648438 305.96875 147.609375 307.898438 147.027344 C 309.835938 146.4375 311.867188 147.535156 312.449219 149.460938 C 320.003906 174.355469 320.003906 200.652344 312.449219 225.496094 C 311.96875 227.074219 310.523438 228.085938 308.957031 228.085938 Z M 308.957031 228.085938 " fill-opacity="1" fill-rule="nonzero"/><path fill="#0d8fdb" d="M 66 228.085938 C 64.4375 228.085938 62.988281 227.074219 62.507812 225.496094 C 54.949219 200.652344 54.949219 174.355469 62.507812 149.460938 C 63.09375 147.535156 65.125 146.441406 67.058594 147.027344 C 68.992188 147.609375 70.078125 149.648438 69.492188 151.578125 C 62.359375 175.089844 62.359375 199.917969 69.492188 223.375 C 70.078125 225.300781 68.992188 227.339844 67.0625 227.929688 C 66.710938 228.035156 66.351562 228.085938 66 228.085938 Z M 66 228.085938 " fill-opacity="1" fill-rule="nonzero"/><path fill="#0d8fdb" d="M 187.480469 303.085938 C 157.855469 303.085938 128.238281 291.8125 105.683594 269.261719 C 60.582031 224.15625 60.582031 150.777344 105.683594 105.671875 C 150.789062 60.570312 224.167969 60.570312 269.273438 105.671875 C 314.375 150.777344 314.375 224.15625 269.273438 269.261719 C 246.722656 291.8125 217.101562 303.085938 187.480469 303.085938 Z M 187.480469 79.144531 C 159.726562 79.144531 131.976562 89.707031 110.847656 110.835938 C 68.589844 153.089844 68.589844 221.84375 110.847656 264.097656 C 153.105469 306.351562 221.851562 306.351562 264.109375 264.097656 C 306.367188 221.84375 306.367188 153.089844 264.109375 110.835938 C 242.980469 89.707031 215.230469 79.144531 187.480469 79.144531 Z M 187.480469 79.144531 " fill-opacity="1" fill-rule="nonzero"/><path fill="#0d8fdb" d="M 187.480469 288.152344 C 161.683594 288.152344 135.890625 278.335938 116.25 258.695312 C 76.976562 219.421875 76.976562 155.511719 116.25 116.238281 C 155.527344 76.960938 219.429688 76.960938 258.707031 116.238281 C 297.980469 155.511719 297.980469 219.421875 258.707031 258.695312 C 239.066406 278.335938 213.273438 288.152344 187.480469 288.152344 Z M 187.480469 94.078125 C 163.550781 94.078125 139.625 103.183594 121.410156 121.398438 C 84.980469 157.828125 84.980469 217.105469 121.410156 253.535156 C 157.839844 289.960938 217.121094 289.960938 253.546875 253.535156 C 289.976562 217.105469 289.976562 157.828125 253.546875 121.398438 C 235.332031 103.183594 211.40625 94.078125 187.480469 94.078125 Z M 187.480469 94.078125 " fill-opacity="1" fill-rule="nonzero"/><path fill="#0d8fdb" d="M 187.480469 273.257812 C 164.5625 273.257812 143.019531 264.335938 126.8125 248.128906 C 110.609375 231.925781 101.6875 210.382812 101.6875 187.464844 C 101.6875 164.550781 110.609375 143.003906 126.8125 126.800781 C 143.019531 110.597656 164.5625 101.675781 187.480469 101.675781 C 210.394531 101.675781 231.941406 110.597656 248.144531 126.800781 C 264.347656 143.003906 273.269531 164.550781 273.269531 187.464844 C 273.269531 210.382812 264.347656 231.925781 248.144531 248.128906 C 231.941406 264.335938 210.394531 273.257812 187.480469 273.257812 Z M 187.480469 109.007812 C 167.378906 109.007812 147.277344 116.660156 131.976562 131.964844 C 101.371094 162.566406 101.371094 212.367188 131.976562 242.96875 C 162.578125 273.574219 212.378906 273.574219 242.980469 242.96875 C 273.585938 212.367188 273.585938 162.566406 242.980469 131.964844 C 227.679688 116.660156 207.578125 109.007812 187.480469 109.007812 Z M 187.480469 109.007812 " fill-opacity="1" fill-rule="nonzero"/><path fill="#0d8fdb" d="M 187.480469 258.285156 C 169.335938 258.285156 151.191406 251.378906 137.378906 237.566406 C 109.753906 209.941406 109.753906 164.988281 137.378906 137.367188 C 165.003906 109.742188 209.953125 109.742188 237.578125 137.367188 C 265.207031 164.988281 265.207031 209.941406 237.578125 237.566406 C 223.765625 251.378906 205.621094 258.285156 187.480469 258.285156 Z M 187.480469 123.945312 C 171.203125 123.945312 154.929688 130.136719 142.539062 142.527344 C 117.761719 167.308594 117.761719 207.625 142.539062 232.40625 C 167.320312 257.183594 207.636719 257.183594 232.417969 232.40625 C 257.195312 207.625 257.195312 167.308594 232.417969 142.527344 C 220.027344 130.136719 203.753906 123.945312 187.480469 123.945312 Z M 187.480469 123.945312 " fill-opacity="1" fill-rule="nonzero"/><path fill="#0d8fdb" d="M 187.480469 243.351562 C 173.160156 243.351562 158.84375 237.902344 147.945312 227 C 126.144531 205.203125 126.144531 169.730469 147.945312 147.929688 C 169.742188 126.132812 205.214844 126.132812 227.015625 147.929688 C 248.8125 169.730469 248.8125 205.203125 227.015625 227 C 216.113281 237.902344 201.796875 243.351562 187.480469 243.351562 Z M 187.480469 138.878906 C 175.027344 138.878906 162.582031 143.613281 153.105469 153.09375 C 134.148438 172.046875 134.148438 202.886719 153.105469 221.839844 C 172.058594 240.796875 202.898438 240.796875 221.851562 221.839844 C 240.808594 202.886719 240.808594 172.046875 221.851562 153.09375 C 212.375 143.613281 199.929688 138.878906 187.480469 138.878906 Z M 187.480469 138.878906 " fill-opacity="1" fill-rule="nonzero"/><path fill="#0d8fdb" d="M 187.480469 228.417969 C 176.984375 228.417969 166.496094 224.425781 158.507812 216.4375 C 142.53125 200.460938 142.53125 174.472656 158.507812 158.496094 C 174.484375 142.519531 200.472656 142.519531 216.449219 158.496094 C 232.425781 174.472656 232.425781 200.460938 216.449219 216.4375 C 208.460938 224.425781 197.972656 228.417969 187.480469 228.417969 Z M 187.480469 153.8125 C 178.855469 153.8125 170.234375 157.089844 163.667969 163.65625 C 150.542969 176.785156 150.542969 198.148438 163.667969 211.277344 C 176.800781 224.40625 198.15625 224.40625 211.289062 211.277344 C 224.414062 198.148438 224.414062 176.785156 211.289062 163.65625 C 204.722656 157.089844 196.101562 153.8125 187.480469 153.8125 Z M 187.480469 153.8125 " fill-opacity="1" fill-rule="nonzero"/><path fill="#d9d9d9" d="M 187.480469 213.484375 C 180.8125 213.484375 174.148438 210.949219 169.074219 205.871094 C 158.921875 195.726562 158.921875 179.207031 169.074219 169.058594 C 179.222656 158.910156 195.734375 158.910156 205.882812 169.058594 C 216.035156 179.207031 216.035156 195.726562 205.882812 205.871094 C 200.808594 210.949219 194.144531 213.484375 187.480469 213.484375 Z M 187.480469 168.742188 C 182.679688 168.742188 177.886719 170.570312 174.234375 174.222656 C 166.929688 181.523438 166.929688 193.40625 174.234375 200.710938 C 181.539062 208.011719 193.417969 208.011719 200.722656 200.710938 C 208.027344 193.40625 208.027344 181.523438 200.722656 174.222656 C 197.070312 170.570312 192.277344 168.742188 187.480469 168.742188 Z M 187.480469 168.742188 " fill-opacity="1" fill-rule="nonzero"/></svg>