<svg xmlns="http://www.w3.org/2000/svg" xmlns:xlink="http://www.w3.org/1999/xlink" width="500" zoomAndPan="magnify" viewBox="0 0 375 374.999991" height="500" preserveAspectRatio="xMidYMid meet" version="1.0"><defs><g/><clipPath id="7eaf027586"><path d="M 183 37.5 L 192 37.5 L 192 43 L 183 43 Z M 183 37.5 " clip-rule="nonzero"/></clipPath><clipPath id="86204bdb10"><path d="M 183 252 L 192 252 L 192 257.25 L 183 257.25 Z M 183 252 " clip-rule="nonzero"/></clipPath><clipPath id="80a04bbfe5"><path d="M 292 143 L 297.347656 143 L 297.347656 151 L 292 151 Z M 292 143 " clip-rule="nonzero"/></clipPath><clipPath id="1be257cf22"><path d="M 77.597656 143 L 83 143 L 83 151 L 77.597656 151 Z M 77.597656 143 " clip-rule="nonzero"/></clipPath></defs><g clip-path="url(#7eaf027586)"><path fill="#d9d9d9" d="M 188.585938 42.523438 C 188.546875 42.523438 188.503906 42.523438 188.464844 42.523438 C 187.800781 42.488281 187.144531 42.488281 186.480469 42.523438 C 185.117188 42.574219 183.929688 41.527344 183.863281 40.148438 C 183.796875 38.769531 184.859375 37.597656 186.238281 37.527344 C 187.058594 37.492188 187.886719 37.492188 188.707031 37.527344 C 190.085938 37.597656 191.148438 38.769531 191.082031 40.148438 C 191.015625 41.484375 189.910156 42.523438 188.585938 42.523438 Z M 188.585938 42.523438 " fill-opacity="1" fill-rule="nonzero"/></g><g clip-path="url(#86204bdb10)"><path fill="#d9d9d9" d="M 187.472656 257.25 C 187.0625 257.25 186.65625 257.242188 186.246094 257.222656 C 184.867188 257.15625 183.800781 255.988281 183.863281 254.609375 C 183.925781 253.230469 185.101562 252.148438 186.472656 252.230469 C 187.136719 252.257812 187.808594 252.257812 188.46875 252.230469 C 189.835938 252.136719 191.019531 253.230469 191.082031 254.609375 C 191.144531 255.988281 190.078125 257.15625 188.699219 257.222656 C 188.289062 257.242188 187.882812 257.25 187.472656 257.25 Z M 187.472656 257.25 " fill-opacity="1" fill-rule="nonzero"/></g><g clip-path="url(#80a04bbfe5)"><path fill="#d9d9d9" d="M 294.824219 150.988281 C 294.785156 150.988281 294.746094 150.988281 294.707031 150.984375 C 293.328125 150.921875 292.261719 149.75 292.324219 148.375 C 292.359375 147.707031 292.359375 147.042969 292.324219 146.378906 C 292.261719 145 293.328125 143.828125 294.707031 143.765625 C 296.074219 143.679688 297.253906 144.769531 297.316406 146.148438 C 297.355469 146.964844 297.355469 147.785156 297.316406 148.601562 C 297.257812 149.941406 296.152344 150.988281 294.824219 150.988281 Z M 294.824219 150.988281 " fill-opacity="1" fill-rule="nonzero"/></g><g clip-path="url(#1be257cf22)"><path fill="#d9d9d9" d="M 80.121094 150.988281 C 78.796875 150.988281 77.691406 149.945312 77.625 148.609375 C 77.585938 147.789062 77.585938 146.960938 77.625 146.140625 C 77.695312 144.761719 78.855469 143.675781 80.246094 143.765625 C 81.625 143.835938 82.6875 145.007812 82.617188 146.382812 C 82.585938 147.046875 82.585938 147.703125 82.617188 148.367188 C 82.6875 149.742188 81.625 150.914062 80.246094 150.984375 C 80.203125 150.988281 80.160156 150.988281 80.121094 150.988281 Z M 80.121094 150.988281 " fill-opacity="1" fill-rule="nonzero"/></g><path fill="#0d8fdb" d="M 199.523438 53.460938 C 199.421875 53.460938 199.316406 53.453125 199.210938 53.441406 C 191.421875 52.460938 183.523438 52.460938 175.734375 53.441406 C 174.332031 53.597656 173.113281 52.644531 172.945312 51.273438 C 172.769531 49.90625 173.742188 48.65625 175.109375 48.484375 C 183.316406 47.449219 191.628906 47.449219 199.832031 48.484375 C 201.203125 48.65625 202.171875 49.90625 202 51.273438 C 201.84375 52.539062 200.765625 53.460938 199.523438 53.460938 Z M 199.523438 53.460938 " fill-opacity="1" fill-rule="nonzero"/><path fill="#0d8fdb" d="M 187.472656 247.003906 C 183.332031 247.003906 179.1875 246.746094 175.078125 246.230469 C 173.707031 246.058594 172.738281 244.8125 172.90625 243.441406 C 173.078125 242.074219 174.316406 241.105469 175.695312 241.273438 C 183.511719 242.253906 191.433594 242.253906 199.25 241.273438 C 200.632812 241.105469 201.867188 242.074219 202.035156 243.441406 C 202.207031 244.8125 201.238281 246.058594 199.867188 246.230469 C 195.757812 246.746094 191.613281 247.003906 187.472656 247.003906 Z M 187.472656 247.003906 " fill-opacity="1" fill-rule="nonzero"/><path fill="#0d8fdb" d="M 283.867188 161.941406 C 283.765625 161.941406 283.660156 161.933594 283.554688 161.921875 C 282.183594 161.746094 281.214844 160.496094 281.386719 159.128906 C 282.359375 151.40625 282.359375 143.492188 281.386719 135.613281 C 281.214844 134.242188 282.191406 132.996094 283.5625 132.828125 C 284.902344 132.628906 286.175781 133.628906 286.34375 135 C 287.371094 143.289062 287.371094 151.617188 286.34375 159.753906 C 286.1875 161.015625 285.109375 161.941406 283.867188 161.941406 Z M 283.867188 161.941406 " fill-opacity="1" fill-rule="nonzero"/><path fill="#0d8fdb" d="M 91.074219 161.941406 C 89.832031 161.941406 88.753906 161.015625 88.597656 159.753906 C 87.574219 151.628906 87.574219 143.300781 88.597656 135 C 88.765625 133.632812 89.996094 132.625 91.382812 132.828125 C 92.75 132.996094 93.722656 134.242188 93.554688 135.613281 C 92.585938 143.503906 92.585938 151.414062 93.554688 159.128906 C 93.726562 160.496094 92.757812 161.746094 91.386719 161.921875 C 91.285156 161.933594 91.175781 161.941406 91.074219 161.941406 Z M 91.074219 161.941406 " fill-opacity="1" fill-rule="nonzero"/><path fill="#0d8fdb" d="M 212.753906 66.691406 C 212.515625 66.691406 212.269531 66.660156 212.027344 66.585938 C 195.96875 61.726562 178.980469 61.726562 162.914062 66.585938 C 161.589844 66.984375 160.199219 66.238281 159.796875 64.917969 C 159.398438 63.597656 160.144531 62.203125 161.464844 61.804688 C 178.480469 56.65625 196.460938 56.65625 213.476562 61.804688 C 214.796875 62.203125 215.546875 63.597656 215.144531 64.917969 C 214.816406 65.996094 213.828125 66.691406 212.753906 66.691406 Z M 212.753906 66.691406 " fill-opacity="1" fill-rule="nonzero"/><path fill="#0d8fdb" d="M 187.472656 236.785156 C 178.707031 236.785156 169.949219 235.496094 161.429688 232.910156 C 160.109375 232.511719 159.363281 231.113281 159.761719 229.792969 C 160.164062 228.476562 161.558594 227.730469 162.878906 228.128906 C 178.964844 233.007812 195.972656 233.007812 212.066406 228.128906 C 213.386719 227.726562 214.78125 228.476562 215.179688 229.792969 C 215.582031 231.113281 214.835938 232.511719 213.515625 232.910156 C 204.996094 235.496094 196.230469 236.785156 187.472656 236.785156 Z M 187.472656 236.785156 " fill-opacity="1" fill-rule="nonzero"/><path fill="#0d8fdb" d="M 270.632812 175.175781 C 270.394531 175.175781 270.148438 175.140625 269.90625 175.066406 C 268.585938 174.664062 267.84375 173.269531 268.242188 171.949219 C 273.125 155.890625 273.125 138.894531 268.242188 122.800781 C 267.84375 121.480469 268.589844 120.082031 269.910156 119.683594 C 271.238281 119.28125 272.625 120.03125 273.023438 121.347656 C 278.195312 138.394531 278.195312 156.394531 273.023438 173.402344 C 272.695312 174.480469 271.707031 175.175781 270.632812 175.175781 Z M 270.632812 175.175781 " fill-opacity="1" fill-rule="nonzero"/><path fill="#0d8fdb" d="M 104.3125 175.175781 C 103.238281 175.175781 102.25 174.480469 101.917969 173.402344 C 96.746094 156.394531 96.746094 138.394531 101.917969 121.347656 C 102.320312 120.03125 103.710938 119.28125 105.035156 119.683594 C 106.359375 120.082031 107.101562 121.480469 106.703125 122.800781 C 101.816406 138.894531 101.816406 155.890625 106.703125 171.949219 C 107.101562 173.269531 106.359375 174.664062 105.039062 175.066406 C 104.796875 175.140625 104.550781 175.175781 104.3125 175.175781 Z M 104.3125 175.175781 " fill-opacity="1" fill-rule="nonzero"/><path fill="#0d8fdb" d="M 187.472656 226.519531 C 167.191406 226.519531 146.917969 218.800781 131.476562 203.363281 C 100.601562 172.484375 100.601562 122.25 131.476562 91.375 C 162.355469 60.496094 212.589844 60.496094 243.464844 91.375 C 274.34375 122.25 274.34375 172.484375 243.464844 203.363281 C 228.027344 218.800781 207.75 226.519531 187.472656 226.519531 Z M 187.472656 73.210938 C 168.472656 73.210938 149.476562 80.445312 135.011719 94.90625 C 106.085938 123.832031 106.085938 170.902344 135.011719 199.828125 C 163.941406 228.753906 211.003906 228.753906 239.933594 199.828125 C 268.859375 170.902344 268.859375 123.832031 239.933594 94.90625 C 225.46875 80.445312 206.46875 73.210938 187.472656 73.210938 Z M 187.472656 73.210938 " fill-opacity="1" fill-rule="nonzero"/><path fill="#0d8fdb" d="M 187.472656 216.296875 C 169.8125 216.296875 152.15625 209.574219 138.710938 196.128906 C 111.824219 169.242188 111.824219 125.492188 138.710938 98.605469 C 165.601562 71.714844 209.34375 71.714844 236.234375 98.605469 C 263.121094 125.492188 263.121094 169.242188 236.234375 196.128906 C 222.789062 209.574219 205.132812 216.296875 187.472656 216.296875 Z M 187.472656 83.4375 C 171.09375 83.4375 154.710938 89.671875 142.242188 102.140625 C 117.304688 127.078125 117.304688 167.65625 142.242188 192.597656 C 167.179688 217.535156 207.765625 217.535156 232.699219 192.597656 C 257.640625 167.65625 257.640625 127.078125 232.699219 102.140625 C 220.230469 89.671875 203.851562 83.4375 187.472656 83.4375 Z M 187.472656 83.4375 " fill-opacity="1" fill-rule="nonzero"/><path fill="#0d8fdb" d="M 187.472656 206.097656 C 171.785156 206.097656 157.035156 199.988281 145.941406 188.898438 C 134.851562 177.804688 128.742188 163.054688 128.742188 147.367188 C 128.742188 131.679688 134.851562 116.929688 145.941406 105.839844 C 157.035156 94.746094 171.785156 88.636719 187.472656 88.636719 C 203.160156 88.636719 217.910156 94.746094 229 105.839844 C 240.09375 116.929688 246.203125 131.679688 246.203125 147.367188 C 246.203125 163.054688 240.09375 177.804688 229 188.898438 C 217.910156 199.988281 203.160156 206.097656 187.472656 206.097656 Z M 187.472656 93.65625 C 173.714844 93.65625 159.949219 98.894531 149.476562 109.371094 C 128.527344 130.320312 128.527344 164.414062 149.476562 185.363281 C 170.425781 206.3125 204.519531 206.3125 225.46875 185.363281 C 246.417969 164.414062 246.417969 130.320312 225.46875 109.371094 C 214.992188 98.894531 201.230469 93.65625 187.472656 93.65625 Z M 187.472656 93.65625 " fill-opacity="1" fill-rule="nonzero"/><path fill="#0d8fdb" d="M 187.472656 195.847656 C 175.050781 195.847656 162.628906 191.121094 153.175781 181.664062 C 134.261719 162.753906 134.261719 131.980469 153.175781 113.070312 C 172.085938 94.160156 202.859375 94.160156 221.769531 113.070312 C 240.683594 131.980469 240.683594 162.753906 221.769531 181.664062 C 212.316406 191.121094 199.890625 195.847656 187.472656 195.847656 Z M 187.472656 103.882812 C 176.332031 103.882812 165.191406 108.121094 156.707031 116.605469 C 139.746094 133.566406 139.746094 161.167969 156.707031 178.132812 C 173.671875 195.09375 201.273438 195.09375 218.238281 178.132812 C 235.199219 161.167969 235.199219 133.566406 218.238281 116.605469 C 209.753906 108.121094 198.613281 103.882812 187.472656 103.882812 Z M 187.472656 103.882812 " fill-opacity="1" fill-rule="nonzero"/><path fill="#0d8fdb" d="M 187.472656 185.625 C 177.671875 185.625 167.867188 181.894531 160.40625 174.433594 C 145.484375 159.507812 145.484375 135.226562 160.40625 120.304688 C 175.332031 105.378906 199.613281 105.378906 214.539062 120.304688 C 229.460938 135.226562 229.460938 159.507812 214.539062 174.433594 C 207.074219 181.894531 197.273438 185.625 187.472656 185.625 Z M 187.472656 114.105469 C 178.949219 114.105469 170.429688 117.347656 163.941406 123.835938 C 150.964844 136.8125 150.964844 157.921875 163.941406 170.898438 C 176.917969 183.875 198.027344 183.875 211.003906 170.898438 C 223.980469 157.921875 223.980469 136.8125 211.003906 123.835938 C 204.515625 117.347656 195.996094 114.105469 187.472656 114.105469 Z M 187.472656 114.105469 " fill-opacity="1" fill-rule="nonzero"/><path fill="#0d8fdb" d="M 187.472656 175.402344 C 180.289062 175.402344 173.109375 172.667969 167.640625 167.199219 C 156.703125 156.265625 156.703125 138.472656 167.640625 127.535156 C 178.574219 116.597656 196.367188 116.597656 207.304688 127.535156 C 218.242188 138.472656 218.242188 156.265625 207.304688 167.199219 C 201.835938 172.667969 194.65625 175.402344 187.472656 175.402344 Z M 187.472656 124.328125 C 181.570312 124.328125 175.667969 126.574219 171.171875 131.066406 C 162.1875 140.054688 162.1875 154.679688 171.171875 163.667969 C 180.160156 172.65625 194.78125 172.65625 203.773438 163.667969 C 212.757812 154.679688 212.757812 140.054688 203.773438 131.066406 C 199.277344 126.574219 193.375 124.328125 187.472656 124.328125 Z M 187.472656 124.328125 " fill-opacity="1" fill-rule="nonzero"/><path fill="#d9d9d9" d="M 187.472656 165.179688 C 182.910156 165.179688 178.347656 163.441406 174.871094 159.96875 C 167.921875 153.019531 167.921875 141.714844 174.871094 134.765625 C 181.820312 127.816406 193.125 127.816406 200.074219 134.765625 C 207.023438 141.714844 207.023438 153.019531 200.074219 159.96875 C 196.597656 163.441406 192.035156 165.179688 187.472656 165.179688 Z M 187.472656 134.550781 C 184.1875 134.550781 180.90625 135.800781 178.40625 138.300781 C 173.40625 143.300781 173.40625 151.433594 178.40625 156.433594 C 183.40625 161.433594 191.539062 161.433594 196.539062 156.433594 C 201.539062 151.433594 201.539062 143.300781 196.539062 138.300781 C 194.039062 135.800781 190.757812 134.550781 187.472656 134.550781 Z M 187.472656 134.550781 " fill-opacity="1" fill-rule="nonzero"/><g fill="#d9d9d9" fill-opacity="1"><g transform="translate(94.253156, 308.712589)"><g><path d="M 3.21875 -23.984375 L 7.671875 -23.984375 L 7.671875 -3.765625 L 20.21875 -3.765625 L 20.21875 0 L 3.21875 0 Z M 3.21875 -23.984375 "/></g></g></g><g fill="#d9d9d9" fill-opacity="1"><g transform="translate(121.627479, 308.712589)"><g><path d="M 3.21875 -23.984375 L 7.671875 -23.984375 L 7.671875 0 L 3.21875 0 Z M 3.21875 -23.984375 "/></g></g></g><g fill="#d9d9d9" fill-opacity="1"><g transform="translate(139.409183, 308.712589)"><g><path d="M 24.53125 -23.984375 L 24.53125 0 L 20.875 0 L 7.640625 -16.234375 L 7.640625 0 L 3.21875 0 L 3.21875 -23.984375 L 6.890625 -23.984375 L 20.109375 -7.75 L 20.109375 -23.984375 Z M 24.53125 -23.984375 "/></g></g></g><g fill="#d9d9d9" fill-opacity="1"><g transform="translate(174.01223, 308.712589)"><g><path d="M 11.484375 -10.046875 L 7.671875 -6.140625 L 7.671875 0 L 3.21875 0 L 3.21875 -23.984375 L 7.671875 -23.984375 L 7.671875 -11.6875 L 19.53125 -23.984375 L 24.53125 -23.984375 L 14.453125 -13.265625 L 25.15625 0 L 19.9375 0 Z M 11.484375 -10.046875 "/></g></g></g><g fill="#d9d9d9" fill-opacity="1"><g transform="translate(205.840263, 308.712589)"><g><path d="M 14.421875 0.34375 C 11.984375 0.34375 9.78125 -0.1875 7.8125 -1.25 C 5.84375 -2.3125 4.296875 -3.785156 3.171875 -5.671875 C 2.054688 -7.554688 1.5 -9.664062 1.5 -12 C 1.5 -14.320312 2.054688 -16.425781 3.171875 -18.3125 C 4.296875 -20.195312 5.84375 -21.671875 7.8125 -22.734375 C 9.78125 -23.796875 11.984375 -24.328125 14.421875 -24.328125 C 16.867188 -24.328125 19.070312 -23.796875 21.03125 -22.734375 C 23 -21.671875 24.539062 -20.203125 25.65625 -18.328125 C 26.78125 -16.453125 27.34375 -14.34375 27.34375 -12 C 27.34375 -9.644531 26.78125 -7.53125 25.65625 -5.65625 C 24.539062 -3.78125 23 -2.3125 21.03125 -1.25 C 19.070312 -0.1875 16.867188 0.34375 14.421875 0.34375 Z M 14.421875 -3.5625 C 16.023438 -3.5625 17.460938 -3.921875 18.734375 -4.640625 C 20.015625 -5.359375 21.019531 -6.363281 21.75 -7.65625 C 22.488281 -8.945312 22.859375 -10.394531 22.859375 -12 C 22.859375 -13.59375 22.488281 -15.035156 21.75 -16.328125 C 21.019531 -17.617188 20.015625 -18.625 18.734375 -19.34375 C 17.460938 -20.0625 16.023438 -20.421875 14.421875 -20.421875 C 12.828125 -20.421875 11.390625 -20.0625 10.109375 -19.34375 C 8.828125 -18.625 7.820312 -17.617188 7.09375 -16.328125 C 6.363281 -15.035156 6 -13.59375 6 -12 C 6 -10.394531 6.363281 -8.945312 7.09375 -7.65625 C 7.820312 -6.363281 8.828125 -5.359375 10.109375 -4.640625 C 11.390625 -3.921875 12.828125 -3.5625 14.421875 -3.5625 Z M 14.421875 -3.5625 "/></g></g></g><g fill="#d9d9d9" fill-opacity="1"><g transform="translate(241.539614, 308.712589)"><g><path d="M 38.28125 -23.984375 L 30.328125 0 L 25.59375 0 L 19.671875 -17.75 L 13.640625 0 L 8.875 0 L 0.921875 -23.984375 L 5.546875 -23.984375 L 11.515625 -5.75 L 17.71875 -23.984375 L 21.828125 -23.984375 L 27.890625 -5.65625 L 34.03125 -23.984375 Z M 38.28125 -23.984375 "/></g></g></g><g fill="#0d8fdb" fill-opacity="1"><g transform="translate(29.987199, 333.928172)"><g><path d="M 9.640625 -1.703125 L 9.640625 0 L 1.46875 0 L 1.46875 -10.90625 L 9.421875 -10.90625 L 9.421875 -9.203125 L 3.484375 -9.203125 L 3.484375 -6.375 L 8.75 -6.375 L 8.75 -4.703125 L 3.484375 -4.703125 L 3.484375 -1.703125 Z M 9.640625 -1.703125 "/></g></g></g><g fill="#0d8fdb" fill-opacity="1"><g transform="translate(43.529949, 333.928172)"><g><path d="M 8.328125 0 L 5.375 -4.140625 L 2.453125 0 L 0.140625 0 L 4.1875 -5.5625 L 0.359375 -10.90625 L 2.640625 -10.90625 L 5.4375 -7.03125 L 8.1875 -10.90625 L 10.390625 -10.90625 L 6.578125 -5.640625 L 10.671875 0 Z M 8.328125 0 "/></g></g></g><g fill="#0d8fdb" fill-opacity="1"><g transform="translate(57.430669, 333.928172)"><g><path d="M 5.953125 -10.90625 C 6.898438 -10.90625 7.722656 -10.75 8.421875 -10.4375 C 9.117188 -10.125 9.65625 -9.675781 10.03125 -9.09375 C 10.40625 -8.507812 10.59375 -7.820312 10.59375 -7.03125 C 10.59375 -6.238281 10.40625 -5.546875 10.03125 -4.953125 C 9.65625 -4.367188 9.117188 -3.921875 8.421875 -3.609375 C 7.722656 -3.296875 6.898438 -3.140625 5.953125 -3.140625 L 3.484375 -3.140625 L 3.484375 0 L 1.46875 0 L 1.46875 -10.90625 Z M 5.859375 -4.859375 C 6.742188 -4.859375 7.410156 -5.046875 7.859375 -5.421875 C 8.316406 -5.796875 8.546875 -6.332031 8.546875 -7.03125 C 8.546875 -7.71875 8.316406 -8.25 7.859375 -8.625 C 7.410156 -9 6.742188 -9.1875 5.859375 -9.1875 L 3.484375 -9.1875 L 3.484375 -4.859375 Z M 5.859375 -4.859375 "/></g></g></g><g fill="#0d8fdb" fill-opacity="1"><g transform="translate(71.844988, 333.928172)"><g><path d="M 8.53125 -2.53125 L 3.078125 -2.53125 L 2.015625 0 L -0.078125 0 L 4.828125 -10.90625 L 6.828125 -10.90625 L 11.75 0 L 9.625 0 Z M 7.859375 -4.109375 L 5.8125 -8.875 L 3.765625 -4.109375 Z M 7.859375 -4.109375 "/></g></g></g><g fill="#0d8fdb" fill-opacity="1"><g transform="translate(86.617281, 333.928172)"><g><path d="M 11.15625 -10.90625 L 11.15625 0 L 9.484375 0 L 3.46875 -7.390625 L 3.46875 0 L 1.46875 0 L 1.46875 -10.90625 L 3.125 -10.90625 L 9.140625 -3.515625 L 9.140625 -10.90625 Z M 11.15625 -10.90625 "/></g></g></g><g fill="#0d8fdb" fill-opacity="1"><g transform="translate(102.338969, 333.928172)"><g><path d="M 1.46875 -10.90625 L 6.234375 -10.90625 C 7.390625 -10.90625 8.421875 -10.675781 9.328125 -10.21875 C 10.234375 -9.769531 10.9375 -9.132812 11.4375 -8.3125 C 11.9375 -7.488281 12.1875 -6.535156 12.1875 -5.453125 C 12.1875 -4.367188 11.9375 -3.414062 11.4375 -2.59375 C 10.9375 -1.769531 10.234375 -1.128906 9.328125 -0.671875 C 8.421875 -0.222656 7.390625 0 6.234375 0 L 1.46875 0 Z M 6.140625 -1.71875 C 6.941406 -1.71875 7.644531 -1.867188 8.25 -2.171875 C 8.851562 -2.472656 9.316406 -2.90625 9.640625 -3.46875 C 9.972656 -4.039062 10.140625 -4.703125 10.140625 -5.453125 C 10.140625 -6.203125 9.972656 -6.859375 9.640625 -7.421875 C 9.316406 -7.984375 8.851562 -8.414062 8.25 -8.71875 C 7.644531 -9.03125 6.941406 -9.1875 6.140625 -9.1875 L 3.484375 -9.1875 L 3.484375 -1.71875 Z M 6.140625 -1.71875 "/></g></g></g><g fill="#0d8fdb" fill-opacity="1"><g transform="translate(118.309682, 333.928172)"><g/></g></g><g fill="#0d8fdb" fill-opacity="1"><g transform="translate(125.720299, 333.928172)"><g><path d="M 6.171875 -3.84375 L 6.171875 0 L 4.140625 0 L 4.140625 -3.8125 L -0.140625 -10.90625 L 2.03125 -10.90625 L 5.21875 -5.59375 L 8.4375 -10.90625 L 10.4375 -10.90625 Z M 6.171875 -3.84375 "/></g></g></g><g fill="#0d8fdb" fill-opacity="1"><g transform="translate(139.12297, 333.928172)"><g><path d="M 6.5625 0.15625 C 5.445312 0.15625 4.441406 -0.0820312 3.546875 -0.5625 C 2.660156 -1.050781 1.960938 -1.722656 1.453125 -2.578125 C 0.941406 -3.429688 0.6875 -4.390625 0.6875 -5.453125 C 0.6875 -6.515625 0.941406 -7.472656 1.453125 -8.328125 C 1.960938 -9.179688 2.660156 -9.847656 3.546875 -10.328125 C 4.441406 -10.816406 5.445312 -11.0625 6.5625 -11.0625 C 7.664062 -11.0625 8.664062 -10.816406 9.5625 -10.328125 C 10.457031 -9.847656 11.160156 -9.179688 11.671875 -8.328125 C 12.179688 -7.484375 12.4375 -6.523438 12.4375 -5.453125 C 12.4375 -4.378906 12.179688 -3.414062 11.671875 -2.5625 C 11.160156 -1.71875 10.457031 -1.050781 9.5625 -0.5625 C 8.664062 -0.0820312 7.664062 0.15625 6.5625 0.15625 Z M 6.5625 -1.625 C 7.289062 -1.625 7.941406 -1.785156 8.515625 -2.109375 C 9.097656 -2.429688 9.554688 -2.882812 9.890625 -3.46875 C 10.222656 -4.0625 10.390625 -4.722656 10.390625 -5.453125 C 10.390625 -6.179688 10.222656 -6.835938 9.890625 -7.421875 C 9.554688 -8.003906 9.097656 -8.457031 8.515625 -8.78125 C 7.941406 -9.113281 7.289062 -9.28125 6.5625 -9.28125 C 5.832031 -9.28125 5.175781 -9.113281 4.59375 -8.78125 C 4.007812 -8.457031 3.550781 -8.003906 3.21875 -7.421875 C 2.882812 -6.835938 2.71875 -6.179688 2.71875 -5.453125 C 2.71875 -4.722656 2.882812 -4.0625 3.21875 -3.46875 C 3.550781 -2.882812 4.007812 -2.429688 4.59375 -2.109375 C 5.175781 -1.785156 5.832031 -1.625 6.5625 -1.625 Z M 6.5625 -1.625 "/></g></g></g><g fill="#0d8fdb" fill-opacity="1"><g transform="translate(155.342693, 333.928172)"><g><path d="M 6.15625 0.15625 C 4.644531 0.15625 3.46875 -0.265625 2.625 -1.109375 C 1.789062 -1.960938 1.375 -3.175781 1.375 -4.75 L 1.375 -10.90625 L 3.390625 -10.90625 L 3.390625 -4.828125 C 3.390625 -2.691406 4.316406 -1.625 6.171875 -1.625 C 8.003906 -1.625 8.921875 -2.691406 8.921875 -4.828125 L 8.921875 -10.90625 L 10.921875 -10.90625 L 10.921875 -4.75 C 10.921875 -3.175781 10.5 -1.960938 9.65625 -1.109375 C 8.820312 -0.265625 7.65625 0.15625 6.15625 0.15625 Z M 6.15625 0.15625 "/></g></g></g><g fill="#0d8fdb" fill-opacity="1"><g transform="translate(170.737524, 333.928172)"><g><path d="M 8.59375 0 L 6.375 -3.1875 C 6.28125 -3.175781 6.140625 -3.171875 5.953125 -3.171875 L 3.484375 -3.171875 L 3.484375 0 L 1.46875 0 L 1.46875 -10.90625 L 5.953125 -10.90625 C 6.898438 -10.90625 7.722656 -10.75 8.421875 -10.4375 C 9.117188 -10.125 9.65625 -9.675781 10.03125 -9.09375 C 10.40625 -8.507812 10.59375 -7.820312 10.59375 -7.03125 C 10.59375 -6.207031 10.390625 -5.5 9.984375 -4.90625 C 9.585938 -4.3125 9.015625 -3.867188 8.265625 -3.578125 L 10.78125 0 Z M 8.546875 -7.03125 C 8.546875 -7.71875 8.316406 -8.25 7.859375 -8.625 C 7.410156 -9 6.742188 -9.1875 5.859375 -9.1875 L 3.484375 -9.1875 L 3.484375 -4.84375 L 5.859375 -4.84375 C 6.742188 -4.84375 7.410156 -5.03125 7.859375 -5.40625 C 8.316406 -5.789062 8.546875 -6.332031 8.546875 -7.03125 Z M 8.546875 -7.03125 "/></g></g></g><g fill="#0d8fdb" fill-opacity="1"><g transform="translate(185.229664, 333.928172)"><g/></g></g><g fill="#0d8fdb" fill-opacity="1"><g transform="translate(192.640273, 333.928172)"><g><path d="M 6.515625 0.15625 C 5.410156 0.15625 4.414062 -0.0820312 3.53125 -0.5625 C 2.644531 -1.050781 1.945312 -1.71875 1.4375 -2.5625 C 0.9375 -3.414062 0.6875 -4.378906 0.6875 -5.453125 C 0.6875 -6.523438 0.941406 -7.484375 1.453125 -8.328125 C 1.960938 -9.179688 2.660156 -9.847656 3.546875 -10.328125 C 4.429688 -10.816406 5.425781 -11.0625 6.53125 -11.0625 C 7.414062 -11.0625 8.226562 -10.90625 8.96875 -10.59375 C 9.707031 -10.28125 10.332031 -9.828125 10.84375 -9.234375 L 9.53125 -8 C 8.738281 -8.851562 7.769531 -9.28125 6.625 -9.28125 C 5.875 -9.28125 5.203125 -9.113281 4.609375 -8.78125 C 4.015625 -8.457031 3.550781 -8.003906 3.21875 -7.421875 C 2.882812 -6.847656 2.71875 -6.191406 2.71875 -5.453125 C 2.71875 -4.710938 2.882812 -4.050781 3.21875 -3.46875 C 3.550781 -2.882812 4.015625 -2.429688 4.609375 -2.109375 C 5.203125 -1.785156 5.875 -1.625 6.625 -1.625 C 7.769531 -1.625 8.738281 -2.050781 9.53125 -2.90625 L 10.84375 -1.671875 C 10.332031 -1.078125 9.703125 -0.625 8.953125 -0.3125 C 8.210938 0 7.398438 0.15625 6.515625 0.15625 Z M 6.515625 0.15625 "/></g></g></g><g fill="#0d8fdb" fill-opacity="1"><g transform="translate(207.070156, 333.928172)"><g><path d="M 6.5625 0.15625 C 5.445312 0.15625 4.441406 -0.0820312 3.546875 -0.5625 C 2.660156 -1.050781 1.960938 -1.722656 1.453125 -2.578125 C 0.941406 -3.429688 0.6875 -4.390625 0.6875 -5.453125 C 0.6875 -6.515625 0.941406 -7.472656 1.453125 -8.328125 C 1.960938 -9.179688 2.660156 -9.847656 3.546875 -10.328125 C 4.441406 -10.816406 5.445312 -11.0625 6.5625 -11.0625 C 7.664062 -11.0625 8.664062 -10.816406 9.5625 -10.328125 C 10.457031 -9.847656 11.160156 -9.179688 11.671875 -8.328125 C 12.179688 -7.484375 12.4375 -6.523438 12.4375 -5.453125 C 12.4375 -4.378906 12.179688 -3.414062 11.671875 -2.5625 C 11.160156 -1.71875 10.457031 -1.050781 9.5625 -0.5625 C 8.664062 -0.0820312 7.664062 0.15625 6.5625 0.15625 Z M 6.5625 -1.625 C 7.289062 -1.625 7.941406 -1.785156 8.515625 -2.109375 C 9.097656 -2.429688 9.554688 -2.882812 9.890625 -3.46875 C 10.222656 -4.0625 10.390625 -4.722656 10.390625 -5.453125 C 10.390625 -6.179688 10.222656 -6.835938 9.890625 -7.421875 C 9.554688 -8.003906 9.097656 -8.457031 8.515625 -8.78125 C 7.941406 -9.113281 7.289062 -9.28125 6.5625 -9.28125 C 5.832031 -9.28125 5.175781 -9.113281 4.59375 -8.78125 C 4.007812 -8.457031 3.550781 -8.003906 3.21875 -7.421875 C 2.882812 -6.835938 2.71875 -6.179688 2.71875 -5.453125 C 2.71875 -4.722656 2.882812 -4.0625 3.21875 -3.46875 C 3.550781 -2.882812 4.007812 -2.429688 4.59375 -2.109375 C 5.175781 -1.785156 5.832031 -1.625 6.5625 -1.625 Z M 6.5625 -1.625 "/></g></g></g><g fill="#0d8fdb" fill-opacity="1"><g transform="translate(223.289871, 333.928172)"><g><path d="M 11.15625 -10.90625 L 11.15625 0 L 9.484375 0 L 3.46875 -7.390625 L 3.46875 0 L 1.46875 0 L 1.46875 -10.90625 L 3.125 -10.90625 L 9.140625 -3.515625 L 9.140625 -10.90625 Z M 11.15625 -10.90625 "/></g></g></g><g fill="#0d8fdb" fill-opacity="1"><g transform="translate(239.011552, 333.928172)"><g><path d="M 11.15625 -10.90625 L 11.15625 0 L 9.484375 0 L 3.46875 -7.390625 L 3.46875 0 L 1.46875 0 L 1.46875 -10.90625 L 3.125 -10.90625 L 9.140625 -3.515625 L 9.140625 -10.90625 Z M 11.15625 -10.90625 "/></g></g></g><g fill="#0d8fdb" fill-opacity="1"><g transform="translate(254.733232, 333.928172)"><g><path d="M 9.640625 -1.703125 L 9.640625 0 L 1.46875 0 L 1.46875 -10.90625 L 9.421875 -10.90625 L 9.421875 -9.203125 L 3.484375 -9.203125 L 3.484375 -6.375 L 8.75 -6.375 L 8.75 -4.703125 L 3.484375 -4.703125 L 3.484375 -1.703125 Z M 9.640625 -1.703125 "/></g></g></g><g fill="#0d8fdb" fill-opacity="1"><g transform="translate(268.275977, 333.928172)"><g><path d="M 6.515625 0.15625 C 5.410156 0.15625 4.414062 -0.0820312 3.53125 -0.5625 C 2.644531 -1.050781 1.945312 -1.71875 1.4375 -2.5625 C 0.9375 -3.414062 0.6875 -4.378906 0.6875 -5.453125 C 0.6875 -6.523438 0.941406 -7.484375 1.453125 -8.328125 C 1.960938 -9.179688 2.660156 -9.847656 3.546875 -10.328125 C 4.429688 -10.816406 5.425781 -11.0625 6.53125 -11.0625 C 7.414062 -11.0625 8.226562 -10.90625 8.96875 -10.59375 C 9.707031 -10.28125 10.332031 -9.828125 10.84375 -9.234375 L 9.53125 -8 C 8.738281 -8.851562 7.769531 -9.28125 6.625 -9.28125 C 5.875 -9.28125 5.203125 -9.113281 4.609375 -8.78125 C 4.015625 -8.457031 3.550781 -8.003906 3.21875 -7.421875 C 2.882812 -6.847656 2.71875 -6.191406 2.71875 -5.453125 C 2.71875 -4.710938 2.882812 -4.050781 3.21875 -3.46875 C 3.550781 -2.882812 4.015625 -2.429688 4.609375 -2.109375 C 5.203125 -1.785156 5.875 -1.625 6.625 -1.625 C 7.769531 -1.625 8.738281 -2.050781 9.53125 -2.90625 L 10.84375 -1.671875 C 10.332031 -1.078125 9.703125 -0.625 8.953125 -0.3125 C 8.210938 0 7.398438 0.15625 6.515625 0.15625 Z M 6.515625 0.15625 "/></g></g></g><g fill="#0d8fdb" fill-opacity="1"><g transform="translate(282.70586, 333.928172)"><g><path d="M 3.671875 -9.1875 L 0.0625 -9.1875 L 0.0625 -10.90625 L 9.3125 -10.90625 L 9.3125 -9.1875 L 5.703125 -9.1875 L 5.703125 0 L 3.671875 0 Z M 3.671875 -9.1875 "/></g></g></g><g fill="#0d8fdb" fill-opacity="1"><g transform="translate(295.19028, 333.928172)"><g><path d="M 1.46875 -10.90625 L 3.484375 -10.90625 L 3.484375 0 L 1.46875 0 Z M 1.46875 -10.90625 "/></g></g></g><g fill="#0d8fdb" fill-opacity="1"><g transform="translate(303.270123, 333.928172)"><g><path d="M 6.5625 0.15625 C 5.445312 0.15625 4.441406 -0.0820312 3.546875 -0.5625 C 2.660156 -1.050781 1.960938 -1.722656 1.453125 -2.578125 C 0.941406 -3.429688 0.6875 -4.390625 0.6875 -5.453125 C 0.6875 -6.515625 0.941406 -7.472656 1.453125 -8.328125 C 1.960938 -9.179688 2.660156 -9.847656 3.546875 -10.328125 C 4.441406 -10.816406 5.445312 -11.0625 6.5625 -11.0625 C 7.664062 -11.0625 8.664062 -10.816406 9.5625 -10.328125 C 10.457031 -9.847656 11.160156 -9.179688 11.671875 -8.328125 C 12.179688 -7.484375 12.4375 -6.523438 12.4375 -5.453125 C 12.4375 -4.378906 12.179688 -3.414062 11.671875 -2.5625 C 11.160156 -1.71875 10.457031 -1.050781 9.5625 -0.5625 C 8.664062 -0.0820312 7.664062 0.15625 6.5625 0.15625 Z M 6.5625 -1.625 C 7.289062 -1.625 7.941406 -1.785156 8.515625 -2.109375 C 9.097656 -2.429688 9.554688 -2.882812 9.890625 -3.46875 C 10.222656 -4.0625 10.390625 -4.722656 10.390625 -5.453125 C 10.390625 -6.179688 10.222656 -6.835938 9.890625 -7.421875 C 9.554688 -8.003906 9.097656 -8.457031 8.515625 -8.78125 C 7.941406 -9.113281 7.289062 -9.28125 6.5625 -9.28125 C 5.832031 -9.28125 5.175781 -9.113281 4.59375 -8.78125 C 4.007812 -8.457031 3.550781 -8.003906 3.21875 -7.421875 C 2.882812 -6.835938 2.71875 -6.179688 2.71875 -5.453125 C 2.71875 -4.722656 2.882812 -4.0625 3.21875 -3.46875 C 3.550781 -2.882812 4.007812 -2.429688 4.59375 -2.109375 C 5.175781 -1.785156 5.832031 -1.625 6.5625 -1.625 Z M 6.5625 -1.625 "/></g></g></g><g fill="#0d8fdb" fill-opacity="1"><g transform="translate(319.489838, 333.928172)"><g><path d="M 11.15625 -10.90625 L 11.15625 0 L 9.484375 0 L 3.46875 -7.390625 L 3.46875 0 L 1.46875 0 L 1.46875 -10.90625 L 3.125 -10.90625 L 9.140625 -3.515625 L 9.140625 -10.90625 Z M 11.15625 -10.90625 "/></g></g></g><g fill="#0d8fdb" fill-opacity="1"><g transform="translate(335.211534, 333.928172)"><g><path d="M 4.84375 0.15625 C 4 0.15625 3.1875 0.0351562 2.40625 -0.203125 C 1.625 -0.441406 1.003906 -0.757812 0.546875 -1.15625 L 1.25 -2.71875 C 1.695312 -2.375 2.242188 -2.085938 2.890625 -1.859375 C 3.535156 -1.640625 4.1875 -1.53125 4.84375 -1.53125 C 5.65625 -1.53125 6.257812 -1.660156 6.65625 -1.921875 C 7.0625 -2.179688 7.265625 -2.519531 7.265625 -2.9375 C 7.265625 -3.25 7.148438 -3.503906 6.921875 -3.703125 C 6.703125 -3.910156 6.421875 -4.070312 6.078125 -4.1875 C 5.734375 -4.300781 5.265625 -4.429688 4.671875 -4.578125 C 3.835938 -4.773438 3.164062 -4.972656 2.65625 -5.171875 C 2.144531 -5.367188 1.703125 -5.675781 1.328125 -6.09375 C 0.960938 -6.519531 0.78125 -7.085938 0.78125 -7.796875 C 0.78125 -8.398438 0.941406 -8.945312 1.265625 -9.4375 C 1.597656 -9.9375 2.09375 -10.332031 2.75 -10.625 C 3.40625 -10.914062 4.210938 -11.0625 5.171875 -11.0625 C 5.835938 -11.0625 6.488281 -10.976562 7.125 -10.8125 C 7.769531 -10.644531 8.328125 -10.40625 8.796875 -10.09375 L 8.15625 -8.515625 C 7.6875 -8.796875 7.191406 -9.007812 6.671875 -9.15625 C 6.148438 -9.300781 5.644531 -9.375 5.15625 -9.375 C 4.351562 -9.375 3.753906 -9.238281 3.359375 -8.96875 C 2.972656 -8.695312 2.78125 -8.335938 2.78125 -7.890625 C 2.78125 -7.585938 2.890625 -7.335938 3.109375 -7.140625 C 3.335938 -6.941406 3.625 -6.785156 3.96875 -6.671875 C 4.3125 -6.554688 4.78125 -6.425781 5.375 -6.28125 C 6.1875 -6.09375 6.847656 -5.894531 7.359375 -5.6875 C 7.878906 -5.488281 8.320312 -5.179688 8.6875 -4.765625 C 9.0625 -4.347656 9.25 -3.785156 9.25 -3.078125 C 9.25 -2.484375 9.082031 -1.941406 8.75 -1.453125 C 8.425781 -0.960938 7.929688 -0.570312 7.265625 -0.28125 C 6.609375 0.0078125 5.800781 0.15625 4.84375 0.15625 Z M 4.84375 0.15625 "/></g></g></g></svg>