<svg xmlns="http://www.w3.org/2000/svg" xmlns:xlink="http://www.w3.org/1999/xlink" width="500" zoomAndPan="magnify" viewBox="0 0 375 374.999991" height="500" preserveAspectRatio="xMidYMid meet" version="1.0"><defs><g/><clipPath id="0eff4c7a19"><path d="M 184 71.386719 L 191 71.386719 L 191 76 L 184 76 Z M 184 71.386719 " clip-rule="nonzero"/></clipPath><clipPath id="3c6a95b669"><path d="M 184 237 L 191 237 L 191 241.636719 L 184 241.636719 Z M 184 237 " clip-rule="nonzero"/></clipPath><clipPath id="efb2f1f798"><path d="M 268 153 L 272.675781 153 L 272.675781 160 L 268 160 Z M 268 153 " clip-rule="nonzero"/></clipPath><clipPath id="d62865be52"><path d="M 102.425781 153 L 107 153 L 107 160 L 102.425781 160 Z M 102.425781 153 " clip-rule="nonzero"/></clipPath></defs><rect x="-37.5" width="450" fill="#ffffff" y="-37.499999" height="449.999989" fill-opacity="1"/><rect x="-37.5" width="450" fill="#ffffff" y="-37.499999" height="449.999989" fill-opacity="1"/><rect x="-37.5" width="450" fill="#000000" y="-37.499999" height="449.999989" fill-opacity="1"/><g clip-path="url(#0eff4c7a19)"><path fill="#d9d9d9" d="M 188.414062 75.28125 C 188.382812 75.28125 188.351562 75.28125 188.316406 75.277344 C 187.804688 75.25 187.296875 75.25 186.785156 75.277344 C 185.726562 75.316406 184.804688 74.507812 184.753906 73.4375 C 184.703125 72.371094 185.527344 71.460938 186.59375 71.410156 C 187.230469 71.378906 187.871094 71.378906 188.507812 71.410156 C 189.574219 71.460938 190.398438 72.371094 190.347656 73.4375 C 190.296875 74.472656 189.4375 75.28125 188.414062 75.28125 Z M 188.414062 75.28125 " fill-opacity="1" fill-rule="nonzero"/></g><g clip-path="url(#3c6a95b669)"><path fill="#d9d9d9" d="M 187.550781 241.636719 C 187.234375 241.636719 186.917969 241.628906 186.601562 241.613281 C 185.53125 241.566406 184.707031 240.660156 184.753906 239.589844 C 184.804688 238.523438 185.714844 237.683594 186.777344 237.746094 C 187.292969 237.769531 187.808594 237.769531 188.324219 237.746094 C 189.378906 237.675781 190.296875 238.523438 190.347656 239.589844 C 190.394531 240.660156 189.570312 241.566406 188.5 241.613281 C 188.183594 241.628906 187.867188 241.636719 187.550781 241.636719 Z M 187.550781 241.636719 " fill-opacity="1" fill-rule="nonzero"/></g><g clip-path="url(#efb2f1f798)"><path fill="#d9d9d9" d="M 270.722656 159.308594 C 270.691406 159.308594 270.660156 159.308594 270.628906 159.308594 C 269.5625 159.257812 268.734375 158.351562 268.785156 157.285156 C 268.808594 156.769531 268.808594 156.253906 268.785156 155.738281 C 268.734375 154.671875 269.5625 153.765625 270.628906 153.714844 C 271.6875 153.648438 272.605469 154.492188 272.652344 155.5625 C 272.679688 156.195312 272.679688 156.828125 272.652344 157.464844 C 272.605469 158.5 271.75 159.308594 270.722656 159.308594 Z M 270.722656 159.308594 " fill-opacity="1" fill-rule="nonzero"/></g><g clip-path="url(#d62865be52)"><path fill="#d9d9d9" d="M 104.378906 159.308594 C 103.355469 159.308594 102.5 158.503906 102.449219 157.46875 C 102.417969 156.832031 102.417969 156.191406 102.449219 155.554688 C 102.5 154.488281 103.398438 153.644531 104.476562 153.714844 C 105.546875 153.769531 106.371094 154.679688 106.316406 155.746094 C 106.289062 156.257812 106.289062 156.765625 106.316406 157.28125 C 106.371094 158.347656 105.546875 159.253906 104.476562 159.308594 C 104.445312 159.308594 104.414062 159.308594 104.378906 159.308594 Z M 104.378906 159.308594 " fill-opacity="1" fill-rule="nonzero"/></g><path fill="#0d8fdb" d="M 196.886719 83.753906 C 196.808594 83.753906 196.726562 83.746094 196.644531 83.738281 C 190.609375 82.976562 184.492188 82.976562 178.457031 83.738281 C 177.371094 83.859375 176.425781 83.117188 176.296875 82.058594 C 176.160156 80.996094 176.914062 80.03125 177.972656 79.894531 C 184.328125 79.09375 190.773438 79.09375 197.128906 79.894531 C 198.1875 80.03125 198.941406 80.996094 198.804688 82.058594 C 198.683594 83.039062 197.851562 83.753906 196.886719 83.753906 Z M 196.886719 83.753906 " fill-opacity="1" fill-rule="nonzero"/><path fill="#0d8fdb" d="M 187.550781 233.699219 C 184.34375 233.699219 181.132812 233.5 177.949219 233.101562 C 176.886719 232.96875 176.132812 232 176.265625 230.9375 C 176.398438 229.878906 177.359375 229.128906 178.425781 229.257812 C 184.480469 230.019531 190.621094 230.019531 196.675781 229.257812 C 197.746094 229.128906 198.703125 229.878906 198.835938 230.9375 C 198.96875 232 198.214844 232.96875 197.152344 233.101562 C 193.96875 233.5 190.757812 233.699219 187.550781 233.699219 Z M 187.550781 233.699219 " fill-opacity="1" fill-rule="nonzero"/><path fill="#0d8fdb" d="M 262.234375 167.796875 C 262.152344 167.796875 262.070312 167.789062 261.988281 167.78125 C 260.929688 167.648438 260.175781 166.679688 260.3125 165.617188 C 261.066406 159.636719 261.0625 153.503906 260.3125 147.398438 C 260.179688 146.335938 260.933594 145.371094 261.996094 145.242188 C 263.035156 145.085938 264.023438 145.863281 264.152344 146.925781 C 264.945312 153.347656 264.945312 159.800781 264.152344 166.101562 C 264.027344 167.082031 263.195312 167.796875 262.234375 167.796875 Z M 262.234375 167.796875 " fill-opacity="1" fill-rule="nonzero"/><path fill="#0d8fdb" d="M 112.867188 167.796875 C 111.902344 167.796875 111.070312 167.082031 110.949219 166.101562 C 110.15625 159.808594 110.15625 153.355469 110.949219 146.925781 C 111.078125 145.867188 112.03125 145.085938 113.105469 145.242188 C 114.164062 145.371094 114.917969 146.335938 114.789062 147.398438 C 114.035156 153.511719 114.035156 159.640625 114.789062 165.617188 C 114.921875 166.679688 114.171875 167.648438 113.109375 167.78125 C 113.027344 167.789062 112.945312 167.796875 112.867188 167.796875 Z M 112.867188 167.796875 " fill-opacity="1" fill-rule="nonzero"/><path fill="#0d8fdb" d="M 207.136719 94.003906 C 206.953125 94.003906 206.761719 93.976562 206.574219 93.921875 C 194.132812 90.15625 180.96875 90.15625 168.523438 93.921875 C 167.496094 94.230469 166.417969 93.648438 166.109375 92.628906 C 165.800781 91.605469 166.378906 90.527344 167.402344 90.214844 C 180.585938 86.226562 194.515625 86.226562 207.699219 90.214844 C 208.722656 90.527344 209.300781 91.605469 208.988281 92.628906 C 208.738281 93.464844 207.96875 94.003906 207.136719 94.003906 Z M 207.136719 94.003906 " fill-opacity="1" fill-rule="nonzero"/><path fill="#0d8fdb" d="M 187.550781 225.78125 C 180.761719 225.78125 173.972656 224.78125 167.375 222.78125 C 166.351562 222.46875 165.773438 221.390625 166.082031 220.367188 C 166.394531 219.34375 167.472656 218.765625 168.496094 219.074219 C 180.957031 222.855469 194.136719 222.855469 206.605469 219.074219 C 207.628906 218.765625 208.707031 219.34375 209.019531 220.367188 C 209.328125 221.390625 208.75 222.46875 207.726562 222.78125 C 201.128906 224.78125 194.335938 225.78125 187.550781 225.78125 Z M 187.550781 225.78125 " fill-opacity="1" fill-rule="nonzero"/><path fill="#0d8fdb" d="M 251.980469 178.050781 C 251.792969 178.050781 251.605469 178.023438 251.417969 177.964844 C 250.394531 177.65625 249.816406 176.574219 250.128906 175.550781 C 253.910156 163.109375 253.910156 149.941406 250.128906 137.472656 C 249.816406 136.449219 250.394531 135.367188 251.417969 135.058594 C 252.445312 134.746094 253.523438 135.328125 253.832031 136.347656 C 257.839844 149.554688 257.839844 163.5 253.832031 176.675781 C 253.578125 177.511719 252.808594 178.050781 251.980469 178.050781 Z M 251.980469 178.050781 " fill-opacity="1" fill-rule="nonzero"/><path fill="#0d8fdb" d="M 123.121094 178.050781 C 122.292969 178.050781 121.523438 177.511719 121.269531 176.675781 C 117.261719 163.5 117.261719 149.554688 121.269531 136.347656 C 121.578125 135.328125 122.65625 134.746094 123.683594 135.058594 C 124.707031 135.367188 125.285156 136.449219 124.972656 137.472656 C 121.191406 149.941406 121.191406 163.109375 124.972656 175.550781 C 125.285156 176.574219 124.707031 177.65625 123.683594 177.964844 C 123.5 178.023438 123.308594 178.050781 123.121094 178.050781 Z M 123.121094 178.050781 " fill-opacity="1" fill-rule="nonzero"/><path fill="#0d8fdb" d="M 187.550781 217.828125 C 171.839844 217.828125 156.128906 211.847656 144.167969 199.886719 C 120.25 175.964844 120.25 137.046875 144.167969 113.125 C 168.089844 89.203125 207.011719 89.203125 230.933594 113.125 C 254.851562 137.046875 254.851562 175.964844 230.933594 199.886719 C 218.972656 211.847656 203.261719 217.828125 187.550781 217.828125 Z M 187.550781 99.054688 C 172.832031 99.054688 158.113281 104.65625 146.90625 115.863281 C 124.496094 138.273438 124.496094 174.738281 146.90625 197.148438 C 169.320312 219.558594 205.78125 219.558594 228.195312 197.148438 C 250.605469 174.738281 250.605469 138.273438 228.195312 115.863281 C 216.988281 104.65625 202.269531 99.054688 187.550781 99.054688 Z M 187.550781 99.054688 " fill-opacity="1" fill-rule="nonzero"/><path fill="#0d8fdb" d="M 187.550781 209.910156 C 173.871094 209.910156 160.1875 204.699219 149.773438 194.285156 C 128.941406 173.453125 128.941406 139.558594 149.773438 118.726562 C 170.605469 97.894531 204.496094 97.894531 225.328125 118.726562 C 246.160156 139.558594 246.160156 173.453125 225.328125 194.285156 C 214.914062 204.699219 201.230469 209.910156 187.550781 209.910156 Z M 187.550781 106.976562 C 174.859375 106.976562 162.171875 111.804688 152.511719 121.464844 C 133.1875 140.789062 133.1875 172.226562 152.511719 191.546875 C 171.832031 210.867188 203.269531 210.867188 222.589844 191.546875 C 241.914062 172.226562 241.914062 140.789062 222.589844 121.464844 C 212.929688 111.804688 200.242188 106.976562 187.550781 106.976562 Z M 187.550781 106.976562 " fill-opacity="1" fill-rule="nonzero"/><path fill="#0d8fdb" d="M 187.550781 202.007812 C 175.398438 202.007812 163.96875 197.273438 155.375 188.679688 C 146.78125 180.085938 142.046875 168.660156 142.046875 156.507812 C 142.046875 144.351562 146.78125 132.925781 155.375 124.332031 C 163.96875 115.738281 175.398438 111.003906 187.550781 111.003906 C 199.703125 111.003906 211.132812 115.738281 219.726562 124.332031 C 228.320312 132.925781 233.054688 144.351562 233.054688 156.507812 C 233.054688 168.660156 228.320312 180.085938 219.726562 188.679688 C 211.132812 197.273438 199.703125 202.007812 187.550781 202.007812 Z M 187.550781 114.894531 C 176.890625 114.894531 166.230469 118.953125 158.113281 127.070312 C 141.882812 143.300781 141.882812 169.710938 158.113281 185.945312 C 174.34375 202.175781 200.757812 202.175781 216.988281 185.945312 C 233.21875 169.710938 233.21875 143.300781 216.988281 127.070312 C 208.871094 118.953125 198.210938 114.894531 187.550781 114.894531 Z M 187.550781 114.894531 " fill-opacity="1" fill-rule="nonzero"/><path fill="#0d8fdb" d="M 187.550781 194.066406 C 177.929688 194.066406 168.304688 190.402344 160.980469 183.078125 C 146.328125 168.425781 146.328125 144.585938 160.980469 129.933594 C 175.628906 115.285156 199.472656 115.285156 214.121094 129.933594 C 228.773438 144.585938 228.773438 168.425781 214.121094 183.078125 C 206.796875 190.402344 197.171875 194.066406 187.550781 194.066406 Z M 187.550781 122.816406 C 178.917969 122.816406 170.289062 126.101562 163.714844 132.671875 C 150.574219 145.8125 150.574219 167.199219 163.714844 180.339844 C 176.859375 193.484375 198.242188 193.484375 211.386719 180.339844 C 224.527344 167.199219 224.527344 145.8125 211.386719 132.671875 C 204.8125 126.101562 196.183594 122.816406 187.550781 122.816406 Z M 187.550781 122.816406 " fill-opacity="1" fill-rule="nonzero"/><path fill="#0d8fdb" d="M 187.550781 186.144531 C 179.957031 186.144531 172.363281 183.253906 166.582031 177.476562 C 155.019531 165.914062 155.019531 147.101562 166.582031 135.539062 C 178.144531 123.976562 196.957031 123.976562 208.519531 135.539062 C 220.082031 147.101562 220.082031 165.914062 208.519531 177.476562 C 202.738281 183.253906 195.144531 186.144531 187.550781 186.144531 Z M 187.550781 130.738281 C 180.949219 130.738281 174.347656 133.25 169.320312 138.273438 C 159.265625 148.328125 159.265625 164.683594 169.320312 174.738281 C 179.371094 184.789062 195.730469 184.789062 205.78125 174.738281 C 215.835938 164.683594 215.835938 148.328125 205.78125 138.273438 C 200.753906 133.25 194.152344 130.738281 187.550781 130.738281 Z M 187.550781 130.738281 " fill-opacity="1" fill-rule="nonzero"/><path fill="#0d8fdb" d="M 187.550781 178.226562 C 181.984375 178.226562 176.421875 176.109375 172.1875 171.871094 C 163.710938 163.398438 163.710938 149.613281 172.1875 141.140625 C 180.660156 132.667969 194.441406 132.667969 202.917969 141.140625 C 211.390625 149.613281 211.390625 163.398438 202.917969 171.871094 C 198.679688 176.109375 193.117188 178.226562 187.550781 178.226562 Z M 187.550781 138.65625 C 182.976562 138.65625 178.40625 140.394531 174.921875 143.878906 C 167.960938 150.839844 167.960938 162.171875 174.921875 169.132812 C 181.886719 176.097656 193.214844 176.097656 200.179688 169.132812 C 207.140625 162.171875 207.140625 150.839844 200.179688 143.878906 C 196.695312 140.394531 192.125 138.65625 187.550781 138.65625 Z M 187.550781 138.65625 " fill-opacity="1" fill-rule="nonzero"/><path fill="#d9d9d9" d="M 187.550781 170.304688 C 184.015625 170.304688 180.480469 168.960938 177.789062 166.269531 C 172.40625 160.886719 172.40625 152.125 177.789062 146.746094 C 183.171875 141.359375 191.929688 141.359375 197.3125 146.746094 C 202.695312 152.125 202.695312 160.886719 197.3125 166.269531 C 194.621094 168.960938 191.085938 170.304688 187.550781 170.304688 Z M 187.550781 146.574219 C 185.007812 146.574219 182.464844 147.546875 180.527344 149.480469 C 176.652344 153.355469 176.652344 159.65625 180.527344 163.53125 C 184.402344 167.402344 190.699219 167.402344 194.574219 163.53125 C 198.449219 159.65625 198.449219 153.355469 194.574219 149.480469 C 192.636719 147.546875 190.09375 146.574219 187.550781 146.574219 Z M 187.550781 146.574219 " fill-opacity="1" fill-rule="nonzero"/><g fill="#d9d9d9" fill-opacity="1"><g transform="translate(115.318842, 281.329062)"><g><path d="M 2.5 -18.5625 L 5.9375 -18.5625 L 5.9375 -2.921875 L 15.640625 -2.921875 L 15.640625 0 L 2.5 0 Z M 2.5 -18.5625 "/></g></g></g><g fill="#d9d9d9" fill-opacity="1"><g transform="translate(136.508944, 281.329062)"><g><path d="M 2.5 -18.5625 L 5.9375 -18.5625 L 5.9375 0 L 2.5 0 Z M 2.5 -18.5625 "/></g></g></g><g fill="#d9d9d9" fill-opacity="1"><g transform="translate(150.273526, 281.329062)"><g><path d="M 18.984375 -18.5625 L 18.984375 0 L 16.140625 0 L 5.90625 -12.5625 L 5.90625 0 L 2.5 0 L 2.5 -18.5625 L 5.328125 -18.5625 L 15.5625 -6 L 15.5625 -18.5625 Z M 18.984375 -18.5625 "/></g></g></g><g fill="#d9d9d9" fill-opacity="1"><g transform="translate(177.059289, 281.329062)"><g><path d="M 8.875 -7.765625 L 5.9375 -4.75 L 5.9375 0 L 2.5 0 L 2.5 -18.5625 L 5.9375 -18.5625 L 5.9375 -9.046875 L 15.109375 -18.5625 L 18.984375 -18.5625 L 11.1875 -10.265625 L 19.46875 0 L 15.4375 0 Z M 8.875 -7.765625 "/></g></g></g><g fill="#d9d9d9" fill-opacity="1"><g transform="translate(201.696948, 281.329062)"><g><path d="M 11.15625 0.265625 C 9.269531 0.265625 7.566406 -0.144531 6.046875 -0.96875 C 4.523438 -1.789062 3.332031 -2.929688 2.46875 -4.390625 C 1.601562 -5.847656 1.171875 -7.476562 1.171875 -9.28125 C 1.171875 -11.082031 1.601562 -12.710938 2.46875 -14.171875 C 3.332031 -15.628906 4.523438 -16.769531 6.046875 -17.59375 C 7.566406 -18.414062 9.269531 -18.828125 11.15625 -18.828125 C 13.050781 -18.828125 14.757812 -18.414062 16.28125 -17.59375 C 17.800781 -16.769531 18.992188 -15.632812 19.859375 -14.1875 C 20.722656 -12.738281 21.15625 -11.101562 21.15625 -9.28125 C 21.15625 -7.457031 20.722656 -5.820312 19.859375 -4.375 C 18.992188 -2.925781 17.800781 -1.789062 16.28125 -0.96875 C 14.757812 -0.144531 13.050781 0.265625 11.15625 0.265625 Z M 11.15625 -2.75 C 12.394531 -2.75 13.507812 -3.023438 14.5 -3.578125 C 15.488281 -4.140625 16.265625 -4.921875 16.828125 -5.921875 C 17.398438 -6.921875 17.6875 -8.039062 17.6875 -9.28125 C 17.6875 -10.519531 17.398438 -11.640625 16.828125 -12.640625 C 16.265625 -13.640625 15.488281 -14.414062 14.5 -14.96875 C 13.507812 -15.519531 12.394531 -15.796875 11.15625 -15.796875 C 9.925781 -15.796875 8.816406 -15.519531 7.828125 -14.96875 C 6.835938 -14.414062 6.054688 -13.640625 5.484375 -12.640625 C 4.921875 -11.640625 4.640625 -10.519531 4.640625 -9.28125 C 4.640625 -8.039062 4.921875 -6.921875 5.484375 -5.921875 C 6.054688 -4.921875 6.835938 -4.140625 7.828125 -3.578125 C 8.816406 -3.023438 9.925781 -2.75 11.15625 -2.75 Z M 11.15625 -2.75 "/></g></g></g><g fill="#d9d9d9" fill-opacity="1"><g transform="translate(229.331345, 281.329062)"><g><path d="M 29.625 -18.5625 L 23.46875 0 L 19.8125 0 L 15.21875 -13.734375 L 10.546875 0 L 6.875 0 L 0.71875 -18.5625 L 4.296875 -18.5625 L 8.90625 -4.453125 L 13.703125 -18.5625 L 16.890625 -18.5625 L 21.578125 -4.375 L 26.328125 -18.5625 Z M 29.625 -18.5625 "/></g></g></g><g fill="#0d8fdb" fill-opacity="1"><g transform="translate(65.571412, 300.848094)"><g><path d="M 7.453125 -1.3125 L 7.453125 0 L 1.125 0 L 1.125 -8.4375 L 7.28125 -8.4375 L 7.28125 -7.125 L 2.703125 -7.125 L 2.703125 -4.921875 L 6.765625 -4.921875 L 6.765625 -3.640625 L 2.703125 -3.640625 L 2.703125 -1.3125 Z M 7.453125 -1.3125 "/></g></g></g><g fill="#0d8fdb" fill-opacity="1"><g transform="translate(76.054676, 300.848094)"><g><path d="M 6.4375 0 L 4.15625 -3.203125 L 1.890625 0 L 0.109375 0 L 3.234375 -4.296875 L 0.28125 -8.4375 L 2.046875 -8.4375 L 4.203125 -5.4375 L 6.34375 -8.4375 L 8.03125 -8.4375 L 5.078125 -4.359375 L 8.25 0 Z M 6.4375 0 "/></g></g></g><g fill="#0d8fdb" fill-opacity="1"><g transform="translate(86.815039, 300.848094)"><g><path d="M 4.609375 -8.4375 C 5.335938 -8.4375 5.972656 -8.3125 6.515625 -8.0625 C 7.054688 -7.820312 7.46875 -7.476562 7.75 -7.03125 C 8.039062 -6.582031 8.1875 -6.050781 8.1875 -5.4375 C 8.1875 -4.820312 8.039062 -4.285156 7.75 -3.828125 C 7.46875 -3.378906 7.054688 -3.035156 6.515625 -2.796875 C 5.972656 -2.554688 5.335938 -2.4375 4.609375 -2.4375 L 2.703125 -2.4375 L 2.703125 0 L 1.125 0 L 1.125 -8.4375 Z M 4.53125 -3.765625 C 5.207031 -3.765625 5.722656 -3.90625 6.078125 -4.1875 C 6.429688 -4.476562 6.609375 -4.894531 6.609375 -5.4375 C 6.609375 -5.96875 6.429688 -6.378906 6.078125 -6.671875 C 5.722656 -6.960938 5.207031 -7.109375 4.53125 -7.109375 L 2.703125 -7.109375 L 2.703125 -3.765625 Z M 4.53125 -3.765625 "/></g></g></g><g fill="#0d8fdb" fill-opacity="1"><g transform="translate(97.972974, 300.848094)"><g><path d="M 6.609375 -1.953125 L 2.390625 -1.953125 L 1.546875 0 L -0.0625 0 L 3.734375 -8.4375 L 5.28125 -8.4375 L 9.078125 0 L 7.4375 0 Z M 6.078125 -3.1875 L 4.5 -6.859375 L 2.921875 -3.1875 Z M 6.078125 -3.1875 "/></g></g></g><g fill="#0d8fdb" fill-opacity="1"><g transform="translate(109.408011, 300.848094)"><g><path d="M 8.625 -8.4375 L 8.625 0 L 7.34375 0 L 2.6875 -5.703125 L 2.6875 0 L 1.125 0 L 1.125 -8.4375 L 2.421875 -8.4375 L 7.078125 -2.71875 L 7.078125 -8.4375 Z M 8.625 -8.4375 "/></g></g></g><g fill="#0d8fdb" fill-opacity="1"><g transform="translate(121.577962, 300.848094)"><g><path d="M 1.125 -8.4375 L 4.8125 -8.4375 C 5.71875 -8.4375 6.519531 -8.257812 7.21875 -7.90625 C 7.914062 -7.5625 8.457031 -7.066406 8.84375 -6.421875 C 9.226562 -5.785156 9.421875 -5.050781 9.421875 -4.21875 C 9.421875 -3.382812 9.226562 -2.644531 8.84375 -2 C 8.457031 -1.363281 7.914062 -0.867188 7.21875 -0.515625 C 6.519531 -0.171875 5.71875 0 4.8125 0 L 1.125 0 Z M 4.75 -1.328125 C 5.363281 -1.328125 5.90625 -1.441406 6.375 -1.671875 C 6.84375 -1.910156 7.203125 -2.25 7.453125 -2.6875 C 7.710938 -3.125 7.84375 -3.632812 7.84375 -4.21875 C 7.84375 -4.789062 7.710938 -5.296875 7.453125 -5.734375 C 7.203125 -6.171875 6.84375 -6.507812 6.375 -6.75 C 5.90625 -6.988281 5.363281 -7.109375 4.75 -7.109375 L 2.703125 -7.109375 L 2.703125 -1.328125 Z M 4.75 -1.328125 "/></g></g></g><g fill="#0d8fdb" fill-opacity="1"><g transform="translate(133.94068, 300.848094)"><g/></g></g><g fill="#0d8fdb" fill-opacity="1"><g transform="translate(139.67714, 300.848094)"><g><path d="M 4.765625 -2.96875 L 4.765625 0 L 3.203125 0 L 3.203125 -2.953125 L -0.109375 -8.4375 L 1.5625 -8.4375 L 4.03125 -4.328125 L 6.53125 -8.4375 L 8.078125 -8.4375 Z M 4.765625 -2.96875 "/></g></g></g><g fill="#0d8fdb" fill-opacity="1"><g transform="translate(150.051971, 300.848094)"><g><path d="M 5.078125 0.125 C 4.210938 0.125 3.429688 -0.0625 2.734375 -0.4375 C 2.046875 -0.8125 1.503906 -1.328125 1.109375 -1.984375 C 0.722656 -2.648438 0.53125 -3.394531 0.53125 -4.21875 C 0.53125 -5.03125 0.722656 -5.769531 1.109375 -6.4375 C 1.503906 -7.101562 2.046875 -7.617188 2.734375 -7.984375 C 3.429688 -8.359375 4.210938 -8.546875 5.078125 -8.546875 C 5.929688 -8.546875 6.703125 -8.359375 7.390625 -7.984375 C 8.085938 -7.617188 8.628906 -7.101562 9.015625 -6.4375 C 9.410156 -5.78125 9.609375 -5.039062 9.609375 -4.21875 C 9.609375 -3.382812 9.410156 -2.640625 9.015625 -1.984375 C 8.628906 -1.328125 8.085938 -0.8125 7.390625 -0.4375 C 6.703125 -0.0625 5.929688 0.125 5.078125 0.125 Z M 5.078125 -1.25 C 5.640625 -1.25 6.144531 -1.375 6.59375 -1.625 C 7.039062 -1.882812 7.390625 -2.238281 7.640625 -2.6875 C 7.898438 -3.144531 8.03125 -3.65625 8.03125 -4.21875 C 8.03125 -4.78125 7.898438 -5.285156 7.640625 -5.734375 C 7.390625 -6.191406 7.039062 -6.546875 6.59375 -6.796875 C 6.144531 -7.054688 5.640625 -7.1875 5.078125 -7.1875 C 4.515625 -7.1875 4.003906 -7.054688 3.546875 -6.796875 C 3.097656 -6.546875 2.742188 -6.191406 2.484375 -5.734375 C 2.234375 -5.285156 2.109375 -4.78125 2.109375 -4.21875 C 2.109375 -3.65625 2.234375 -3.144531 2.484375 -2.6875 C 2.742188 -2.238281 3.097656 -1.882812 3.546875 -1.625 C 4.003906 -1.375 4.515625 -1.25 5.078125 -1.25 Z M 5.078125 -1.25 "/></g></g></g><g fill="#0d8fdb" fill-opacity="1"><g transform="translate(162.607444, 300.848094)"><g><path d="M 4.765625 0.125 C 3.597656 0.125 2.6875 -0.203125 2.03125 -0.859375 C 1.382812 -1.515625 1.0625 -2.453125 1.0625 -3.671875 L 1.0625 -8.4375 L 2.625 -8.4375 L 2.625 -3.734375 C 2.625 -2.078125 3.335938 -1.25 4.765625 -1.25 C 6.191406 -1.25 6.90625 -2.078125 6.90625 -3.734375 L 6.90625 -8.4375 L 8.4375 -8.4375 L 8.4375 -3.671875 C 8.4375 -2.453125 8.113281 -1.515625 7.46875 -0.859375 C 6.820312 -0.203125 5.921875 0.125 4.765625 0.125 Z M 4.765625 0.125 "/></g></g></g><g fill="#0d8fdb" fill-opacity="1"><g transform="translate(174.52438, 300.848094)"><g><path d="M 6.65625 0 L 4.921875 -2.46875 C 4.847656 -2.457031 4.742188 -2.453125 4.609375 -2.453125 L 2.703125 -2.453125 L 2.703125 0 L 1.125 0 L 1.125 -8.4375 L 4.609375 -8.4375 C 5.335938 -8.4375 5.972656 -8.3125 6.515625 -8.0625 C 7.054688 -7.820312 7.46875 -7.476562 7.75 -7.03125 C 8.039062 -6.582031 8.1875 -6.050781 8.1875 -5.4375 C 8.1875 -4.800781 8.03125 -4.253906 7.71875 -3.796875 C 7.414062 -3.335938 6.972656 -2.992188 6.390625 -2.765625 L 8.34375 0 Z M 6.609375 -5.4375 C 6.609375 -5.96875 6.429688 -6.378906 6.078125 -6.671875 C 5.722656 -6.960938 5.207031 -7.109375 4.53125 -7.109375 L 2.703125 -7.109375 L 2.703125 -3.75 L 4.53125 -3.75 C 5.207031 -3.75 5.722656 -3.894531 6.078125 -4.1875 C 6.429688 -4.476562 6.609375 -4.894531 6.609375 -5.4375 Z M 6.609375 -5.4375 "/></g></g></g><g fill="#0d8fdb" fill-opacity="1"><g transform="translate(185.742554, 300.848094)"><g/></g></g><g fill="#0d8fdb" fill-opacity="1"><g transform="translate(191.479009, 300.848094)"><g><path d="M 5.03125 0.125 C 4.1875 0.125 3.421875 -0.0625 2.734375 -0.4375 C 2.046875 -0.8125 1.503906 -1.328125 1.109375 -1.984375 C 0.722656 -2.640625 0.53125 -3.382812 0.53125 -4.21875 C 0.53125 -5.039062 0.722656 -5.78125 1.109375 -6.4375 C 1.503906 -7.101562 2.046875 -7.617188 2.734375 -7.984375 C 3.421875 -8.359375 4.191406 -8.546875 5.046875 -8.546875 C 5.734375 -8.546875 6.363281 -8.425781 6.9375 -8.1875 C 7.507812 -7.945312 7.992188 -7.597656 8.390625 -7.140625 L 7.375 -6.1875 C 6.757812 -6.851562 6.007812 -7.1875 5.125 -7.1875 C 4.539062 -7.1875 4.019531 -7.054688 3.5625 -6.796875 C 3.101562 -6.546875 2.742188 -6.195312 2.484375 -5.75 C 2.234375 -5.300781 2.109375 -4.789062 2.109375 -4.21875 C 2.109375 -3.644531 2.234375 -3.132812 2.484375 -2.6875 C 2.742188 -2.238281 3.101562 -1.882812 3.5625 -1.625 C 4.019531 -1.375 4.539062 -1.25 5.125 -1.25 C 6.007812 -1.25 6.757812 -1.582031 7.375 -2.25 L 8.390625 -1.28125 C 7.992188 -0.832031 7.507812 -0.484375 6.9375 -0.234375 C 6.363281 0.00390625 5.726562 0.125 5.03125 0.125 Z M 5.03125 0.125 "/></g></g></g><g fill="#0d8fdb" fill-opacity="1"><g transform="translate(202.648991, 300.848094)"><g><path d="M 5.078125 0.125 C 4.210938 0.125 3.429688 -0.0625 2.734375 -0.4375 C 2.046875 -0.8125 1.503906 -1.328125 1.109375 -1.984375 C 0.722656 -2.648438 0.53125 -3.394531 0.53125 -4.21875 C 0.53125 -5.03125 0.722656 -5.769531 1.109375 -6.4375 C 1.503906 -7.101562 2.046875 -7.617188 2.734375 -7.984375 C 3.429688 -8.359375 4.210938 -8.546875 5.078125 -8.546875 C 5.929688 -8.546875 6.703125 -8.359375 7.390625 -7.984375 C 8.085938 -7.617188 8.628906 -7.101562 9.015625 -6.4375 C 9.410156 -5.78125 9.609375 -5.039062 9.609375 -4.21875 C 9.609375 -3.382812 9.410156 -2.640625 9.015625 -1.984375 C 8.628906 -1.328125 8.085938 -0.8125 7.390625 -0.4375 C 6.703125 -0.0625 5.929688 0.125 5.078125 0.125 Z M 5.078125 -1.25 C 5.640625 -1.25 6.144531 -1.375 6.59375 -1.625 C 7.039062 -1.882812 7.390625 -2.238281 7.640625 -2.6875 C 7.898438 -3.144531 8.03125 -3.65625 8.03125 -4.21875 C 8.03125 -4.78125 7.898438 -5.285156 7.640625 -5.734375 C 7.390625 -6.191406 7.039062 -6.546875 6.59375 -6.796875 C 6.144531 -7.054688 5.640625 -7.1875 5.078125 -7.1875 C 4.515625 -7.1875 4.003906 -7.054688 3.546875 -6.796875 C 3.097656 -6.546875 2.742188 -6.191406 2.484375 -5.734375 C 2.234375 -5.285156 2.109375 -4.78125 2.109375 -4.21875 C 2.109375 -3.65625 2.234375 -3.144531 2.484375 -2.6875 C 2.742188 -2.238281 3.097656 -1.882812 3.546875 -1.625 C 4.003906 -1.375 4.515625 -1.25 5.078125 -1.25 Z M 5.078125 -1.25 "/></g></g></g><g fill="#0d8fdb" fill-opacity="1"><g transform="translate(215.204458, 300.848094)"><g><path d="M 8.625 -8.4375 L 8.625 0 L 7.34375 0 L 2.6875 -5.703125 L 2.6875 0 L 1.125 0 L 1.125 -8.4375 L 2.421875 -8.4375 L 7.078125 -2.71875 L 7.078125 -8.4375 Z M 8.625 -8.4375 "/></g></g></g><g fill="#0d8fdb" fill-opacity="1"><g transform="translate(227.374404, 300.848094)"><g><path d="M 8.625 -8.4375 L 8.625 0 L 7.34375 0 L 2.6875 -5.703125 L 2.6875 0 L 1.125 0 L 1.125 -8.4375 L 2.421875 -8.4375 L 7.078125 -2.71875 L 7.078125 -8.4375 Z M 8.625 -8.4375 "/></g></g></g><g fill="#0d8fdb" fill-opacity="1"><g transform="translate(239.544349, 300.848094)"><g><path d="M 7.453125 -1.3125 L 7.453125 0 L 1.125 0 L 1.125 -8.4375 L 7.28125 -8.4375 L 7.28125 -7.125 L 2.703125 -7.125 L 2.703125 -4.921875 L 6.765625 -4.921875 L 6.765625 -3.640625 L 2.703125 -3.640625 L 2.703125 -1.3125 Z M 7.453125 -1.3125 "/></g></g></g><g fill="#0d8fdb" fill-opacity="1"><g transform="translate(250.027608, 300.848094)"><g><path d="M 5.03125 0.125 C 4.1875 0.125 3.421875 -0.0625 2.734375 -0.4375 C 2.046875 -0.8125 1.503906 -1.328125 1.109375 -1.984375 C 0.722656 -2.640625 0.53125 -3.382812 0.53125 -4.21875 C 0.53125 -5.039062 0.722656 -5.78125 1.109375 -6.4375 C 1.503906 -7.101562 2.046875 -7.617188 2.734375 -7.984375 C 3.421875 -8.359375 4.191406 -8.546875 5.046875 -8.546875 C 5.734375 -8.546875 6.363281 -8.425781 6.9375 -8.1875 C 7.507812 -7.945312 7.992188 -7.597656 8.390625 -7.140625 L 7.375 -6.1875 C 6.757812 -6.851562 6.007812 -7.1875 5.125 -7.1875 C 4.539062 -7.1875 4.019531 -7.054688 3.5625 -6.796875 C 3.101562 -6.546875 2.742188 -6.195312 2.484375 -5.75 C 2.234375 -5.300781 2.109375 -4.789062 2.109375 -4.21875 C 2.109375 -3.644531 2.234375 -3.132812 2.484375 -2.6875 C 2.742188 -2.238281 3.101562 -1.882812 3.5625 -1.625 C 4.019531 -1.375 4.539062 -1.25 5.125 -1.25 C 6.007812 -1.25 6.757812 -1.582031 7.375 -2.25 L 8.390625 -1.28125 C 7.992188 -0.832031 7.507812 -0.484375 6.9375 -0.234375 C 6.363281 0.00390625 5.726562 0.125 5.03125 0.125 Z M 5.03125 0.125 "/></g></g></g><g fill="#0d8fdb" fill-opacity="1"><g transform="translate(261.197591, 300.848094)"><g><path d="M 2.84375 -7.109375 L 0.046875 -7.109375 L 0.046875 -8.4375 L 7.203125 -8.4375 L 7.203125 -7.109375 L 4.40625 -7.109375 L 4.40625 0 L 2.84375 0 Z M 2.84375 -7.109375 "/></g></g></g><g fill="#0d8fdb" fill-opacity="1"><g transform="translate(270.861615, 300.848094)"><g><path d="M 1.125 -8.4375 L 2.703125 -8.4375 L 2.703125 0 L 1.125 0 Z M 1.125 -8.4375 "/></g></g></g><g fill="#0d8fdb" fill-opacity="1"><g transform="translate(277.116115, 300.848094)"><g><path d="M 5.078125 0.125 C 4.210938 0.125 3.429688 -0.0625 2.734375 -0.4375 C 2.046875 -0.8125 1.503906 -1.328125 1.109375 -1.984375 C 0.722656 -2.648438 0.53125 -3.394531 0.53125 -4.21875 C 0.53125 -5.03125 0.722656 -5.769531 1.109375 -6.4375 C 1.503906 -7.101562 2.046875 -7.617188 2.734375 -7.984375 C 3.429688 -8.359375 4.210938 -8.546875 5.078125 -8.546875 C 5.929688 -8.546875 6.703125 -8.359375 7.390625 -7.984375 C 8.085938 -7.617188 8.628906 -7.101562 9.015625 -6.4375 C 9.410156 -5.78125 9.609375 -5.039062 9.609375 -4.21875 C 9.609375 -3.382812 9.410156 -2.640625 9.015625 -1.984375 C 8.628906 -1.328125 8.085938 -0.8125 7.390625 -0.4375 C 6.703125 -0.0625 5.929688 0.125 5.078125 0.125 Z M 5.078125 -1.25 C 5.640625 -1.25 6.144531 -1.375 6.59375 -1.625 C 7.039062 -1.882812 7.390625 -2.238281 7.640625 -2.6875 C 7.898438 -3.144531 8.03125 -3.65625 8.03125 -4.21875 C 8.03125 -4.78125 7.898438 -5.285156 7.640625 -5.734375 C 7.390625 -6.191406 7.039062 -6.546875 6.59375 -6.796875 C 6.144531 -7.054688 5.640625 -7.1875 5.078125 -7.1875 C 4.515625 -7.1875 4.003906 -7.054688 3.546875 -6.796875 C 3.097656 -6.546875 2.742188 -6.191406 2.484375 -5.734375 C 2.234375 -5.285156 2.109375 -4.78125 2.109375 -4.21875 C 2.109375 -3.65625 2.234375 -3.144531 2.484375 -2.6875 C 2.742188 -2.238281 3.097656 -1.882812 3.546875 -1.625 C 4.003906 -1.375 4.515625 -1.25 5.078125 -1.25 Z M 5.078125 -1.25 "/></g></g></g><g fill="#0d8fdb" fill-opacity="1"><g transform="translate(289.671582, 300.848094)"><g><path d="M 8.625 -8.4375 L 8.625 0 L 7.34375 0 L 2.6875 -5.703125 L 2.6875 0 L 1.125 0 L 1.125 -8.4375 L 2.421875 -8.4375 L 7.078125 -2.71875 L 7.078125 -8.4375 Z M 8.625 -8.4375 "/></g></g></g><g fill="#0d8fdb" fill-opacity="1"><g transform="translate(301.84154, 300.848094)"><g><path d="M 3.75 0.125 C 3.09375 0.125 2.460938 0.03125 1.859375 -0.15625 C 1.253906 -0.34375 0.773438 -0.585938 0.421875 -0.890625 L 0.96875 -2.109375 C 1.3125 -1.835938 1.734375 -1.613281 2.234375 -1.4375 C 2.734375 -1.269531 3.238281 -1.1875 3.75 -1.1875 C 4.375 -1.1875 4.835938 -1.285156 5.140625 -1.484375 C 5.453125 -1.679688 5.609375 -1.945312 5.609375 -2.28125 C 5.609375 -2.519531 5.519531 -2.71875 5.34375 -2.875 C 5.175781 -3.03125 4.957031 -3.148438 4.6875 -3.234375 C 4.425781 -3.328125 4.066406 -3.429688 3.609375 -3.546875 C 2.972656 -3.691406 2.453125 -3.84375 2.046875 -4 C 1.648438 -4.15625 1.3125 -4.394531 1.03125 -4.71875 C 0.75 -5.039062 0.609375 -5.476562 0.609375 -6.03125 C 0.609375 -6.5 0.734375 -6.921875 0.984375 -7.296875 C 1.234375 -7.679688 1.613281 -7.984375 2.125 -8.203125 C 2.632812 -8.429688 3.257812 -8.546875 4 -8.546875 C 4.507812 -8.546875 5.015625 -8.484375 5.515625 -8.359375 C 6.015625 -8.234375 6.445312 -8.050781 6.8125 -7.8125 L 6.3125 -6.59375 C 5.945312 -6.8125 5.5625 -6.972656 5.15625 -7.078125 C 4.75 -7.191406 4.359375 -7.25 3.984375 -7.25 C 3.367188 -7.25 2.910156 -7.144531 2.609375 -6.9375 C 2.304688 -6.726562 2.15625 -6.453125 2.15625 -6.109375 C 2.15625 -5.867188 2.238281 -5.671875 2.40625 -5.515625 C 2.582031 -5.359375 2.800781 -5.238281 3.0625 -5.15625 C 3.332031 -5.070312 3.695312 -4.972656 4.15625 -4.859375 C 4.78125 -4.710938 5.289062 -4.5625 5.6875 -4.40625 C 6.09375 -4.25 6.4375 -4.007812 6.71875 -3.6875 C 7.007812 -3.363281 7.15625 -2.929688 7.15625 -2.390625 C 7.15625 -1.921875 7.023438 -1.492188 6.765625 -1.109375 C 6.515625 -0.734375 6.132812 -0.429688 5.625 -0.203125 C 5.113281 0.015625 4.488281 0.125 3.75 0.125 Z M 3.75 0.125 "/></g></g></g></svg>