<svg xmlns="http://www.w3.org/2000/svg" xmlns:xlink="http://www.w3.org/1999/xlink" width="1024" zoomAndPan="magnify" viewBox="0 0 768 767.999994" height="1024" preserveAspectRatio="xMidYMid meet" version="1.0"><defs><clipPath id="8b0e9c9832"><path d="M 57.480469 57.480469 L 710.730469 57.480469 L 710.730469 710.730469 L 57.480469 710.730469 Z M 57.480469 57.480469 " clip-rule="nonzero"/></clipPath></defs><path fill="#18d2d2" d="M 451.742188 411.324219 L 316.46875 411.324219 C 315.125 411.324219 313.78125 411.359375 312.441406 411.425781 C 311.101562 411.496094 309.761719 411.59375 308.425781 411.726562 C 307.089844 411.859375 305.757812 412.027344 304.429688 412.226562 C 303.101562 412.421875 301.78125 412.652344 300.464844 412.917969 C 299.148438 413.179688 297.835938 413.476562 296.535156 413.800781 C 295.234375 414.128906 293.941406 414.488281 292.65625 414.878906 C 291.371094 415.269531 290.097656 415.691406 288.832031 416.144531 C 287.570312 416.597656 286.316406 417.082031 285.078125 417.597656 C 283.835938 418.109375 282.609375 418.65625 281.398438 419.230469 C 280.183594 419.804688 278.984375 420.410156 277.800781 421.042969 C 276.617188 421.675781 275.449219 422.335938 274.296875 423.027344 C 273.148438 423.71875 272.011719 424.4375 270.898438 425.183594 C 269.78125 425.929688 268.683594 426.703125 267.605469 427.503906 C 266.527344 428.304688 265.46875 429.128906 264.429688 429.980469 C 263.394531 430.832031 262.378906 431.710938 261.382812 432.613281 C 260.386719 433.511719 259.414062 434.4375 258.464844 435.386719 C 257.515625 436.335938 256.589844 437.308594 255.691406 438.304688 C 254.789062 439.300781 253.910156 440.316406 253.058594 441.351562 C 252.207031 442.390625 251.382812 443.449219 250.582031 444.527344 C 249.78125 445.605469 249.007812 446.703125 248.261719 447.820312 C 247.515625 448.933594 246.796875 450.070312 246.105469 451.21875 C 245.414062 452.371094 244.753906 453.539062 244.121094 454.722656 C 243.488281 455.90625 242.882812 457.105469 242.308594 458.320312 C 241.734375 459.53125 241.1875 460.757812 240.675781 462 C 240.160156 463.238281 239.675781 464.492188 239.222656 465.753906 C 238.769531 467.019531 238.347656 468.292969 237.957031 469.578125 C 237.566406 470.863281 237.207031 472.15625 236.878906 473.457031 C 236.554688 474.757812 236.257812 476.070312 235.996094 477.386719 C 235.730469 478.703125 235.5 480.023438 235.304688 481.351562 C 235.105469 482.679688 234.9375 484.011719 234.804688 485.347656 C 234.671875 486.683594 234.574219 488.023438 234.503906 489.363281 C 234.4375 490.703125 234.402344 492.046875 234.402344 493.390625 L 234.402344 547.417969 L 533.808594 547.417969 L 533.808594 493.390625 C 533.808594 492.046875 533.773438 490.703125 533.707031 489.363281 C 533.636719 488.023438 533.539062 486.683594 533.40625 485.347656 C 533.273438 484.011719 533.105469 482.679688 532.90625 481.351562 C 532.710938 480.023438 532.480469 478.703125 532.214844 477.386719 C 531.953125 476.070312 531.65625 474.757812 531.332031 473.457031 C 531.003906 472.15625 530.644531 470.863281 530.253906 469.578125 C 529.863281 468.292969 529.441406 467.019531 528.988281 465.753906 C 528.535156 464.492188 528.050781 463.238281 527.535156 462 C 527.023438 460.757812 526.476562 459.53125 525.902344 458.320312 C 525.328125 457.105469 524.722656 455.90625 524.089844 454.722656 C 523.457031 453.539062 522.796875 452.371094 522.105469 451.21875 C 521.414062 450.070312 520.695312 448.933594 519.949219 447.820312 C 519.203125 446.703125 518.429688 445.605469 517.628906 444.527344 C 516.828125 443.449219 516.003906 442.390625 515.152344 441.351562 C 514.300781 440.316406 513.421875 439.300781 512.519531 438.304688 C 511.621094 437.308594 510.695312 436.335938 509.746094 435.386719 C 508.796875 434.4375 507.824219 433.511719 506.828125 432.613281 C 505.832031 431.710938 504.816406 430.832031 503.78125 429.980469 C 502.742188 429.128906 501.683594 428.304688 500.605469 427.503906 C 499.527344 426.703125 498.429688 425.929688 497.3125 425.183594 C 496.199219 424.4375 495.0625 423.71875 493.914062 423.027344 C 492.761719 422.335938 491.59375 421.675781 490.410156 421.042969 C 489.226562 420.410156 488.027344 419.804688 486.8125 419.230469 C 485.601562 418.65625 484.375 418.109375 483.132812 417.597656 C 481.894531 417.082031 480.640625 416.597656 479.378906 416.144531 C 478.113281 415.691406 476.839844 415.269531 475.554688 414.878906 C 474.269531 414.488281 472.976562 414.128906 471.675781 413.800781 C 470.375 413.476562 469.0625 413.179688 467.746094 412.917969 C 466.429688 412.652344 465.109375 412.421875 463.78125 412.226562 C 462.453125 412.027344 461.121094 411.859375 459.785156 411.726562 C 458.449219 411.59375 457.109375 411.496094 455.769531 411.425781 C 454.429688 411.359375 453.085938 411.324219 451.742188 411.324219 Z M 451.742188 411.324219 " fill-opacity="1" fill-rule="nonzero"/><g clip-path="url(#8b0e9c9832)"><path fill="#18d2d2" d="M 384.105469 57.480469 C 378.761719 57.480469 373.417969 57.613281 368.078125 57.875 C 362.738281 58.136719 357.410156 58.53125 352.089844 59.054688 C 346.769531 59.578125 341.46875 60.230469 336.179688 61.015625 C 330.890625 61.800781 325.625 62.714844 320.382812 63.757812 C 315.140625 64.800781 309.925781 65.96875 304.742188 67.269531 C 299.558594 68.566406 294.40625 69.992188 289.292969 71.542969 C 284.175781 73.097656 279.101562 74.773438 274.070312 76.574219 C 269.035156 78.375 264.050781 80.296875 259.113281 82.34375 C 254.171875 84.390625 249.289062 86.554688 244.457031 88.839844 C 239.625 91.125 234.851562 93.527344 230.136719 96.046875 C 225.421875 98.566406 220.773438 101.203125 216.1875 103.949219 C 211.601562 106.699219 207.085938 109.558594 202.640625 112.527344 C 198.199219 115.496094 193.828125 118.574219 189.535156 121.757812 C 185.242188 124.941406 181.027344 128.230469 176.898438 131.621094 C 172.765625 135.011719 168.71875 138.503906 164.757812 142.09375 C 160.796875 145.683594 156.925781 149.367188 153.148438 153.148438 C 149.367188 156.925781 145.683594 160.796875 142.09375 164.757812 C 138.503906 168.71875 135.011719 172.765625 131.621094 176.898438 C 128.230469 181.027344 124.941406 185.242188 121.757812 189.535156 C 118.574219 193.828125 115.496094 198.199219 112.527344 202.640625 C 109.558594 207.085938 106.699219 211.601562 103.949219 216.1875 C 101.203125 220.773438 98.566406 225.421875 96.046875 230.136719 C 93.527344 234.851562 91.125 239.625 88.839844 244.457031 C 86.554688 249.289062 84.390625 254.171875 82.34375 259.113281 C 80.296875 264.050781 78.375 269.035156 76.574219 274.070312 C 74.773438 279.101562 73.097656 284.175781 71.542969 289.292969 C 69.992188 294.40625 68.566406 299.558594 67.269531 304.742188 C 65.96875 309.925781 64.800781 315.140625 63.757812 320.382812 C 62.714844 325.625 61.800781 330.890625 61.015625 336.179688 C 60.230469 341.46875 59.578125 346.769531 59.054688 352.089844 C 58.53125 357.410156 58.136719 362.738281 57.875 368.078125 C 57.613281 373.417969 57.480469 378.761719 57.480469 384.105469 C 57.480469 389.449219 57.613281 394.792969 57.875 400.132812 C 58.136719 405.472656 58.53125 410.800781 59.054688 416.121094 C 59.578125 421.441406 60.230469 426.742188 61.015625 432.03125 C 61.800781 437.320312 62.714844 442.585938 63.757812 447.828125 C 64.800781 453.070312 65.96875 458.285156 67.269531 463.46875 C 68.566406 468.652344 69.992188 473.804688 71.542969 478.917969 C 73.097656 484.035156 74.773438 489.109375 76.574219 494.140625 C 78.375 499.175781 80.296875 504.160156 82.34375 509.097656 C 84.390625 514.039062 86.554688 518.921875 88.839844 523.753906 C 91.125 528.589844 93.527344 533.359375 96.046875 538.074219 C 98.566406 542.789062 101.203125 547.4375 103.949219 552.023438 C 106.699219 556.609375 109.558594 561.125 112.527344 565.570312 C 115.496094 570.011719 118.574219 574.382812 121.757812 578.675781 C 124.941406 582.96875 128.230469 587.183594 131.621094 591.3125 C 135.011719 595.445312 138.503906 599.492188 142.09375 603.453125 C 145.683594 607.414062 149.367188 611.285156 153.148438 615.0625 C 156.925781 618.84375 160.796875 622.527344 164.757812 626.117188 C 168.71875 629.707031 172.765625 633.199219 176.898438 636.589844 C 181.027344 639.980469 185.242188 643.269531 189.535156 646.453125 C 193.828125 649.636719 198.199219 652.714844 202.640625 655.683594 C 207.085938 658.652344 211.601562 661.511719 216.1875 664.261719 C 220.773438 667.007812 225.421875 669.644531 230.136719 672.164062 C 234.851562 674.683594 239.625 677.085938 244.457031 679.371094 C 249.289062 681.65625 254.171875 683.820312 259.113281 685.867188 C 264.050781 687.914062 269.035156 689.835938 274.070312 691.636719 C 279.101562 693.4375 284.175781 695.113281 289.292969 696.667969 C 294.40625 698.21875 299.558594 699.644531 304.742188 700.941406 C 309.925781 702.242188 315.140625 703.410156 320.382812 704.453125 C 325.625 705.496094 330.890625 706.410156 336.179688 707.195312 C 341.46875 707.980469 346.769531 708.632812 352.089844 709.15625 C 357.410156 709.679688 362.738281 710.074219 368.078125 710.335938 C 373.417969 710.597656 378.761719 710.730469 384.105469 710.730469 C 389.449219 710.730469 394.792969 710.597656 400.132812 710.335938 C 405.472656 710.074219 410.800781 709.679688 416.121094 709.15625 C 421.441406 708.632812 426.742188 707.980469 432.03125 707.195312 C 437.320312 706.410156 442.585938 705.496094 447.828125 704.453125 C 453.070312 703.410156 458.285156 702.242188 463.46875 700.941406 C 468.652344 699.644531 473.804688 698.21875 478.917969 696.667969 C 484.035156 695.113281 489.109375 693.4375 494.140625 691.636719 C 499.175781 689.835938 504.160156 687.914062 509.097656 685.867188 C 514.039062 683.820312 518.921875 681.65625 523.753906 679.371094 C 528.585938 677.085938 533.359375 674.683594 538.074219 672.164062 C 542.789062 669.644531 547.4375 667.007812 552.023438 664.261719 C 556.609375 661.511719 561.125 658.652344 565.570312 655.683594 C 570.011719 652.714844 574.382812 649.636719 578.675781 646.453125 C 582.96875 643.269531 587.183594 639.980469 591.3125 636.589844 C 595.445312 633.199219 599.492188 629.707031 603.453125 626.117188 C 607.414062 622.527344 611.285156 618.84375 615.0625 615.0625 C 618.84375 611.285156 622.527344 607.414062 626.117188 603.453125 C 629.707031 599.492188 633.199219 595.445312 636.589844 591.3125 C 639.980469 587.183594 643.269531 582.96875 646.453125 578.675781 C 649.636719 574.382812 652.714844 570.011719 655.683594 565.570312 C 658.652344 561.125 661.511719 556.609375 664.261719 552.023438 C 667.007812 547.4375 669.644531 542.789062 672.164062 538.074219 C 674.683594 533.359375 677.085938 528.589844 679.371094 523.753906 C 681.65625 518.921875 683.820312 514.039062 685.867188 509.097656 C 687.914062 504.160156 689.835938 499.175781 691.636719 494.140625 C 693.4375 489.109375 695.113281 484.035156 696.667969 478.917969 C 698.21875 473.804688 699.644531 468.652344 700.941406 463.46875 C 702.242188 458.285156 703.410156 453.070312 704.453125 447.828125 C 705.496094 442.585938 706.410156 437.320312 707.195312 432.03125 C 707.980469 426.742188 708.632812 421.441406 709.15625 416.121094 C 709.679688 410.800781 710.074219 405.472656 710.335938 400.132812 C 710.597656 394.792969 710.730469 389.449219 710.730469 384.105469 C 710.722656 378.761719 710.585938 373.421875 710.320312 368.085938 C 710.050781 362.746094 709.652344 357.421875 709.125 352.101562 C 708.59375 346.785156 707.933594 341.484375 707.144531 336.199219 C 706.355469 330.914062 705.4375 325.652344 704.390625 320.410156 C 703.34375 315.171875 702.167969 309.957031 700.867188 304.777344 C 699.5625 299.59375 698.136719 294.445312 696.582031 289.332031 C 695.027344 284.222656 693.347656 279.148438 691.542969 274.121094 C 689.738281 269.089844 687.8125 264.105469 685.765625 259.171875 C 683.71875 254.234375 681.550781 249.351562 679.261719 244.523438 C 676.976562 239.691406 674.570312 234.921875 672.050781 230.210938 C 669.53125 225.5 666.894531 220.851562 664.144531 216.269531 C 661.398438 211.6875 658.539062 207.175781 655.566406 202.730469 C 652.597656 198.289062 649.519531 193.921875 646.335938 189.632812 C 643.152344 185.339844 639.863281 181.128906 636.472656 177 C 633.082031 172.867188 629.59375 168.824219 626.003906 164.863281 C 622.414062 160.90625 618.730469 157.035156 614.953125 153.257812 C 611.175781 149.480469 607.304688 145.796875 603.347656 142.207031 C 599.386719 138.617188 595.34375 135.128906 591.210938 131.738281 C 587.082031 128.347656 582.871094 125.058594 578.578125 121.875 C 574.289062 118.691406 569.921875 115.613281 565.480469 112.644531 C 561.035156 109.671875 556.523438 106.8125 551.941406 104.066406 C 547.359375 101.316406 542.710938 98.679688 538 96.160156 C 533.289062 93.640625 528.519531 91.234375 523.6875 88.949219 C 518.859375 86.660156 513.976562 84.492188 509.039062 82.445312 C 504.105469 80.398438 499.121094 78.472656 494.089844 76.667969 C 489.0625 74.863281 483.988281 73.183594 478.878906 71.628906 C 473.765625 70.074219 468.617188 68.648438 463.433594 67.34375 C 458.253906 66.042969 453.039062 64.867188 447.800781 63.820312 C 442.558594 62.773438 437.296875 61.855469 432.011719 61.066406 C 426.726562 60.277344 421.425781 59.617188 416.109375 59.085938 C 410.789062 58.558594 405.464844 58.160156 400.125 57.890625 C 394.789062 57.625 389.449219 57.488281 384.105469 57.480469 Z M 384.105469 166.355469 C 385.664062 166.355469 387.222656 166.394531 388.78125 166.46875 C 390.335938 166.546875 391.890625 166.660156 393.441406 166.8125 C 394.996094 166.96875 396.542969 167.15625 398.082031 167.386719 C 399.625 167.617188 401.160156 167.882812 402.691406 168.1875 C 404.21875 168.488281 405.742188 168.832031 407.253906 169.210938 C 408.765625 169.589844 410.269531 170.003906 411.757812 170.457031 C 413.25 170.910156 414.730469 171.398438 416.199219 171.925781 C 417.667969 172.449219 419.121094 173.011719 420.5625 173.605469 C 422.003906 174.203125 423.425781 174.835938 424.835938 175.503906 C 426.246094 176.167969 427.636719 176.871094 429.011719 177.605469 C 430.386719 178.339844 431.746094 179.109375 433.082031 179.910156 C 434.417969 180.710938 435.734375 181.542969 437.03125 182.410156 C 438.328125 183.277344 439.601562 184.175781 440.855469 185.101562 C 442.105469 186.03125 443.335938 186.992188 444.542969 187.980469 C 445.746094 188.96875 446.925781 189.988281 448.082031 191.035156 C 449.238281 192.082031 450.367188 193.15625 451.46875 194.257812 C 452.570312 195.359375 453.644531 196.488281 454.691406 197.644531 C 455.738281 198.800781 456.757812 199.980469 457.746094 201.183594 C 458.734375 202.390625 459.695312 203.621094 460.625 204.871094 C 461.550781 206.125 462.449219 207.398438 463.316406 208.695312 C 464.183594 209.992188 465.015625 211.308594 465.816406 212.644531 C 466.617188 213.980469 467.386719 215.339844 468.121094 216.714844 C 468.855469 218.089844 469.558594 219.480469 470.222656 220.890625 C 470.890625 222.300781 471.523438 223.722656 472.121094 225.164062 C 472.714844 226.605469 473.277344 228.058594 473.800781 229.527344 C 474.328125 230.996094 474.816406 232.476562 475.269531 233.96875 C 475.722656 235.460938 476.136719 236.960938 476.515625 238.472656 C 476.894531 239.984375 477.238281 241.507812 477.539062 243.035156 C 477.84375 244.566406 478.109375 246.101562 478.339844 247.644531 C 478.570312 249.183594 478.757812 250.730469 478.914062 252.285156 C 479.066406 253.835938 479.179688 255.390625 479.257812 256.945312 C 479.332031 258.503906 479.371094 260.0625 479.371094 261.621094 C 479.371094 263.179688 479.332031 264.738281 479.257812 266.296875 C 479.179688 267.851562 479.066406 269.40625 478.914062 270.957031 C 478.757812 272.511719 478.570312 274.058594 478.339844 275.597656 C 478.109375 277.140625 477.84375 278.675781 477.539062 280.207031 C 477.238281 281.734375 476.894531 283.257812 476.515625 284.769531 C 476.136719 286.28125 475.722656 287.785156 475.269531 289.273438 C 474.816406 290.765625 474.328125 292.246094 473.800781 293.714844 C 473.277344 295.183594 472.714844 296.636719 472.121094 298.078125 C 471.523438 299.519531 470.890625 300.941406 470.222656 302.351562 C 469.558594 303.761719 468.855469 305.152344 468.121094 306.527344 C 467.386719 307.902344 466.617188 309.261719 465.816406 310.597656 C 465.015625 311.933594 464.183594 313.25 463.316406 314.546875 C 462.449219 315.84375 461.550781 317.117188 460.625 318.371094 C 459.695312 319.625 458.734375 320.851562 457.746094 322.058594 C 456.757812 323.261719 455.738281 324.441406 454.691406 325.597656 C 453.644531 326.753906 452.570312 327.882812 451.46875 328.984375 C 450.367188 330.085938 449.238281 331.160156 448.082031 332.207031 C 446.925781 333.253906 445.746094 334.273438 444.542969 335.261719 C 443.335938 336.25 442.109375 337.210938 440.855469 338.140625 C 439.601562 339.066406 438.328125 339.964844 437.03125 340.832031 C 435.734375 341.699219 434.417969 342.53125 433.082031 343.332031 C 431.746094 344.132812 430.386719 344.902344 429.011719 345.636719 C 427.636719 346.371094 426.246094 347.074219 424.835938 347.738281 C 423.425781 348.40625 422.003906 349.039062 420.5625 349.636719 C 419.121094 350.230469 417.667969 350.792969 416.199219 351.316406 C 414.730469 351.84375 413.25 352.332031 411.757812 352.785156 C 410.269531 353.238281 408.765625 353.652344 407.253906 354.03125 C 405.742188 354.410156 404.21875 354.753906 402.691406 355.054688 C 401.160156 355.359375 399.625 355.625 398.082031 355.855469 C 396.542969 356.085938 394.996094 356.273438 393.441406 356.429688 C 391.890625 356.582031 390.335938 356.695312 388.78125 356.773438 C 387.222656 356.847656 385.664062 356.886719 384.105469 356.886719 C 382.546875 356.886719 380.988281 356.847656 379.429688 356.773438 C 377.875 356.695312 376.320312 356.582031 374.769531 356.429688 C 373.214844 356.273438 371.667969 356.085938 370.128906 355.855469 C 368.585938 355.625 367.050781 355.359375 365.519531 355.054688 C 363.992188 354.753906 362.46875 354.410156 360.957031 354.03125 C 359.445312 353.652344 357.941406 353.238281 356.453125 352.785156 C 354.960938 352.332031 353.480469 351.84375 352.011719 351.316406 C 350.542969 350.792969 349.089844 350.230469 347.648438 349.636719 C 346.207031 349.039062 344.785156 348.40625 343.375 347.738281 C 341.964844 347.074219 340.574219 346.371094 339.199219 345.636719 C 337.824219 344.902344 336.464844 344.132812 335.128906 343.332031 C 333.792969 342.53125 332.476562 341.699219 331.179688 340.832031 C 329.882812 339.964844 328.609375 339.066406 327.355469 338.140625 C 326.105469 337.210938 324.875 336.25 323.667969 335.261719 C 322.464844 334.273438 321.285156 333.253906 320.128906 332.207031 C 318.972656 331.160156 317.84375 330.085938 316.742188 328.984375 C 315.640625 327.882812 314.566406 326.753906 313.519531 325.597656 C 312.472656 324.441406 311.453125 323.261719 310.464844 322.058594 C 309.476562 320.851562 308.515625 319.625 307.585938 318.371094 C 306.660156 317.117188 305.761719 315.84375 304.894531 314.546875 C 304.027344 313.25 303.195312 311.933594 302.394531 310.597656 C 301.59375 309.261719 300.824219 307.902344 300.089844 306.527344 C 299.355469 305.152344 298.652344 303.761719 297.988281 302.351562 C 297.320312 300.941406 296.6875 299.519531 296.089844 298.078125 C 295.496094 296.636719 294.933594 295.183594 294.410156 293.714844 C 293.882812 292.246094 293.394531 290.765625 292.941406 289.273438 C 292.488281 287.785156 292.074219 286.28125 291.695312 284.769531 C 291.316406 283.257812 290.972656 281.734375 290.671875 280.207031 C 290.367188 278.675781 290.101562 277.140625 289.871094 275.597656 C 289.640625 274.058594 289.453125 272.511719 289.296875 270.957031 C 289.144531 269.40625 289.03125 267.851562 288.953125 266.296875 C 288.878906 264.738281 288.839844 263.179688 288.839844 261.621094 C 288.839844 260.0625 288.882812 258.503906 288.960938 256.949219 C 289.039062 255.390625 289.152344 253.835938 289.308594 252.285156 C 289.460938 250.734375 289.65625 249.191406 289.886719 247.648438 C 290.113281 246.105469 290.382812 244.570312 290.6875 243.042969 C 290.992188 241.515625 291.335938 239.996094 291.714844 238.484375 C 292.097656 236.972656 292.511719 235.46875 292.964844 233.980469 C 293.417969 232.488281 293.910156 231.007812 294.4375 229.542969 C 294.960938 228.074219 295.523438 226.621094 296.121094 225.179688 C 296.71875 223.742188 297.351562 222.316406 298.015625 220.910156 C 298.683594 219.5 299.386719 218.109375 300.121094 216.734375 C 300.855469 215.359375 301.625 214.003906 302.425781 212.667969 C 303.226562 211.332031 304.0625 210.015625 304.929688 208.71875 C 305.792969 207.425781 306.691406 206.152344 307.621094 204.898438 C 308.550781 203.648438 309.507812 202.417969 310.496094 201.214844 C 311.488281 200.011719 312.503906 198.832031 313.550781 197.675781 C 314.597656 196.519531 315.671875 195.390625 316.773438 194.289062 C 317.875 193.1875 319.003906 192.113281 320.160156 191.066406 C 321.3125 190.019531 322.496094 189.003906 323.699219 188.011719 C 324.902344 187.023438 326.132812 186.066406 327.382812 185.136719 C 328.636719 184.207031 329.910156 183.308594 331.203125 182.445312 C 332.5 181.578125 333.816406 180.742188 335.152344 179.941406 C 336.488281 179.140625 337.84375 178.371094 339.21875 177.636719 C 340.59375 176.902344 341.984375 176.199219 343.394531 175.53125 C 344.800781 174.867188 346.226562 174.234375 347.664062 173.636719 C 349.105469 173.039062 350.558594 172.476562 352.027344 171.953125 C 353.492188 171.425781 354.972656 170.933594 356.464844 170.480469 C 357.953125 170.027344 359.457031 169.613281 360.96875 169.230469 C 362.480469 168.851562 364 168.507812 365.527344 168.203125 C 367.054688 167.898438 368.589844 167.632812 370.132812 167.402344 C 371.675781 167.171875 373.21875 166.976562 374.769531 166.824219 C 376.320312 166.667969 377.875 166.554688 379.433594 166.476562 C 380.988281 166.398438 382.546875 166.355469 384.105469 166.355469 Z M 561.027344 561.027344 C 561.027344 561.921875 560.941406 562.804688 560.765625 563.683594 C 560.589844 564.558594 560.332031 565.410156 559.992188 566.234375 C 559.648438 567.0625 559.230469 567.84375 558.734375 568.589844 C 558.238281 569.332031 557.671875 570.019531 557.042969 570.652344 C 556.410156 571.28125 555.722656 571.847656 554.980469 572.34375 C 554.234375 572.839844 553.453125 573.257812 552.625 573.601562 C 551.800781 573.941406 550.949219 574.199219 550.074219 574.375 C 549.195312 574.550781 548.3125 574.636719 547.417969 574.636719 L 220.792969 574.636719 C 219.898438 574.636719 219.015625 574.550781 218.136719 574.375 C 217.261719 574.199219 216.410156 573.941406 215.585938 573.601562 C 214.757812 573.257812 213.976562 572.839844 213.230469 572.34375 C 212.488281 571.847656 211.800781 571.28125 211.167969 570.652344 C 210.539062 570.019531 209.972656 569.332031 209.476562 568.589844 C 208.980469 567.84375 208.5625 567.0625 208.21875 566.234375 C 207.878906 565.410156 207.621094 564.558594 207.445312 563.683594 C 207.269531 562.804688 207.183594 561.921875 207.183594 561.027344 L 207.183594 493.390625 C 207.1875 491.601562 207.230469 489.8125 207.320312 488.027344 C 207.410156 486.242188 207.546875 484.460938 207.722656 482.679688 C 207.898438 480.902344 208.121094 479.128906 208.382812 477.359375 C 208.648438 475.59375 208.957031 473.832031 209.304688 472.078125 C 209.65625 470.324219 210.050781 468.582031 210.484375 466.847656 C 210.921875 465.113281 211.398438 463.390625 211.917969 461.679688 C 212.441406 459.96875 213.003906 458.273438 213.605469 456.589844 C 214.210938 454.90625 214.851562 453.242188 215.539062 451.589844 C 216.222656 449.9375 216.949219 448.304688 217.714844 446.6875 C 218.480469 445.074219 219.285156 443.476562 220.128906 441.898438 C 220.972656 440.324219 221.851562 438.769531 222.773438 437.234375 C 223.691406 435.703125 224.648438 434.191406 225.644531 432.707031 C 226.636719 431.21875 227.667969 429.757812 228.730469 428.324219 C 229.796875 426.886719 230.898438 425.480469 232.03125 424.097656 C 233.164062 422.714844 234.332031 421.363281 235.535156 420.035156 C 236.734375 418.710938 237.96875 417.417969 239.230469 416.152344 C 240.496094 414.890625 241.789062 413.65625 243.113281 412.457031 C 244.441406 411.253906 245.792969 410.085938 247.175781 408.953125 C 248.558594 407.820312 249.964844 406.71875 251.402344 405.652344 C 252.835938 404.589844 254.296875 403.558594 255.785156 402.566406 C 257.269531 401.570312 258.78125 400.613281 260.3125 399.695312 C 261.847656 398.773438 263.402344 397.894531 264.976562 397.050781 C 266.554688 396.207031 268.152344 395.402344 269.765625 394.636719 C 271.382812 393.871094 273.015625 393.144531 274.667969 392.460938 C 276.320312 391.773438 277.984375 391.132812 279.667969 390.527344 C 281.351562 389.925781 283.046875 389.363281 284.757812 388.839844 C 286.46875 388.320312 288.191406 387.84375 289.925781 387.40625 C 291.660156 386.972656 293.402344 386.578125 295.15625 386.226562 C 296.910156 385.878906 298.671875 385.570312 300.4375 385.304688 C 302.207031 385.042969 303.980469 384.820312 305.757812 384.644531 C 307.539062 384.46875 309.320312 384.332031 311.105469 384.242188 C 312.890625 384.152344 314.679688 384.109375 316.46875 384.105469 L 451.742188 384.105469 C 453.53125 384.109375 455.320312 384.152344 457.105469 384.242188 C 458.890625 384.332031 460.671875 384.46875 462.453125 384.644531 C 464.230469 384.820312 466.003906 385.042969 467.773438 385.304688 C 469.539062 385.570312 471.300781 385.878906 473.054688 386.226562 C 474.808594 386.578125 476.550781 386.972656 478.285156 387.40625 C 480.019531 387.84375 481.742188 388.320312 483.453125 388.839844 C 485.164062 389.363281 486.859375 389.925781 488.542969 390.527344 C 490.226562 391.132812 491.890625 391.773438 493.542969 392.460938 C 495.195312 393.144531 496.828125 393.871094 498.445312 394.636719 C 500.058594 395.402344 501.65625 396.207031 503.234375 397.050781 C 504.808594 397.894531 506.363281 398.773438 507.898438 399.695312 C 509.429688 400.613281 510.941406 401.570312 512.425781 402.566406 C 513.914062 403.558594 515.375 404.589844 516.808594 405.652344 C 518.246094 406.71875 519.652344 407.820312 521.035156 408.953125 C 522.417969 410.085938 523.769531 411.253906 525.097656 412.457031 C 526.421875 413.65625 527.714844 414.890625 528.980469 416.152344 C 530.242188 417.417969 531.476562 418.710938 532.675781 420.035156 C 533.878906 421.363281 535.046875 422.714844 536.179688 424.097656 C 537.3125 425.480469 538.414062 426.886719 539.480469 428.324219 C 540.542969 429.757812 541.574219 431.21875 542.566406 432.707031 C 543.5625 434.191406 544.519531 435.703125 545.4375 437.234375 C 546.359375 438.769531 547.238281 440.324219 548.082031 441.898438 C 548.925781 443.476562 549.730469 445.074219 550.496094 446.6875 C 551.261719 448.304688 551.988281 449.9375 552.671875 451.589844 C 553.359375 453.242188 554 454.90625 554.605469 456.589844 C 555.207031 458.273438 555.769531 459.96875 556.292969 461.679688 C 556.8125 463.390625 557.289062 465.113281 557.726562 466.847656 C 558.160156 468.582031 558.554688 470.324219 558.90625 472.078125 C 559.253906 473.832031 559.5625 475.59375 559.828125 477.359375 C 560.089844 479.128906 560.3125 480.902344 560.488281 482.679688 C 560.664062 484.460938 560.800781 486.242188 560.890625 488.027344 C 560.980469 489.8125 561.023438 491.601562 561.027344 493.390625 Z M 574.636719 343.277344 L 547.417969 343.277344 L 547.417969 370.496094 C 547.417969 371.390625 547.332031 372.273438 547.15625 373.152344 C 546.980469 374.027344 546.722656 374.878906 546.382812 375.703125 C 546.039062 376.53125 545.621094 377.3125 545.125 378.058594 C 544.628906 378.800781 544.0625 379.488281 543.433594 380.121094 C 542.800781 380.75 542.113281 381.316406 541.371094 381.8125 C 540.625 382.308594 539.84375 382.726562 539.015625 383.070312 C 538.191406 383.410156 537.339844 383.667969 536.464844 383.84375 C 535.585938 384.019531 534.703125 384.105469 533.808594 384.105469 C 532.914062 384.105469 532.03125 384.019531 531.152344 383.84375 C 530.277344 383.667969 529.425781 383.410156 528.601562 383.070312 C 527.773438 382.726562 526.992188 382.308594 526.246094 381.8125 C 525.503906 381.316406 524.816406 380.75 524.183594 380.121094 C 523.554688 379.488281 522.988281 378.800781 522.492188 378.058594 C 521.996094 377.3125 521.578125 376.53125 521.234375 375.703125 C 520.894531 374.878906 520.636719 374.027344 520.460938 373.152344 C 520.285156 372.273438 520.199219 371.390625 520.199219 370.496094 L 520.199219 343.277344 L 492.980469 343.277344 C 492.085938 343.277344 491.203125 343.191406 490.324219 343.015625 C 489.449219 342.839844 488.597656 342.582031 487.773438 342.242188 C 486.945312 341.898438 486.164062 341.480469 485.417969 340.984375 C 484.675781 340.488281 483.988281 339.921875 483.355469 339.292969 C 482.726562 338.660156 482.160156 337.972656 481.664062 337.230469 C 481.167969 336.484375 480.75 335.703125 480.40625 334.875 C 480.066406 334.050781 479.808594 333.199219 479.632812 332.324219 C 479.457031 331.445312 479.371094 330.5625 479.371094 329.667969 C 479.371094 328.773438 479.457031 327.890625 479.632812 327.011719 C 479.808594 326.136719 480.066406 325.285156 480.40625 324.460938 C 480.75 323.632812 481.167969 322.851562 481.664062 322.105469 C 482.160156 321.363281 482.726562 320.675781 483.355469 320.042969 C 483.988281 319.414062 484.675781 318.847656 485.417969 318.351562 C 486.164062 317.855469 486.945312 317.4375 487.773438 317.09375 C 488.597656 316.753906 489.449219 316.496094 490.324219 316.320312 C 491.203125 316.144531 492.085938 316.058594 492.980469 316.058594 L 520.199219 316.058594 L 520.199219 288.839844 C 520.199219 287.945312 520.285156 287.0625 520.460938 286.183594 C 520.636719 285.308594 520.894531 284.457031 521.234375 283.632812 C 521.578125 282.804688 521.996094 282.023438 522.492188 281.277344 C 522.988281 280.535156 523.554688 279.847656 524.183594 279.214844 C 524.816406 278.585938 525.503906 278.019531 526.246094 277.523438 C 526.992188 277.027344 527.773438 276.609375 528.601562 276.265625 C 529.425781 275.925781 530.277344 275.667969 531.152344 275.492188 C 532.03125 275.316406 532.914062 275.230469 533.808594 275.230469 C 534.703125 275.230469 535.585938 275.316406 536.464844 275.492188 C 537.339844 275.667969 538.191406 275.925781 539.015625 276.265625 C 539.84375 276.609375 540.625 277.027344 541.371094 277.523438 C 542.113281 278.019531 542.800781 278.585938 543.433594 279.214844 C 544.0625 279.847656 544.628906 280.535156 545.125 281.277344 C 545.621094 282.023438 546.039062 282.804688 546.382812 283.632812 C 546.722656 284.457031 546.980469 285.308594 547.15625 286.183594 C 547.332031 287.0625 547.417969 287.945312 547.417969 288.839844 L 547.417969 316.058594 L 574.636719 316.058594 C 575.53125 316.058594 576.414062 316.144531 577.292969 316.320312 C 578.167969 316.496094 579.019531 316.753906 579.84375 317.09375 C 580.671875 317.4375 581.453125 317.855469 582.199219 318.351562 C 582.941406 318.847656 583.628906 319.414062 584.261719 320.042969 C 584.890625 320.675781 585.457031 321.363281 585.953125 322.105469 C 586.449219 322.851562 586.867188 323.632812 587.210938 324.460938 C 587.550781 325.285156 587.808594 326.136719 587.984375 327.011719 C 588.160156 327.890625 588.246094 328.773438 588.246094 329.667969 C 588.246094 330.5625 588.160156 331.445312 587.984375 332.324219 C 587.808594 333.199219 587.550781 334.050781 587.210938 334.875 C 586.867188 335.703125 586.449219 336.484375 585.953125 337.230469 C 585.457031 337.972656 584.890625 338.660156 584.261719 339.292969 C 583.628906 339.921875 582.941406 340.488281 582.199219 340.984375 C 581.453125 341.480469 580.671875 341.898438 579.84375 342.242188 C 579.019531 342.582031 578.167969 342.839844 577.292969 343.015625 C 576.414062 343.191406 575.53125 343.277344 574.636719 343.277344 Z M 574.636719 343.277344 " fill-opacity="1" fill-rule="nonzero"/></g><path fill="#18d2d2" d="M 452.152344 261.621094 C 452.152344 262.734375 452.125 263.847656 452.070312 264.960938 C 452.015625 266.074219 451.933594 267.183594 451.824219 268.289062 C 451.714844 269.398438 451.578125 270.503906 451.414062 271.605469 C 451.253906 272.707031 451.0625 273.804688 450.84375 274.894531 C 450.628906 275.988281 450.382812 277.074219 450.113281 278.15625 C 449.84375 279.234375 449.546875 280.308594 449.222656 281.375 C 448.898438 282.441406 448.550781 283.496094 448.175781 284.546875 C 447.800781 285.59375 447.398438 286.632812 446.972656 287.660156 C 446.546875 288.691406 446.09375 289.707031 445.621094 290.714844 C 445.144531 291.722656 444.640625 292.714844 444.117188 293.699219 C 443.59375 294.679688 443.042969 295.648438 442.472656 296.605469 C 441.898438 297.558594 441.304688 298.5 440.683594 299.425781 C 440.066406 300.351562 439.425781 301.261719 438.761719 302.15625 C 438.097656 303.050781 437.414062 303.929688 436.707031 304.789062 C 436 305.652344 435.273438 306.492188 434.523438 307.320312 C 433.777344 308.144531 433.007812 308.949219 432.222656 309.738281 C 431.433594 310.523438 430.628906 311.292969 429.804688 312.039062 C 428.976562 312.789062 428.136719 313.515625 427.273438 314.222656 C 426.414062 314.929688 425.535156 315.613281 424.640625 316.277344 C 423.746094 316.941406 422.835938 317.582031 421.910156 318.199219 C 420.984375 318.820312 420.042969 319.414062 419.089844 319.988281 C 418.132812 320.558594 417.164062 321.109375 416.183594 321.632812 C 415.199219 322.15625 414.207031 322.660156 413.199219 323.132812 C 412.191406 323.609375 411.175781 324.0625 410.144531 324.488281 C 409.117188 324.914062 408.078125 325.316406 407.03125 325.691406 C 405.980469 326.066406 404.925781 326.414062 403.859375 326.738281 C 402.792969 327.0625 401.71875 327.359375 400.640625 327.628906 C 399.558594 327.898438 398.472656 328.144531 397.378906 328.359375 C 396.289062 328.578125 395.191406 328.769531 394.089844 328.929688 C 392.988281 329.09375 391.882812 329.230469 390.773438 329.339844 C 389.667969 329.449219 388.558594 329.53125 387.445312 329.585938 C 386.332031 329.640625 385.21875 329.667969 384.105469 329.667969 C 382.992188 329.667969 381.878906 329.640625 380.765625 329.585938 C 379.65625 329.53125 378.542969 329.449219 377.4375 329.339844 C 376.328125 329.230469 375.222656 329.09375 374.121094 328.929688 C 373.019531 328.769531 371.921875 328.578125 370.832031 328.359375 C 369.738281 328.144531 368.652344 327.898438 367.570312 327.628906 C 366.492188 327.359375 365.417969 327.0625 364.351562 326.738281 C 363.285156 326.414062 362.230469 326.066406 361.179688 325.691406 C 360.132812 325.316406 359.09375 324.914062 358.066406 324.488281 C 357.035156 324.0625 356.019531 323.609375 355.011719 323.132812 C 354.003906 322.660156 353.011719 322.15625 352.027344 321.632812 C 351.046875 321.109375 350.078125 320.558594 349.121094 319.988281 C 348.167969 319.414062 347.226562 318.820312 346.300781 318.199219 C 345.375 317.582031 344.464844 316.941406 343.570312 316.277344 C 342.675781 315.613281 341.796875 314.929688 340.9375 314.222656 C 340.074219 313.515625 339.234375 312.789062 338.40625 312.039062 C 337.582031 311.292969 336.777344 310.523438 335.988281 309.738281 C 335.203125 308.949219 334.433594 308.144531 333.6875 307.320312 C 332.9375 306.492188 332.210938 305.652344 331.503906 304.789062 C 330.796875 303.929688 330.113281 303.050781 329.449219 302.15625 C 328.785156 301.261719 328.144531 300.351562 327.527344 299.425781 C 326.90625 298.5 326.3125 297.558594 325.738281 296.605469 C 325.167969 295.648438 324.617188 294.679688 324.09375 293.699219 C 323.570312 292.714844 323.066406 291.722656 322.59375 290.714844 C 322.117188 289.707031 321.664062 288.691406 321.238281 287.660156 C 320.8125 286.632812 320.410156 285.59375 320.035156 284.546875 C 319.660156 283.496094 319.3125 282.441406 318.988281 281.375 C 318.664062 280.308594 318.367188 279.234375 318.097656 278.15625 C 317.828125 277.074219 317.582031 275.988281 317.367188 274.894531 C 317.148438 273.804688 316.957031 272.707031 316.796875 271.605469 C 316.632812 270.503906 316.496094 269.398438 316.386719 268.289062 C 316.277344 267.183594 316.195312 266.074219 316.140625 264.960938 C 316.085938 263.847656 316.058594 262.734375 316.058594 261.621094 C 316.058594 260.507812 316.085938 259.394531 316.140625 258.28125 C 316.195312 257.171875 316.277344 256.058594 316.386719 254.953125 C 316.496094 253.84375 316.632812 252.738281 316.796875 251.636719 C 316.957031 250.535156 317.148438 249.4375 317.367188 248.347656 C 317.582031 247.253906 317.828125 246.167969 318.097656 245.085938 C 318.367188 244.007812 318.664062 242.933594 318.988281 241.867188 C 319.3125 240.800781 319.660156 239.746094 320.035156 238.695312 C 320.410156 237.648438 320.8125 236.609375 321.238281 235.582031 C 321.664062 234.550781 322.117188 233.535156 322.59375 232.527344 C 323.066406 231.519531 323.570312 230.527344 324.09375 229.542969 C 324.617188 228.5625 325.167969 227.59375 325.738281 226.636719 C 326.3125 225.683594 326.90625 224.742188 327.527344 223.816406 C 328.144531 222.890625 328.785156 221.980469 329.449219 221.085938 C 330.113281 220.191406 330.796875 219.3125 331.503906 218.453125 C 332.210938 217.59375 332.9375 216.75 333.6875 215.921875 C 334.433594 215.097656 335.203125 214.292969 335.988281 213.503906 C 336.777344 212.71875 337.582031 211.949219 338.40625 211.203125 C 339.234375 210.453125 340.074219 209.726562 340.9375 209.019531 C 341.796875 208.3125 342.675781 207.628906 343.570312 206.964844 C 344.464844 206.300781 345.375 205.660156 346.300781 205.042969 C 347.226562 204.421875 348.167969 203.828125 349.121094 203.253906 C 350.078125 202.683594 351.046875 202.132812 352.027344 201.609375 C 353.011719 201.085938 354.003906 200.582031 355.011719 200.109375 C 356.019531 199.632812 357.035156 199.179688 358.066406 198.753906 C 359.09375 198.328125 360.132812 197.925781 361.179688 197.550781 C 362.230469 197.175781 363.285156 196.828125 364.351562 196.503906 C 365.417969 196.179688 366.492188 195.882812 367.570312 195.613281 C 368.652344 195.34375 369.738281 195.097656 370.832031 194.882812 C 371.921875 194.664062 373.019531 194.472656 374.121094 194.3125 C 375.222656 194.148438 376.328125 194.011719 377.4375 193.902344 C 378.542969 193.792969 379.65625 193.710938 380.765625 193.65625 C 381.878906 193.601562 382.992188 193.574219 384.105469 193.574219 C 385.21875 193.574219 386.332031 193.601562 387.445312 193.65625 C 388.558594 193.710938 389.667969 193.792969 390.773438 193.902344 C 391.882812 194.011719 392.988281 194.148438 394.089844 194.3125 C 395.191406 194.472656 396.289062 194.664062 397.378906 194.882812 C 398.472656 195.097656 399.558594 195.34375 400.640625 195.613281 C 401.71875 195.882812 402.792969 196.179688 403.859375 196.503906 C 404.925781 196.828125 405.980469 197.175781 407.03125 197.550781 C 408.078125 197.925781 409.117188 198.328125 410.144531 198.753906 C 411.175781 199.179688 412.191406 199.632812 413.199219 200.109375 C 414.207031 200.582031 415.199219 201.085938 416.183594 201.609375 C 417.164062 202.132812 418.132812 202.683594 419.089844 203.253906 C 420.042969 203.828125 420.984375 204.421875 421.910156 205.042969 C 422.835938 205.660156 423.746094 206.300781 424.640625 206.964844 C 425.535156 207.628906 426.414062 208.3125 427.273438 209.019531 C 428.136719 209.726562 428.976562 210.453125 429.804688 211.203125 C 430.628906 211.949219 431.433594 212.71875 432.222656 213.503906 C 433.007812 214.292969 433.777344 215.097656 434.523438 215.921875 C 435.273438 216.75 436 217.59375 436.707031 218.453125 C 437.414062 219.3125 438.097656 220.191406 438.761719 221.085938 C 439.425781 221.980469 440.066406 222.890625 440.683594 223.816406 C 441.304688 224.742188 441.898438 225.683594 442.472656 226.636719 C 443.042969 227.59375 443.59375 228.5625 444.117188 229.542969 C 444.640625 230.527344 445.144531 231.519531 445.617188 232.527344 C 446.09375 233.535156 446.546875 234.550781 446.972656 235.582031 C 447.398438 236.609375 447.800781 237.648438 448.175781 238.695312 C 448.550781 239.746094 448.898438 240.800781 449.222656 241.867188 C 449.546875 242.933594 449.84375 244.007812 450.113281 245.085938 C 450.382812 246.167969 450.628906 247.253906 450.84375 248.347656 C 451.0625 249.4375 451.253906 250.535156 451.414062 251.636719 C 451.578125 252.738281 451.714844 253.84375 451.824219 254.953125 C 451.933594 256.058594 452.015625 257.171875 452.070312 258.28125 C 452.125 259.394531 452.152344 260.507812 452.152344 261.621094 Z M 452.152344 261.621094 " fill-opacity="1" fill-rule="nonzero"/></svg>