<svg xmlns="http://www.w3.org/2000/svg" xmlns:xlink="http://www.w3.org/1999/xlink" width="1024" zoomAndPan="magnify" viewBox="0 0 768 767.999994" height="1024" preserveAspectRatio="xMidYMid meet" version="1.0"><defs><clipPath id="de0f02e99c"><path d="M 301 677 L 468 677 L 468 743.328125 L 301 743.328125 Z M 301 677 " clip-rule="nonzero"/></clipPath><clipPath id="b47f803bd2"><path d="M 57.480469 24.828125 L 710.730469 24.828125 L 710.730469 646 L 57.480469 646 Z M 57.480469 24.828125 " clip-rule="nonzero"/></clipPath></defs><g clip-path="url(#de0f02e99c)"><path fill="#18d2d2" d="M 466.214844 680.777344 C 464.617188 678.453125 461.417969 676.851562 459.378906 677.144531 L 309.269531 678.015625 C 309.269531 678.015625 303.886719 679.46875 302.429688 681.796875 C 300.976562 684.125 300.6875 687.03125 301.847656 689.503906 C 316.105469 722.230469 348.542969 743.320312 384.179688 743.320312 C 420.398438 743.320312 452.835938 721.792969 466.945312 688.488281 C 467.960938 685.867188 467.671875 682.960938 466.214844 680.777344 Z M 466.214844 680.777344 " fill-opacity="1" fill-rule="nonzero"/></g><g clip-path="url(#b47f803bd2)"><path fill="#18d2d2" d="M 704.914062 600.203125 L 612.835938 523.410156 L 612.835938 318.777344 C 612.835938 215.074219 543.308594 127.375 448.46875 99.449219 C 448.90625 96.394531 449.488281 93.339844 449.488281 90.140625 C 449.488281 54.074219 420.25 24.839844 384.179688 24.839844 C 348.105469 24.839844 318.867188 54.074219 318.867188 90.140625 C 318.867188 93.339844 319.449219 96.394531 319.886719 99.449219 C 225.046875 127.375 155.519531 214.929688 155.519531 318.777344 L 155.519531 523.410156 L 63.300781 600.203125 C 59.515625 603.257812 57.480469 607.914062 57.480469 612.710938 L 57.480469 629 C 57.480469 638.019531 64.753906 645.292969 73.773438 645.292969 L 694.4375 645.292969 C 703.457031 645.292969 710.730469 638.019531 710.730469 629 L 710.730469 612.710938 C 710.730469 607.914062 708.546875 603.257812 704.914062 600.203125 Z M 351.742188 92.761719 C 351.742188 91.886719 351.449219 91.015625 351.449219 90.140625 C 351.449219 72.105469 366.140625 57.417969 384.179688 57.417969 C 402.214844 57.417969 416.761719 72.105469 416.761719 90.140625 C 416.761719 91.015625 416.617188 91.886719 416.46875 92.761719 C 405.851562 91.304688 395.085938 90.140625 384.03125 90.140625 C 372.976562 90.140625 362.359375 91.160156 351.742188 92.761719 Z M 351.742188 92.761719 " fill-opacity="1" fill-rule="nonzero"/></g></svg>