<svg xmlns="http://www.w3.org/2000/svg" xmlns:xlink="http://www.w3.org/1999/xlink" width="1024" zoomAndPan="magnify" viewBox="0 0 768 767.999994" height="1024" preserveAspectRatio="xMidYMid meet" version="1.0"><defs><clipPath id="5942bdb035"><path d="M 231 147 L 701.601562 147 L 701.601562 698.117188 L 231 698.117188 Z M 231 147 " clip-rule="nonzero"/></clipPath><clipPath id="0197d881a7"><path d="M 66.351562 69 L 382 69 L 382 561 L 66.351562 561 Z M 66.351562 69 " clip-rule="nonzero"/></clipPath></defs><g clip-path="url(#5942bdb035)"><path fill="#18d2d2" d="M 435.070312 692.25 C 445.390625 698.117188 457.292969 699.695312 468.738281 696.59375 C 480.1875 693.492188 489.71875 686.101562 495.640625 675.839844 L 695.679688 327.027344 C 701.601562 316.707031 703.125 304.75 700.078125 293.300781 C 696.921875 281.851562 689.589844 272.324219 679.269531 266.402344 L 482.613281 153.664062 C 472.347656 147.742188 460.335938 146.164062 448.945312 149.320312 C 437.496094 152.421875 427.964844 159.753906 422.042969 170.074219 L 395.761719 215.871094 L 395.761719 515.785156 C 395.761719 547.933594 369.652344 574.101562 337.503906 574.101562 L 231.3125 574.101562 C 233.566406 576.074219 235.824219 577.992188 238.417969 579.457031 L 435.070312 692.25 " fill-opacity="1" fill-rule="nonzero"/></g><g clip-path="url(#0197d881a7)"><path fill="#18d2d2" d="M 66.351562 515.785156 C 66.351562 540.261719 86.257812 560.167969 110.734375 560.167969 L 337.449219 560.167969 C 361.925781 560.167969 381.832031 540.261719 381.832031 515.785156 L 381.832031 113.621094 C 381.832031 89.203125 361.925781 69.296875 337.449219 69.296875 L 110.734375 69.296875 C 86.257812 69.296875 66.351562 89.203125 66.351562 113.621094 L 66.351562 515.785156 " fill-opacity="1" fill-rule="nonzero"/></g></svg>